<svg width="344" height="327" viewBox="0 0 344 327" fill="none" xmlns="http://www.w3.org/2000/svg">
<g opacity="0.3">
<g clip-path="url(#clip0_5504_2114)">
<path d="M46.3335 88.4642C45.4089 75.2417 55.3784 63.7732 68.6009 62.8485L146.976 57.3681C160.198 56.4434 171.667 66.4129 172.591 79.6354L189.664 323.788L63.4063 332.617L46.3335 88.4642Z" fill="white"/>
<rect x="9.48169" y="96.312" width="201.411" height="29.2076" transform="rotate(-16 9.48169 96.312)" fill="#D3DBF5"/>
<rect x="13.377" y="152.017" width="201.411" height="29.2076" transform="rotate(-16 13.377 152.017)" fill="#D3DBF5"/>
<rect x="17.2722" y="207.722" width="201.411" height="29.2076" transform="rotate(-16 17.2722 207.722)" fill="#D3DBF5"/>
<rect x="21.1675" y="263.427" width="201.411" height="29.2076" transform="rotate(-16 21.1675 263.427)" fill="#D3DBF5"/>
<rect x="25.0628" y="319.133" width="201.411" height="29.2076" transform="rotate(-16 25.0628 319.133)" fill="#D3DBF5"/>
</g>
</g>
<path d="M227.816 120.52L229.073 113.387L246.631 101.95C247.881 101.142 248.822 100.399 249.456 99.7196C250.128 99.0472 250.595 98.4177 250.857 97.8312C251.164 97.213 251.364 96.6354 251.459 96.0985C251.689 94.7946 251.427 93.7005 250.673 92.8163C249.958 91.9388 248.738 91.3479 247.012 91.0436C245.554 90.7866 244.135 90.8725 242.755 91.3014C241.374 91.7302 240.166 92.5256 239.131 93.6875L231.506 87.4791C233.448 85.2116 235.974 83.5611 239.082 82.5274C242.191 81.4938 245.72 81.3252 249.67 82.0217C252.777 82.5695 255.412 83.5482 257.575 84.9579C259.739 86.3675 261.311 88.1078 262.29 90.1786C263.308 92.2561 263.597 94.5414 263.157 97.0342C262.927 98.3382 262.525 99.6117 261.95 100.855C261.381 102.06 260.47 103.303 259.216 104.584C258.007 105.834 256.288 107.172 254.06 108.598L240.146 117.534L238.958 113.172L260.761 117.017L259.168 126.048L227.816 120.52Z" fill="white"/>
<path d="M189.405 113.747L207.046 97.4614L205.72 103.634L195.248 82.628L207.559 84.7988L213.33 97.1458L208.687 96.5644L218.834 86.7869L230.397 88.8258L213.443 104.58L214.498 98.5973L225.302 120.077L212.818 117.876L206.834 104.72L211.325 106.164L201.255 115.837L189.405 113.747Z" fill="white"/>
<path d="M154.872 153.654C157.174 140.601 169.622 131.885 182.675 134.187L260.048 147.829C273.101 150.131 281.817 162.579 279.516 175.632L238.671 407.276L114.027 385.298L154.872 153.654Z" fill="white"/>
<path d="M328.673 47.1345C327.162 53.1137 323.737 58.1076 319.208 61.6055C313.002 66.436 304.69 68.4615 296.461 66.3874C294.92 65.9995 293.443 65.481 292.036 64.8455C291.522 64.6265 291.009 64.3747 290.528 64.1019C286.455 61.9651 283.101 58.8231 280.68 55.0862C280.263 54.4598 279.877 53.8123 279.532 53.1477C279.024 52.1941 278.573 51.208 278.186 50.2029C276.264 45.26 275.816 39.7068 277.205 34.1695C280.785 19.9458 295.223 11.3262 309.44 14.9148C323.648 18.4995 332.269 32.9282 328.679 47.148L328.673 47.1345Z" fill="white"/>
<path d="M280.671 55.0818C280.25 54.4651 279.868 53.808 279.518 53.153C279.01 52.1994 278.56 51.2133 278.173 50.2082C279.23 49.6637 280.21 49.3113 281.089 49.2643C281.26 49.2553 281.422 49.2424 281.581 49.2621C281.581 49.2621 281.605 49.2603 281.614 49.2642L280.657 55.0876L280.671 55.0818Z" fill="#407BFF"/>
<path opacity="0.7" d="M280.671 55.082C280.25 54.4652 279.868 53.8082 279.518 53.1532C279.01 52.1996 278.56 51.2135 278.173 50.2083C279.23 49.6639 280.21 49.3115 281.089 49.2645C281.255 49.2419 281.422 49.2425 281.585 49.2527C281.585 49.2527 281.608 49.2508 281.632 49.249L280.661 55.0781L280.671 55.082Z" fill="white"/>
<path d="M319.204 61.6146C312.998 66.4451 304.687 68.4706 296.457 66.3965C294.916 66.0086 293.44 65.4901 292.032 64.8546C291.518 64.6356 291.005 64.3838 290.524 64.111C286.451 61.9742 283.098 58.8322 280.677 55.0953C280.26 54.4689 279.874 53.8214 279.528 53.1568C280.2 51.7976 280.885 50.4885 281.585 49.2525C281.585 49.2525 281.585 49.2525 281.614 49.2641C282.091 49.3561 286.381 50.263 292.355 51.8948C292.62 51.9572 292.891 52.0331 293.168 52.1225C294.435 52.4672 295.786 52.8564 297.18 53.2746C297.989 53.512 298.813 53.7667 299.656 54.0292C302.214 54.8282 304.901 55.7239 307.595 56.7118C308.275 56.9641 308.954 57.2164 309.63 57.4783C312.908 58.7356 316.158 60.1158 319.197 61.6338L319.204 61.6146Z" fill="#407BFF"/>
<path opacity="0.7" d="M319.204 61.615C312.998 66.4456 304.687 68.4711 296.457 66.397C294.916 66.0091 293.439 65.4906 292.032 64.8551C291.518 64.636 291.005 64.3843 290.524 64.1115C286.451 61.9747 283.097 58.8326 280.676 55.0957C280.259 54.4693 279.873 53.8219 279.528 53.1573C280.2 51.7981 280.895 50.4928 281.595 49.2568C281.595 49.2568 281.595 49.2568 281.628 49.2588C282.104 49.3508 286.394 50.2577 292.368 51.8895C292.633 51.9519 292.904 52.0279 293.181 52.1173C294.449 52.4619 295.799 52.8511 297.193 53.2693C298.002 53.5067 298.826 53.7614 299.669 54.0239C302.227 54.8229 304.914 55.7186 307.608 56.7065C308.288 56.9588 308.968 57.2111 309.644 57.4731C312.921 58.7303 316.172 60.1105 319.21 61.6285L319.204 61.615Z" fill="white"/>
<path d="M299.84 57.8569L297.065 59.1704L294.101 60.5641C293.422 61.7752 292.721 63.2343 292.019 64.8607C291.504 64.6416 290.992 64.3899 290.51 64.1171C291.85 61.4641 292.725 59.796 292.725 59.796L292.86 56.9466L292.946 55.0489L296.395 55.7164L299.836 57.8665L299.84 57.8569Z" fill="#141414"/>
<path d="M307.705 56.6338C303.842 58.7032 296.412 55.7012 296.412 55.7012C296.412 55.7012 291.937 53.1784 293.324 51.9293C296.274 52.172 297.976 51.1952 298.967 49.6525C299.546 48.7468 299.876 47.6518 300.067 46.489C300.181 45.876 300.242 45.2532 300.285 44.6226L311.578 39.9708C309.156 44.3085 305.474 52.4822 307.705 56.6338Z" fill="#FFBEA1"/>
<path opacity="0.2" d="M308.25 43.8977C306.426 49.5163 301.343 49.9086 298.958 49.6485C299.536 48.7428 299.867 47.6479 300.057 46.4851L308.24 43.8939L308.25 43.8977Z" fill="black"/>
<path d="M307.211 52.6592L297.076 54.4727L297.374 51.0527L293.731 51.3903C292.422 51.5089 291.368 52.513 291.179 53.8103L290.643 57.5141L295.895 56.1513L297.371 59.9869L309.63 57.4787L307.203 52.6784L307.211 52.6592Z" fill="#407BFF"/>
<path opacity="0.6" d="M307.211 52.6592L297.076 54.4727L297.374 51.0527L293.731 51.3903C292.422 51.5089 291.368 52.513 291.179 53.8103L290.643 57.5141L295.895 56.1513L297.371 59.9869L309.63 57.4787L307.203 52.6784L307.211 52.6592Z" fill="white"/>
<path d="M295.401 21.8298C295.401 21.8298 291.663 30.6398 295.634 35.405C299.595 40.1663 303.952 23.1069 303.952 23.1069L295.401 21.8298Z" fill="#141414"/>
<path d="M307.897 46.2905C304.672 49.0756 300.6 48.9829 297.527 47.0821C295.553 45.86 293.996 43.8798 293.336 41.4239C293.241 41.1062 293.177 40.7676 293.122 40.4328C292.158 34.224 293.893 24.2362 300.753 22.0712C305.635 20.4917 310.87 23.1767 312.445 28.0684C312.9 29.4583 313.008 30.9317 312.789 32.3847C311.845 39.1177 311.611 43.1225 307.893 46.3001L307.897 46.2905Z" fill="#FFBEA1"/>
<path d="M302.347 33.4377C302.339 33.9818 301.974 34.4152 301.609 34.3793C301.24 34.3531 300.998 33.8754 301.042 33.3236C301.086 32.7719 301.424 32.35 301.78 32.3819C302.135 32.4139 302.395 32.8763 302.347 33.4377Z" fill="#141414"/>
<path d="M296.115 32.9412C296.108 33.4854 295.733 33.9149 295.377 33.8829C295.022 33.8509 294.766 33.3789 294.81 32.8272C294.854 32.2754 295.192 31.8535 295.548 31.8855C295.903 31.9175 296.161 32.4126 296.115 32.9412Z" fill="#141414"/>
<path d="M298.077 33.3652C297.283 34.999 296.266 36.5204 295.06 37.8759C295.782 38.4918 296.741 38.745 297.666 38.5828L298.077 33.3652Z" fill="#E99975"/>
<path d="M294.02 30.0844C294.118 30.1463 294.249 30.1545 294.356 30.1087C295.087 29.7112 295.948 29.6795 296.701 30.0282C296.856 30.1133 297.056 30.0602 297.141 29.9047C297.226 29.7492 297.173 29.549 297.018 29.4639C296.075 29.005 294.972 29.0281 294.064 29.5327C293.899 29.611 293.835 29.7973 293.913 29.9629C293.94 30.0072 293.98 30.0459 294.02 30.0844Z" fill="#141414"/>
<path d="M303.782 31.0464C303.848 31.0505 303.911 31.0315 303.969 30.999C304.098 30.8725 304.101 30.6725 303.974 30.5432C303.254 29.7831 302.204 29.4257 301.171 29.578C300.997 29.6197 300.885 29.7866 300.917 29.9559C300.959 30.1291 301.126 30.2412 301.295 30.2091C302.119 30.1062 302.937 30.4032 303.505 31.0128C303.584 31.0669 303.688 31.0865 303.778 31.056L303.782 31.0464Z" fill="#141414"/>
<path d="M308.496 23.5243L307.75 26.4505C308.661 27.0978 309.103 28.2704 308.508 29.3818C307.225 31.7562 308.143 35.813 309.862 37.613C309.862 37.613 310.06 36.5425 310.939 36.909C311.814 37.285 310.835 42.8872 308.713 45.3471C308.713 45.3471 311.724 43.2575 314.013 37.5367C316.128 32.248 316.894 27.6989 316.04 25.4442L308.51 23.5186L308.496 23.5243Z" fill="#141414"/>
<path d="M315.295 38.1775C314.423 39.6456 312.998 40.7119 311.341 41.137C309.142 41.6891 308.105 39.6953 308.764 37.6495C309.372 35.8402 311.232 33.3081 313.423 33.6906C315.614 34.073 316.344 36.3562 315.295 38.1775Z" fill="#FFBEA1"/>
<path d="M297.952 40.3625C298.305 41.231 298.62 42.8551 298.62 42.8551C298.778 42.8518 298.922 42.8542 299.074 42.8374C301.139 42.756 302.067 42.0361 302.466 41.2702C302.682 40.844 302.749 40.4019 302.749 40.0443C302.748 39.6308 302.659 39.3267 302.659 39.3267C301.595 40.025 299.675 40.2434 298.65 40.3207C298.221 40.3596 297.952 40.3625 297.952 40.3625Z" fill="#141414"/>
<path d="M298.647 40.3304L298.863 41.0657C300.803 40.9897 302.162 40.6674 302.745 40.054C302.744 39.6406 302.655 39.3364 302.655 39.3364C301.591 40.0347 299.672 40.2532 298.647 40.3304Z" fill="white"/>
<path d="M299.07 42.8472C301.136 42.7658 302.063 42.0459 302.462 41.28C301.76 41.3315 300.921 41.4728 300.187 41.8242C299.623 42.0876 299.291 42.4672 299.057 42.853L299.07 42.8472Z" fill="#DE5753"/>
<path d="M309.433 40.8574C309.568 39.5829 309.644 38.3736 309.688 37.4084C309.717 36.7278 309.728 36.174 309.72 35.7797C309.727 35.4028 309.724 35.1894 309.724 35.1894L308.994 34.4812C308.994 34.4812 308.938 35.1175 308.764 35.9072C308.528 37.0179 308.086 38.4144 307.293 38.8309C307.293 38.8309 303.326 38.2559 301.894 38.2914C300.455 38.3135 299.253 39.6593 299.253 39.6593C299.253 39.6593 296.395 38.2477 294.515 40.1912C294.515 40.1912 293.279 38.4967 292.916 36.2725C292.91 36.2033 292.889 36.1166 292.884 36.0474C292.884 36.0474 291.367 42.4823 294.105 46.8164C295.22 48.5625 296.908 49.5797 298.755 50.0129C301.46 50.6702 304.509 50.1152 306.528 48.9317C307.42 48.4098 308.059 47.2159 308.528 45.7521C309 44.2788 309.287 42.5183 309.462 40.869L309.433 40.8574ZM299.411 40.1252C299.411 40.1252 300.642 39.2602 302.518 39.4262C302.574 39.4264 302.626 39.4362 302.678 39.446C302.903 39.4698 303.124 39.5033 303.356 39.5637C304.749 39.903 305.498 41.1997 305.534 42.4652C305.546 43.319 305.242 44.1564 304.605 44.6811C303.327 45.7171 301.838 45.3948 301.036 44.3113C300.839 44.053 300.675 43.7409 300.582 43.3906L299.207 43.7513C299.207 43.7513 300.252 45.2009 298.994 45.9658C297.732 46.7403 294.713 45.5878 295.145 42.5567C295.583 39.4276 299.401 40.1213 299.401 40.1213L299.411 40.1252Z" fill="#141414"/>
<path d="M307.75 26.4506C307.75 26.4506 291.911 27.7582 296.071 18.3478C296.071 18.3478 305.107 15.6882 311.643 18.72C318.18 21.7517 315.846 28.7165 315.846 28.7165L307.75 26.4506Z" fill="#141414"/>
<path d="M291.206 69.5809C285.753 67.3779 281.04 63.6755 277.596 58.8774C277.455 58.675 277.498 58.4021 277.7 58.2605C277.903 58.1189 278.176 58.1621 278.317 58.3645C281.671 63.0257 286.237 66.6238 291.536 68.7648L291.901 68.9122C292.121 69.0014 292.23 69.2575 292.15 69.4822C292.057 69.7127 291.801 69.8214 291.58 69.7322L291.206 69.5809ZM304.584 71.7918C304.431 71.7297 304.322 71.5851 304.303 71.4101C304.289 71.1696 304.476 70.9549 304.716 70.9403C305.299 70.9077 305.88 70.852 306.451 70.7924C306.695 70.7682 306.918 70.9363 306.942 71.1806C306.966 71.4249 306.798 71.6474 306.554 71.6716C305.965 71.7465 305.365 71.7944 304.769 71.8328C304.7 71.8383 304.638 71.8246 304.58 71.8014L304.584 71.7918ZM310.679 70.803C310.554 70.7525 310.453 70.6445 310.419 70.5078C310.358 70.2711 310.501 70.0274 310.728 69.9628C316.4 68.4456 321.481 65.3496 325.413 61.0074C325.575 60.8272 325.858 60.8186 326.038 60.9807C326.218 61.1428 326.227 61.4255 326.065 61.6058C322.013 66.0783 316.782 69.27 310.95 70.8231C310.85 70.8497 310.752 70.8436 310.666 70.8087L310.679 70.803ZM275.469 55.2704C275.373 55.2316 275.289 55.164 275.239 55.0657C274.964 54.5302 274.699 53.9986 274.451 53.4516C274.349 53.232 274.445 52.9689 274.674 52.8716C274.893 52.7704 275.156 52.8655 275.254 53.0947C275.496 53.6282 275.742 54.1521 276.015 54.6645C276.13 54.8784 276.044 55.1454 275.83 55.26C275.715 55.325 275.58 55.3265 275.455 55.2761L275.469 55.2704ZM271.996 40.788C271.832 40.7221 271.718 40.564 271.716 40.3737C271.742 37.9046 272.061 35.4308 272.667 33.0176C273.02 31.6189 273.467 30.2358 274.003 28.9108C274.778 26.9905 275.746 25.1477 276.887 23.4305C277.024 23.2291 277.293 23.1704 277.495 23.3076C277.696 23.4448 277.755 23.7142 277.618 23.9157C276.516 25.5926 275.571 27.3778 274.819 29.2405C274.299 30.5271 273.858 31.8679 273.52 33.2282C272.931 35.5703 272.617 37.9788 272.599 40.3728C272.6 40.619 272.397 40.8163 272.155 40.8078C272.099 40.8076 272.048 40.7978 271.99 40.7746L271.996 40.788ZM332.125 50.2827C331.913 50.1973 331.797 49.9604 331.863 49.7414C332.042 49.1882 332.192 48.6234 332.342 48.0585C332.403 47.826 332.641 47.6769 332.883 47.7412C333.116 47.8016 333.265 48.0405 333.201 48.2826C333.053 48.8705 332.889 49.4411 332.716 50.0078C332.642 50.246 332.392 50.3682 332.163 50.2982C332.153 50.2943 332.144 50.2904 332.134 50.2866L332.125 50.2827ZM333.493 42.8608C333.32 42.7909 333.2 42.6194 333.212 42.4233C333.245 41.8446 333.268 41.262 333.268 40.6813C333.267 40.4351 333.469 40.2377 333.716 40.2366C333.962 40.2356 334.159 40.4381 334.16 40.6843C334.156 41.2746 334.135 41.8803 334.104 42.4821C334.095 42.7244 333.873 42.914 333.635 42.8959C333.579 42.8957 333.541 42.8802 333.493 42.8608ZM279.791 20.5828C279.791 20.5828 279.695 20.544 279.664 20.5093C279.484 20.3472 279.462 20.0702 279.628 19.8804C280.029 19.4395 280.44 19.0024 280.857 18.5789C281.029 18.4025 281.317 18.4074 281.484 18.5752C281.66 18.747 281.659 19.0258 281.487 19.2021C281.075 19.6161 280.681 20.0378 280.293 20.473C280.169 20.613 279.963 20.6526 279.8 20.5867L279.791 20.5828ZM333.242 36.6833C333.098 36.6251 332.994 36.494 332.968 36.3381C332.139 30.5413 329.654 25.137 325.794 20.7067C325.635 20.5197 325.655 20.2486 325.832 20.0857C326.019 19.9268 326.29 19.9469 326.453 20.1244C330.427 24.6896 332.984 30.2462 333.832 36.218C333.869 36.4566 333.697 36.6887 333.463 36.7167C333.38 36.728 333.305 36.72 333.238 36.6929L333.242 36.6833ZM292.101 12.1982C291.986 12.1517 291.899 12.061 291.848 11.9397C291.76 11.7144 291.875 11.459 292.109 11.3752C297.768 9.28301 303.876 8.86922 309.77 10.2008C310.006 10.2516 310.155 10.4905 310.105 10.7269C310.054 10.9632 309.815 11.1124 309.579 11.0616C303.846 9.77291 297.913 10.1681 292.422 12.2051C292.318 12.2413 292.206 12.2409 292.101 12.1982ZM315.38 12.9813L315.361 12.9735C315 12.8165 314.639 12.6595 314.275 12.5121C314.102 12.4423 313.929 12.3725 313.756 12.3027C313.487 12.1941 313.413 11.9631 313.497 11.7287C313.59 11.4983 313.836 11.3857 314.071 11.4692C314.272 11.5506 314.474 11.6321 314.666 11.7097C315.021 11.8532 315.376 11.9967 315.724 12.1594C315.954 12.2525 316.045 12.5239 315.947 12.7409C315.857 12.9617 315.595 13.057 315.375 12.9678L315.38 12.9813Z" fill="white"/>
<path d="M331.948 235.389C332.722 240.769 331.008 245.93 327.692 249.708C327.262 250.194 326.815 250.665 326.327 251.098C326.086 251.318 325.84 251.53 325.58 251.736C323.15 253.736 320.168 255.109 316.847 255.591L316.763 255.605C316.123 255.697 315.5 255.748 314.873 255.766C314.549 255.775 314.21 255.778 313.886 255.764C313.858 255.776 313.831 255.766 313.798 255.769C313.261 255.759 312.725 255.726 312.204 255.651C312.079 255.65 311.945 255.63 311.817 255.597C311.328 255.542 310.846 255.451 310.364 255.337C310.089 255.278 309.809 255.21 309.539 255.138C309.021 254.994 308.505 254.827 308.003 254.642C307.597 254.494 307.193 254.323 306.802 254.134C305.931 253.729 305.099 253.26 304.302 252.719C304.081 252.579 303.866 252.426 303.655 252.259C303.539 252.175 303.422 252.091 303.315 252.003C299.802 249.282 297.309 245.234 296.626 240.493C295.218 230.737 301.982 221.695 311.733 220.278C321.478 218.875 330.53 225.637 331.938 235.393L331.948 235.389Z" fill="white"/>
<path d="M304.302 252.719C304.081 252.58 303.866 252.426 303.655 252.259C303.539 252.175 303.422 252.091 303.315 252.003C303.497 251.752 303.674 251.537 303.828 251.4C303.858 251.364 303.877 251.356 303.877 251.356L304.293 252.724L304.302 252.719Z" fill="#407BFF"/>
<path opacity="0.5" d="M304.302 252.719C304.081 252.58 303.866 252.426 303.655 252.259C303.539 252.175 303.422 252.091 303.315 252.003C303.497 251.752 303.674 251.537 303.828 251.4C303.858 251.364 303.877 251.356 303.877 251.356L304.293 252.724L304.302 252.719Z" fill="white"/>
<path d="M326.587 248.295C326.587 248.295 326.587 248.295 326.586 248.318C326.477 249.296 326.394 250.229 326.322 251.111C326.08 251.332 325.834 251.544 325.575 251.75C323.145 253.75 320.163 255.123 316.841 255.604L316.757 255.619C316.118 255.711 315.495 255.762 314.868 255.78C314.543 255.789 314.205 255.792 313.881 255.778C313.852 255.79 313.825 255.78 313.792 255.783C313.255 255.773 312.719 255.739 312.199 255.665C312.073 255.664 311.94 255.644 311.812 255.611C311.323 255.556 310.84 255.465 310.359 255.351C310.083 255.292 309.803 255.224 309.533 255.151C309.016 255.008 308.499 254.841 307.998 254.656C307.592 254.508 307.187 254.337 306.797 254.148C305.925 253.742 305.093 253.274 304.297 252.733C304.076 252.593 303.86 252.44 303.65 252.273C303.675 251.718 303.768 251.495 303.823 251.414C303.852 251.378 303.871 251.369 303.871 251.369C303.871 251.369 307.5 250.128 310.803 249.349C310.874 249.329 310.948 249.318 311.019 249.298C311.393 249.222 311.771 249.156 312.14 249.093C313.94 248.757 315.763 248.524 317.581 248.383C318.038 248.338 318.512 248.309 318.976 248.283C319.13 248.271 319.283 248.26 319.437 248.248C321.812 248.109 324.193 248.137 326.572 248.313L326.587 248.295Z" fill="#407BFF"/>
<path opacity="0.5" d="M326.587 248.295C326.587 248.295 326.587 248.295 326.586 248.318C326.477 249.296 326.394 250.229 326.322 251.111C326.08 251.332 325.834 251.544 325.575 251.75C323.145 253.75 320.163 255.123 316.841 255.604L316.757 255.619C316.118 255.711 315.495 255.762 314.868 255.78C314.543 255.789 314.205 255.792 313.881 255.778C313.852 255.79 313.825 255.78 313.792 255.783C313.255 255.773 312.719 255.739 312.199 255.665C312.073 255.664 311.94 255.644 311.812 255.611C311.323 255.556 310.84 255.465 310.359 255.351C310.083 255.292 309.803 255.224 309.533 255.151C309.016 255.008 308.499 254.841 307.998 254.656C307.592 254.508 307.187 254.337 306.797 254.148C305.925 253.742 305.093 253.274 304.297 252.733C304.076 252.593 303.86 252.44 303.65 252.273C303.675 251.718 303.768 251.495 303.823 251.414C303.852 251.378 303.871 251.369 303.871 251.369C303.871 251.369 307.5 250.128 310.803 249.349C310.874 249.329 310.948 249.318 311.019 249.298C311.393 249.222 311.771 249.156 312.14 249.093C313.94 248.757 315.763 248.524 317.581 248.383C318.038 248.338 318.512 248.309 318.976 248.283C319.13 248.271 319.283 248.26 319.437 248.248C321.812 248.109 324.193 248.137 326.572 248.313L326.587 248.295Z" fill="white"/>
<path d="M308.847 253.28L311.808 255.601C311.319 255.547 310.836 255.455 310.354 255.341C310.079 255.282 309.799 255.214 309.529 255.142L309.372 254.713L308.838 253.284L308.847 253.28Z" fill="#141414"/>
<path d="M317.742 252.154L317.33 253.596L316.762 255.606C316.123 255.698 315.5 255.748 314.873 255.767C314.548 255.775 314.21 255.779 313.886 255.764C313.858 255.777 313.83 255.766 313.798 255.769L315.828 253.913L317.742 252.154Z" fill="#141414"/>
<path d="M321.913 252.281L319.447 252.064C319.447 252.064 318.545 252.635 317.33 253.596C316.585 254.188 315.722 254.924 314.873 255.767C314.549 255.775 314.21 255.779 313.886 255.764C313.858 255.777 313.83 255.766 313.798 255.769C313.261 255.759 312.724 255.726 312.204 255.651C312.079 255.65 311.945 255.631 311.817 255.597C311.328 255.543 310.846 255.451 310.364 255.337C310.032 255.1 309.708 254.881 309.382 254.709C309.142 254.578 308.901 254.469 308.677 254.399L308.013 254.638C307.607 254.49 307.202 254.319 306.812 254.13C307.378 252.881 308.583 250.802 310.827 249.327C311.267 249.041 311.747 248.77 312.271 248.548C313.539 247.984 315.051 247.639 316.873 247.632C317.907 247.637 318.764 247.856 319.465 248.236C321.013 249.065 321.79 250.658 321.917 252.291L321.913 252.281Z" fill="#141414"/>
<path opacity="0.1" d="M321.913 252.281L319.447 252.064C319.447 252.064 318.545 252.635 317.33 253.596C316.585 254.188 315.722 254.924 314.873 255.767C314.549 255.775 314.21 255.779 313.886 255.764C313.858 255.777 313.83 255.766 313.798 255.769C313.261 255.759 312.724 255.726 312.204 255.651C312.079 255.65 311.945 255.631 311.817 255.597C311.328 255.543 310.846 255.451 310.364 255.337C310.032 255.1 309.708 254.881 309.382 254.709C309.142 254.578 308.901 254.469 308.677 254.399L308.013 254.638C307.607 254.49 307.202 254.319 306.812 254.13C307.378 252.881 308.583 250.802 310.827 249.327C311.267 249.041 311.747 248.77 312.271 248.548C313.539 247.984 315.051 247.639 316.873 247.632C317.907 247.637 318.764 247.856 319.465 248.236C321.013 249.065 321.79 250.658 321.917 252.291L321.913 252.281Z" fill="white"/>
<path d="M318.357 249.081C318.521 250.594 317.201 252.441 315.828 253.913C315.136 254.652 314.421 255.31 313.89 255.773C313.862 255.786 313.835 255.776 313.802 255.779C313.265 255.769 312.729 255.735 312.208 255.661C311.123 254.319 309.492 251.724 311.415 249.984C311.545 249.869 311.708 249.751 311.884 249.638C311.987 249.513 312.088 249.332 312.159 249.085C312.208 248.939 312.243 248.764 312.266 248.562C312.316 248.063 312.272 247.403 312.047 246.517C311.993 246.268 311.908 246 311.818 245.723C311.795 245.62 311.749 245.516 311.716 245.417C311.661 245.294 311.627 245.139 311.563 244.998C311.493 244.814 311.418 244.62 311.335 244.408L316.234 242.226C316.234 242.226 316.238 242.259 316.222 242.3C316.186 242.475 316.086 242.961 316.043 243.604C315.979 244.732 316.055 246.353 316.859 247.65C317.01 247.889 317.176 248.11 317.371 248.318C317.454 248.326 317.523 248.352 317.6 248.374C318.03 248.5 318.312 248.726 318.351 249.094L318.357 249.081Z" fill="#FFBEA1"/>
<path opacity="0.2" d="M311.34 244.394C311.679 245.207 311.902 245.912 312.052 246.503C315.519 245.685 316.244 242.222 316.244 242.222L311.344 244.404L311.34 244.394Z" fill="black"/>
<path d="M309.623 226.919C309.623 226.919 303.424 227.582 303.465 232.688C303.505 237.794 307.883 239.608 307.883 239.608L309.623 226.919Z" fill="#141414"/>
<path d="M310.783 229.373C306.26 230.185 305.246 232.87 305.758 237.584C306.389 243.482 308.42 247.383 313.852 245.124C321.225 242.057 318.297 228.023 310.797 229.378L310.783 229.373Z" fill="#FFBEA1"/>
<path d="M308.62 236.809C308.62 236.809 308.21 238.102 307.645 238.921C307.645 238.921 308.139 239.471 308.934 239.22L308.634 236.814L308.62 236.809Z" fill="#E99975"/>
<path d="M311.324 235.933C311.377 236.307 311.634 236.578 311.877 236.538C312.12 236.498 312.278 236.166 312.225 235.793C312.173 235.42 311.916 235.149 311.673 235.189C311.43 235.229 311.272 235.56 311.324 235.933Z" fill="#141414"/>
<path d="M311.775 235.189L310.917 234.993C310.917 234.993 311.431 235.614 311.775 235.189Z" fill="#141414"/>
<path d="M306.67 236.578C306.723 236.951 306.979 237.222 307.222 237.182C307.465 237.142 307.623 236.81 307.571 236.437C307.518 236.064 307.261 235.793 307.018 235.833C306.775 235.873 306.617 236.204 306.67 236.578Z" fill="#141414"/>
<path d="M307.124 235.842L306.266 235.646C306.266 235.646 306.781 236.267 307.124 235.842Z" fill="#141414"/>
<path d="M310.806 232.809C310.806 232.809 312.047 232.415 312.891 233.139" stroke="#141414" stroke-width="0.39" stroke-linecap="round" stroke-linejoin="round"/>
<path d="M307.493 233.207C307.493 233.207 306.642 233.053 305.76 233.899" stroke="#141414" stroke-width="0.39" stroke-linecap="round" stroke-linejoin="round"/>
<path d="M317.088 236.099C317.088 236.099 314.312 232.767 314.109 229.842C314.109 229.842 304.494 227.797 305.684 236.96C305.684 236.96 303.359 229.04 311.091 227.467C318.814 225.899 320.837 237.264 317.431 241.376C317.431 241.376 318.798 238.183 317.078 236.104L317.088 236.099Z" fill="#141414"/>
<path d="M308.778 226.752C308.778 226.752 304.899 226.721 304.09 227.932C303.28 229.143 312.304 234.239 316.342 234.017C316.342 234.017 318.671 238.002 318.107 240.248C318.107 240.248 322.106 237.697 320.736 231.006C319.367 224.316 311.798 223.48 308.768 226.756L308.778 226.752Z" fill="#141414"/>
<path d="M316.52 237.191C316.418 236.454 316.947 235.096 318.329 234.992C319.756 234.889 320.94 237.649 317.581 238.963C317.099 239.155 316.734 238.717 316.516 237.182L316.52 237.191Z" fill="#FFBEA1"/>
<path d="M316.316 227.748C316.316 227.748 316.923 223.511 321.07 222.821C325.217 222.13 327.349 228.345 326.319 233.565C325.288 238.785 327.103 239.961 327.103 239.961C327.103 239.961 324.751 240.226 323.753 236C323.753 236 323.87 237.433 324.257 238.734C324.257 238.734 322.227 236.951 322.713 232.518C323.203 228.094 319.005 231.063 319.005 231.063L316.321 227.758L316.316 227.748Z" fill="#141414"/>
<path d="M304.514 228.197C304.514 228.197 307.922 233.968 313.553 234.601" stroke="#141414" stroke-width="0.39" stroke-linecap="round" stroke-linejoin="round"/>
<path d="M312.784 239.976C312.784 239.976 312.005 241.332 310.468 241.62" stroke="#141414" stroke-width="0.39" stroke-linecap="round" stroke-linejoin="round"/>
<path d="M309.182 237.103C309.322 237.698 309.875 238.075 310.419 237.947C310.962 237.818 311.29 237.23 311.154 236.644C311.013 236.049 310.46 235.672 309.917 235.801C309.373 235.93 309.046 236.517 309.182 237.103Z" stroke="#141414" stroke-width="0.29" stroke-linecap="round" stroke-linejoin="round"/>
<path d="M305.653 237.756C305.793 238.351 306.346 238.728 306.89 238.599C307.433 238.471 307.761 237.883 307.625 237.297C307.489 236.712 306.931 236.325 306.388 236.454C305.844 236.582 305.517 237.17 305.653 237.756Z" stroke="#141414" stroke-width="0.29" stroke-linecap="round" stroke-linejoin="round"/>
<path d="M309.181 237.103C309.181 237.103 308.401 236.113 307.62 237.288" stroke="#141414" stroke-width="0.29" stroke-linecap="round" stroke-linejoin="round"/>
<path d="M311.149 236.635C311.149 236.635 316.643 235.152 317.303 235.029" stroke="#141414" stroke-width="0.29" stroke-linecap="round" stroke-linejoin="round"/>
<path d="M327.682 249.712C327.253 250.198 326.805 250.669 326.318 251.102C326.076 251.323 325.83 251.534 325.571 251.74C326.003 249.836 326.509 248.477 326.572 248.313L326.573 248.29C326.573 248.29 326.986 248.809 327.669 249.707L327.682 249.712Z" fill="#407BFF"/>
<path opacity="0.5" d="M327.682 249.712C327.253 250.198 326.805 250.669 326.318 251.102C326.076 251.323 325.83 251.534 325.571 251.74C326.003 249.836 326.509 248.477 326.572 248.313L326.573 248.29C326.573 248.29 326.986 248.809 327.669 249.707L327.682 249.712Z" fill="white"/>
<path d="M323.4 256.844C323.259 256.907 323.085 256.849 323.008 256.701C322.941 256.55 323 256.377 323.147 256.3C323.502 256.13 323.843 255.956 324.186 255.758C324.337 255.69 324.512 255.726 324.589 255.873C324.666 256.02 324.621 256.199 324.473 256.276C324.117 256.468 323.77 256.657 323.406 256.831L323.4 256.844ZM326.932 254.671C326.809 254.726 326.658 254.691 326.575 254.581C326.474 254.456 326.501 254.262 326.626 254.161C329.765 251.766 332.129 248.548 333.468 244.835C333.525 244.685 333.691 244.599 333.855 244.662C334.006 244.72 334.091 244.886 334.028 245.05C332.657 248.869 330.223 252.185 326.989 254.646C326.97 254.654 326.951 254.663 326.923 254.675L326.932 254.671ZM314.78 258.891C314.78 258.891 314.704 258.925 314.668 258.919C310.613 259.001 306.653 257.896 303.203 255.748C303.063 255.663 303.025 255.476 303.11 255.336C303.195 255.196 303.382 255.158 303.522 255.243C306.877 257.331 310.728 258.394 314.662 258.32C314.829 258.314 314.957 258.449 314.964 258.617C314.963 258.742 314.898 258.85 314.794 258.896L314.78 258.891ZM301.074 254.021C300.97 254.067 300.85 254.052 300.76 253.979C300.452 253.719 300.153 253.455 299.86 253.178C299.74 253.061 299.729 252.885 299.842 252.755C299.958 252.635 300.135 252.625 300.264 252.737C300.544 253.009 300.839 253.264 301.133 253.518C301.258 253.621 301.264 253.811 301.17 253.932C301.141 253.968 301.107 253.994 301.06 254.015L301.074 254.021ZM335.011 236.439C335.011 236.439 334.954 236.465 334.918 236.458C334.755 236.474 334.612 236.357 334.596 236.194C334.558 235.803 334.51 235.416 334.462 235.029C334.437 234.87 334.55 234.717 334.709 234.692C334.868 234.667 335.02 234.78 335.046 234.939C335.102 235.345 335.154 235.741 335.182 236.137C335.195 236.267 335.12 236.379 335.007 236.43L335.011 236.439ZM333.968 231.474C333.968 231.474 333.949 231.483 333.939 231.487C333.784 231.545 333.621 231.459 333.563 231.303C333.431 230.931 333.304 230.568 333.153 230.204C333.086 230.053 333.177 229.876 333.319 229.813C333.47 229.746 333.643 229.828 333.71 229.979C333.865 230.352 333.997 230.724 334.133 231.106C334.186 231.252 334.11 231.411 333.968 231.474ZM295.207 245.909L295.197 245.913C295.046 245.981 294.873 245.899 294.806 245.747C294.189 244.208 293.756 242.599 293.515 240.938C293.17 238.586 293.235 236.211 293.691 233.899C293.721 233.738 293.878 233.634 294.039 233.665C294.2 233.695 294.304 233.853 294.274 234.014C293.835 236.261 293.774 238.567 294.112 240.853C294.341 242.463 294.767 244.03 295.363 245.522C295.426 245.664 295.358 245.842 295.207 245.909ZM332.222 227.706C332.09 227.765 331.92 227.715 331.852 227.587C329.853 224.192 326.929 221.47 323.388 219.702C323.243 219.631 323.186 219.452 323.258 219.307C323.329 219.162 323.508 219.105 323.653 219.176C327.284 220.994 330.302 223.8 332.356 227.295C332.443 227.437 332.397 227.616 332.255 227.703C332.245 227.707 332.236 227.711 332.226 227.715L332.222 227.706ZM294.893 231.357C294.827 231.387 294.748 231.388 294.671 231.366C294.511 231.312 294.435 231.142 294.488 230.982C294.626 230.604 294.763 230.225 294.919 229.861C294.986 229.706 295.16 229.64 295.311 229.698C295.465 229.765 295.532 229.94 295.474 230.09C295.328 230.45 295.186 230.819 295.054 231.184C295.023 231.266 294.969 231.324 294.893 231.357ZM315.068 217.535C315.068 217.535 314.992 217.568 314.942 217.557C314.553 217.549 314.164 217.54 313.774 217.555C313.606 217.562 313.469 217.43 313.462 217.263C313.456 217.096 313.591 216.968 313.754 216.952C314.158 216.942 314.556 216.946 314.959 216.96C315.121 216.967 315.249 217.102 315.242 217.264C315.237 217.38 315.168 217.479 315.063 217.525L315.068 217.535ZM300.398 223C300.285 223.051 300.147 223.021 300.063 222.934C299.953 222.813 299.961 222.628 300.082 222.518C303.045 219.781 306.766 217.955 310.755 217.267C310.914 217.242 311.076 217.351 311.101 217.51C311.126 217.668 311.022 217.817 310.858 217.856C306.982 218.516 303.365 220.296 300.489 222.949C300.465 222.971 300.44 222.993 300.412 223.006L300.398 223Z" fill="white"/>
<path d="M128.036 57.6769C127.852 63.1387 125.487 68.0272 121.805 71.5116C121.511 71.8007 121.198 72.0801 120.872 72.3406C120.356 72.7817 119.813 73.1851 119.248 73.5648C118.843 73.8418 118.419 74.1092 117.987 74.3486C114.87 76.1516 111.224 77.1213 107.364 76.9925C107.262 76.9853 107.156 76.9873 107.059 76.971C106.55 76.9582 106.06 76.9089 105.566 76.8456C104.915 76.7692 104.274 76.6512 103.647 76.5059C102.68 76.2964 101.733 76.0041 100.829 75.6526C99.9117 75.3054 99.0329 74.8851 98.1881 74.4007C97.5213 74.0227 96.874 73.6081 96.2601 73.1527C95.7688 72.7976 95.2829 72.4103 94.825 72.0143C94.1317 71.3994 93.4859 70.7394 92.8784 70.0293C89.7282 66.3604 87.8855 61.5336 88.0583 56.3124C88.4331 45.2639 97.6918 36.6285 108.73 36.9969C119.777 37.3701 128.424 46.6242 128.041 57.6678L128.036 57.6769Z" fill="white"/>
<path d="M96.2552 73.1615C95.7639 72.8064 95.278 72.4191 94.8201 72.0231C94.1268 71.4082 93.481 70.7482 92.8735 70.0381C94.2149 68.6402 95.3435 67.5982 96.038 67.2404C96.0526 67.2129 96.0709 67.2227 96.0709 67.2227L96.2552 73.1615Z" fill="#141414"/>
<path opacity="0.3" d="M96.2552 73.1615C95.7639 72.8064 95.278 72.4191 94.8201 72.0231C94.1268 71.4082 93.481 70.7482 92.8735 70.0381C94.2149 68.6402 95.3435 67.5982 96.038 67.2404C96.0526 67.2129 96.0709 67.2227 96.0709 67.2227L96.2552 73.1615Z" fill="white"/>
<path d="M119.818 70.0444C119.752 70.6542 119.676 71.2824 119.576 71.9331C119.575 71.9562 119.579 71.9934 119.565 72.0208C119.486 72.5655 119.376 73.0816 119.248 73.5648C118.843 73.8419 118.419 74.1092 117.987 74.3486C114.87 76.1516 111.224 77.1214 107.364 76.9925C107.262 76.9853 107.156 76.9873 107.059 76.971C106.55 76.9583 106.06 76.909 105.566 76.8457C104.915 76.7692 104.274 76.6513 103.647 76.5059C102.68 76.2964 101.733 76.0041 100.829 75.6526C99.9116 75.3054 99.0328 74.8851 98.1881 74.4007C97.5114 72.3872 97.1399 69.8439 96.9802 67.167C96.5957 60.3475 97.6286 52.6046 98.7971 50.3407C99.3027 49.3897 100.775 49.0466 102.729 49.0769C102.859 49.0755 102.989 49.0741 103.123 49.0867L103.317 49.0962C105.778 49.2087 108.838 49.8271 111.596 50.5075C111.762 50.5487 111.927 50.5899 112.088 50.6402C112.636 50.779 113.161 50.9172 113.671 51.0596C114.421 51.259 115.111 51.4616 115.741 51.6441C116.38 51.8314 116.955 52.0079 117.428 52.1541C118.361 52.4507 118.917 52.6406 118.917 52.6406C118.9 52.7375 118.879 52.8435 118.854 52.9355C118.528 55.202 120.808 60.7068 119.804 70.0487L119.818 70.0444Z" fill="#141414"/>
<path d="M121.527 70.6244C121.299 71.207 121.085 71.7854 120.863 72.3357C120.347 72.7768 119.804 73.1802 119.239 73.5598C118.833 73.8369 118.41 74.1043 117.978 74.3436C114.861 76.1466 111.215 77.1164 107.355 76.9875C107.253 76.9804 107.146 76.9823 107.05 76.966C106.54 76.9533 106.051 76.904 105.557 76.8407C104.905 76.7642 104.264 76.6463 103.638 76.5009C102.671 76.2915 101.724 75.9991 100.82 75.6477C99.9024 75.3005 99.0236 74.8801 98.1789 74.3958C97.5121 74.0178 96.8647 73.6032 96.2509 73.1478C95.7595 72.7927 95.2736 72.4053 94.8157 72.0094C94.8392 71.8108 94.8579 71.6213 94.89 71.4507C95.3633 67.914 95.8967 67.3297 96.0379 67.2406C96.0525 67.2132 96.0708 67.2229 96.0708 67.2229C96.0708 67.2229 96.4095 67.2036 96.9753 67.176C98.3943 67.1095 101.241 67.0046 103.916 67.0899L104.411 67.107C104.841 67.1362 105.272 67.1655 105.697 67.2039C107.67 67.3736 109.646 67.65 111.601 68.0092C112.182 68.1071 112.749 68.2324 113.32 68.3486C113.744 68.4333 114.163 68.5272 114.582 68.6211C116.356 69.0128 118.095 69.4917 119.813 70.0534C120.388 70.2299 120.957 70.4387 121.522 70.6335L121.527 70.6244Z" fill="#141414"/>
<path opacity="0.3" d="M121.527 70.6244C121.299 71.207 121.085 71.7854 120.863 72.3357C120.347 72.7768 119.804 73.1802 119.239 73.5598C118.833 73.8369 118.41 74.1043 117.978 74.3436C114.861 76.1466 111.215 77.1164 107.355 76.9875C107.253 76.9804 107.146 76.9823 107.05 76.966C106.54 76.9533 106.051 76.904 105.557 76.8407C104.905 76.7642 104.264 76.6463 103.638 76.5009C102.671 76.2915 101.724 75.9991 100.82 75.6477C99.9024 75.3005 99.0236 74.8801 98.1789 74.3958C97.5121 74.0178 96.8647 73.6032 96.2509 73.1478C95.7595 72.7927 95.2736 72.4053 94.8157 72.0094C94.8392 71.8108 94.8579 71.6213 94.89 71.4507C95.3633 67.914 95.8967 67.3297 96.0379 67.2406C96.0525 67.2132 96.0708 67.2229 96.0708 67.2229C96.0708 67.2229 96.4095 67.2036 96.9753 67.176C98.3943 67.1095 101.241 67.0046 103.916 67.0899L104.411 67.107C104.841 67.1362 105.272 67.1655 105.697 67.2039C107.67 67.3736 109.646 67.65 111.601 68.0092C112.182 68.1071 112.749 68.2324 113.32 68.3486C113.744 68.4333 114.163 68.5272 114.582 68.6211C116.356 69.0128 118.095 69.4917 119.813 70.0534C120.388 70.2299 120.957 70.4387 121.522 70.6335L121.527 70.6244Z" fill="white"/>
<path d="M112.028 70.7343L114.391 73.8323C114.391 73.8323 110.341 74.6576 107.045 76.9749C106.535 76.9622 106.046 76.9129 105.552 76.8496C104.9 76.7731 104.26 76.6552 103.633 76.5099C102.666 76.3004 101.719 76.0081 100.815 75.6566C100.003 74.4272 99.1649 73.313 98.4925 72.7912C98.4925 72.7912 100.419 70.9539 102.621 69.9898C102.621 69.9898 100.79 69.087 98.638 68.658C98.638 68.658 101.21 67.68 103.907 67.0849C104.587 66.9305 105.276 66.804 105.917 66.7228C106.679 66.6353 107.389 66.602 107.994 66.6542C108.909 66.7419 110.024 66.8068 111.193 67.0769C112.322 67.3367 113.501 67.7878 114.582 68.6208C115.305 69.1809 115.976 69.925 116.563 70.8939L112.037 70.7392L112.028 70.7343Z" fill="white"/>
<path d="M112.385 69.0479C112.385 69.0479 112.366 69.0845 112.314 69.1388C112.271 69.1748 112.219 69.229 112.157 69.3016C112.152 69.3107 112.133 69.3242 112.109 69.3467C111.138 70.3787 107.81 73.9692 105.561 76.8547C104.91 76.7782 104.269 76.6602 103.642 76.5149C103.491 74.5933 103.502 71.7955 104.343 68.8887C104.425 68.5804 104.53 68.2726 104.635 67.9649L112.394 69.0528L112.385 69.0479Z" fill="#407BFF"/>
<path d="M105.902 71.5589C110.838 71.0985 112.385 69.0479 112.385 69.0479C109.372 66.0032 112.129 60.9948 112.129 60.9948L106.182 61.9025C106.306 62.883 106.336 63.7084 106.332 64.3985C106.251 67.9913 104.635 67.9649 104.635 67.9649C103.527 69.8736 105.916 71.5546 105.916 71.5546L105.902 71.5589Z" fill="#FFBEA1"/>
<path opacity="0.2" d="M106.182 61.9025C106.306 62.883 106.336 63.7084 106.332 64.3985C110.326 64.54 112.138 60.9996 112.138 60.9996L106.191 61.9073L106.182 61.9025Z" fill="black"/>
<path d="M110.008 45.4877C104.878 45.0353 102.983 47.6285 102.138 52.8792C101.074 59.4447 102.125 64.261 108.668 63.4238C117.544 62.2789 118.522 46.2377 110.008 45.4877Z" fill="#FFBEA1"/>
<path d="M105.478 52.884C105.478 52.884 104.649 54.1557 103.797 54.8757C103.797 54.8757 104.177 55.6171 105.104 55.5708L105.482 52.8748L105.478 52.884Z" fill="#E99975"/>
<path d="M108.659 52.7457C108.611 53.166 108.801 53.5368 109.078 53.5668C109.355 53.5969 109.627 53.2841 109.675 52.8637C109.722 52.4433 109.533 52.0726 109.255 52.0425C108.978 52.0124 108.706 52.3253 108.659 52.7457Z" fill="#141414"/>
<path d="M109.366 52.0778L108.497 51.616C108.497 51.616 108.865 52.4451 109.366 52.0778Z" fill="#141414"/>
<path d="M103.446 52.0734C103.398 52.4938 103.588 52.8645 103.865 52.8946C104.143 52.9247 104.414 52.6118 104.462 52.1915C104.51 51.7711 104.32 51.4004 104.043 51.3703C103.766 51.3402 103.494 51.6531 103.446 52.0734Z" fill="#141414"/>
<path d="M104.153 51.4054L103.284 50.9436C103.284 50.9436 103.653 51.7728 104.153 51.4054Z" fill="#141414"/>
<path d="M109.025 49.2109C109.025 49.2109 110.486 49.1547 111.183 50.182" stroke="#141414" stroke-width="0.44" stroke-linecap="round" stroke-linejoin="round"/>
<path d="M105.32 48.6597C105.32 48.6597 104.441 48.2393 103.234 48.8994" stroke="#141414" stroke-width="0.44" stroke-linecap="round" stroke-linejoin="round"/>
<path d="M105.668 57.6648C105.911 58.3101 106.113 59.4965 106.113 59.4965C106.229 59.4994 106.335 59.4974 106.442 59.4954C107.952 59.4776 108.641 58.9759 108.952 58.4139C109.117 58.103 109.171 57.7801 109.178 57.5254C109.185 57.2245 109.126 57.0053 109.126 57.0053C108.331 57.4858 106.933 57.6223 106.178 57.6543C105.862 57.6743 105.668 57.6648 105.668 57.6648Z" fill="#141414"/>
<path d="M106.178 57.6543L106.326 58.1907C107.744 58.1706 108.745 57.964 109.178 57.5254C109.185 57.2245 109.126 57.0053 109.126 57.0053C108.331 57.4857 106.934 57.6222 106.178 57.6543Z" fill="white"/>
<path d="M106.442 59.4952C107.952 59.4773 108.641 58.9757 108.952 58.4136C108.437 58.4332 107.823 58.529 107.284 58.7704C106.872 58.95 106.611 59.2214 106.442 59.4952Z" fill="#DE5753"/>
<path d="M114.846 54.6282C114.846 54.6282 112.827 50.2 113.473 46.978C113.473 46.978 103.682 41.9249 102.257 52.192C102.257 52.192 102.072 42.9455 110.915 43.5184C119.734 44.0908 118.562 56.9909 113.672 60.4312C113.672 60.4312 116.088 57.3877 114.842 54.6142L114.846 54.6282Z" fill="#141414"/>
<path d="M113.913 55.6332C114.022 54.8114 114.995 53.4876 116.521 53.7944C118.092 54.1023 118.56 57.4356 114.537 57.8771C113.966 57.9369 113.689 57.3556 113.913 55.6332Z" fill="#FFBEA1"/>
<path d="M112.129 46.4163C112.129 46.4163 111.095 52.7278 114.709 58.6133C117.45 63.0735 113.999 66.7859 113.999 66.7859C113.999 66.7859 120.94 64.6477 118.278 54.8112C118.278 54.8112 121.801 46.2224 115.538 43.6663C115.538 43.6663 115.591 41.0086 109.839 41.3282C104.083 41.6338 99.2991 46.397 98.2114 52.633C97.1237 58.869 100.151 65.9675 100.151 65.9675C100.151 65.9675 97.4321 43.6449 112.125 46.4023L112.129 46.4163Z" fill="#141414"/>
<path d="M112.432 46.5303C111.984 47.946 111.843 49.536 111.855 51.079C111.885 52.6316 112.092 54.184 112.443 55.7076C112.784 57.2264 113.321 58.7083 114.018 60.1108C114.738 61.4908 115.613 62.8236 116.81 63.8588C115.589 62.8693 114.653 61.5628 113.873 60.186C113.12 58.8006 112.523 57.3218 112.116 55.7921C111.71 54.2625 111.444 52.6901 111.349 51.1034C111.292 49.513 111.35 47.9255 111.794 46.3198L112.423 46.5486L112.432 46.5303Z" fill="#141414"/>
<path d="M121.796 71.5066C121.502 71.7957 121.189 72.0751 120.863 72.3357C120.347 72.7768 119.804 73.1801 119.239 73.5598C118.833 73.8369 118.41 74.1043 117.978 74.3436C118.413 73.4372 118.929 72.5978 119.567 71.9281C120.123 71.3444 120.765 70.8879 121.517 70.6195C121.517 70.6195 121.616 70.9416 121.787 71.5018L121.796 71.5066Z" fill="#141414"/>
<path opacity="0.3" d="M121.796 71.5066C121.502 71.7957 121.189 72.0751 120.863 72.3357C120.347 72.7768 119.804 73.1801 119.239 73.5598C118.833 73.8369 118.41 74.1043 117.978 74.3436C118.413 73.4372 118.929 72.5978 119.567 71.9281C120.123 71.3444 120.765 70.8879 121.517 70.6195C121.517 70.6195 121.616 70.9416 121.787 71.5018L121.796 71.5066Z" fill="white"/>
<path d="M97.01 77.7853C95.3096 76.8812 93.7119 75.7619 92.2717 74.4566C92.1357 74.3374 92.1227 74.1194 92.251 73.9882C92.3702 73.8522 92.5883 73.8391 92.7194 73.9675C95.9894 76.926 100.063 78.8807 104.409 79.573C104.593 79.6007 104.714 79.7705 104.686 79.9551C104.659 80.1397 104.489 80.2606 104.304 80.2328C101.744 79.8214 99.2955 79.0005 97.01 77.7853ZM90.0287 72.1028C90.0287 72.1028 89.9555 72.064 89.9287 72.0262C89.6408 71.6855 89.3626 71.3265 89.0985 70.9632C88.9911 70.8123 89.0195 70.6045 89.1704 70.4971C89.3213 70.3897 89.529 70.418 89.6364 70.569C89.8963 70.9183 90.1702 71.2633 90.4489 71.5991C90.5612 71.7409 90.542 71.9535 90.4093 72.0707C90.3053 72.1561 90.1566 72.1709 90.0378 72.1077L90.0287 72.1028ZM114.107 79.6392C114.024 79.5954 113.966 79.5291 113.945 79.4359C113.899 79.2587 113.996 79.0759 114.178 79.0202C114.602 78.9057 115.022 78.7772 115.429 78.6299C115.602 78.5693 115.799 78.6623 115.859 78.8352C115.92 79.0081 115.827 79.205 115.654 79.2655C115.224 79.4123 114.799 79.5499 114.361 79.6687C114.277 79.6944 114.189 79.6829 114.116 79.644L114.107 79.6392ZM85.169 61.9891C85.0867 61.9453 85.0239 61.865 84.9988 61.7578C84.6275 59.9419 84.4705 58.0757 84.5268 56.2055C84.6217 53.5349 85.1503 50.9308 86.1109 48.4625C86.1802 48.2882 86.3768 48.2051 86.5419 48.2694C86.7162 48.3386 86.7993 48.5352 86.7349 48.7004C85.7992 51.0999 85.2863 53.6303 85.198 56.2223C85.1338 58.0413 85.2919 59.8612 85.646 61.6211C85.6785 61.8026 85.563 61.9758 85.3907 62.0132C85.3115 62.0297 85.2378 62.014 85.1647 61.9751L85.169 61.9891ZM118.443 77.9454C118.388 77.9163 118.334 77.8639 118.308 77.8031C118.219 77.6387 118.289 77.4413 118.453 77.3527C122.39 75.3294 125.636 72.2464 127.849 68.415C127.937 68.2504 128.115 68.1807 128.302 68.292C128.466 68.3795 128.517 68.5938 128.425 68.7444C126.153 72.6855 122.808 75.8679 118.758 77.9487C118.659 78.0018 118.544 77.9989 118.452 77.9503L118.443 77.9454ZM87.7049 45.8617C87.5403 45.7742 87.4852 45.569 87.5819 45.4093C87.805 45.0119 88.0414 44.6332 88.2779 44.2546C88.3837 44.0998 88.584 44.0538 88.7389 44.1596C88.8937 44.2654 88.9396 44.4657 88.8338 44.6206C88.5931 44.9852 88.3706 45.3595 88.1524 45.7478C88.0697 45.9033 87.8645 45.9584 87.7091 45.8757L87.7049 45.8617ZM130.971 59.4132C130.852 59.35 130.776 59.2277 130.793 59.0845C130.837 58.6501 130.857 58.2152 130.882 57.7711C130.887 57.5859 131.043 57.4462 131.228 57.4508C131.413 57.4554 131.553 57.6118 131.548 57.797C131.533 58.2459 131.503 58.6992 131.464 59.1476C131.45 59.3279 131.293 59.4676 131.104 59.449C131.058 59.4478 131.016 59.4375 130.98 59.4181L130.971 59.4132ZM95.4317 37.7254C95.386 37.7011 95.336 37.6628 95.3049 37.6111C95.2115 37.4559 95.249 37.253 95.4091 37.1504C99.2409 34.7075 103.683 33.4333 108.235 33.4729C108.42 33.4776 108.565 33.6248 108.56 33.81C108.555 33.9952 108.408 34.1397 108.223 34.1351C103.8 34.0941 99.4847 35.3297 95.7612 37.7012C95.6577 37.7635 95.528 37.7649 95.4274 37.7114L95.4317 37.7254ZM130.807 53.7435C130.716 53.6949 130.649 53.6006 130.633 53.4983C130.57 53.0659 130.483 52.6329 130.392 52.209C130.359 52.0276 130.466 51.8496 130.647 51.817C130.829 51.7845 131.007 51.8909 131.039 52.0723C131.135 52.5102 131.216 52.9523 131.284 53.3987C131.316 53.5802 131.192 53.7485 131.001 53.7761C130.927 53.7836 130.862 53.7727 130.798 53.7387L130.807 53.7435ZM129.637 49.2393C129.564 49.2004 129.515 49.1389 129.484 49.064C127.944 44.9258 125.269 41.3336 121.718 38.6831C121.568 38.5682 121.536 38.3636 121.651 38.2136C121.766 38.0635 121.97 38.0316 122.12 38.1465C125.771 40.8736 128.532 44.5699 130.116 48.825C130.176 48.9979 130.097 49.1905 129.924 49.2511C129.835 49.2859 129.734 49.2787 129.651 49.235L129.637 49.2393ZM111.404 34.372C111.285 34.3088 111.205 34.1725 111.237 34.025C111.264 33.8404 111.434 33.7196 111.619 33.7474C112.066 33.8095 112.514 33.8948 112.956 33.9892C113.136 34.0262 113.252 34.2051 113.215 34.3848C113.178 34.5646 112.999 34.6806 112.819 34.6436C112.395 34.5589 111.962 34.4694 111.523 34.4121C111.482 34.4018 111.45 34.3963 111.413 34.3769L111.404 34.372Z" fill="white"/>
<path d="M79.6815 197.494C82.4671 205.547 81.7513 213.956 78.3356 221.072C77.8823 222.027 77.3807 222.964 76.8198 223.863C76.6574 224.112 76.4971 224.383 76.3171 224.642C76.2359 224.766 76.1547 224.89 76.0789 225.022C74.9945 226.628 73.7608 228.132 72.3724 229.524C71.7501 230.17 71.1036 230.757 70.4198 231.343C69.2201 232.373 67.937 233.309 66.5596 234.134C66.2435 234.331 65.9186 234.534 65.586 234.705C63.9847 235.62 62.2724 236.397 60.4669 237.025C59.6514 237.302 58.8337 237.557 58.015 237.751C57.6034 237.874 57.1983 237.968 56.7911 238.04C54.7958 238.48 52.7927 238.694 50.8039 238.716C50.7029 238.73 50.6052 238.73 50.5021 238.721C49.9533 238.722 49.4045 238.723 48.8513 238.678C47.689 238.635 46.5146 238.514 45.3709 238.325C44.2185 238.142 43.0825 237.887 41.963 237.561C41.9114 237.556 41.8543 237.543 41.7951 237.507C41.4043 237.409 41.0257 237.291 40.647 237.174C39.9786 236.944 39.3189 236.709 38.6692 236.432C30.6449 233.203 24.0146 226.637 20.959 217.8C15.3507 201.596 23.9416 183.906 40.1528 178.294C56.364 172.683 74.0589 181.286 79.6673 197.491L79.6815 197.494Z" fill="white"/>
<path d="M40.0961 234.124L41.8182 237.505C41.4274 237.407 41.0488 237.289 40.6701 237.172C40.0017 236.942 39.3421 236.707 38.6923 236.43C39.2674 235.24 39.7537 234.435 40.0961 234.124Z" fill="#F4F7FF"/>
<path d="M69.7679 228.307C70.0566 229.042 70.2706 229.776 70.3693 230.52C70.4045 230.791 70.4308 231.068 70.4286 231.338C69.2289 232.368 67.9459 233.304 66.5684 234.128C66.2523 234.326 65.9274 234.529 65.5949 234.7C63.9935 235.615 62.2813 236.392 60.4758 237.019C59.6603 237.297 58.8426 237.552 58.0238 237.746C57.6122 237.869 57.2072 237.963 56.8 238.034C54.8046 238.475 52.8015 238.689 50.8127 238.71C50.6777 238.612 50.5658 238.511 50.4571 238.395C50.0796 238.045 49.7525 237.639 49.4748 237.214C48.6462 235.986 48.1753 234.509 47.9657 232.943C47.9416 232.787 47.9317 232.634 47.9163 232.473C47.8977 232.228 47.8845 231.992 47.8713 231.756C47.8614 231.701 47.857 231.655 47.8614 231.604C47.7989 230.214 47.9295 228.801 48.1985 227.473C48.2698 227.099 48.3554 226.728 48.4696 226.364C48.8164 225.023 49.3224 223.84 49.9063 222.938C49.9151 222.933 49.9239 222.927 49.9239 222.927C50.285 222.372 50.7328 221.896 51.2476 221.489C53.2463 219.862 56.1966 219.288 58.5015 219.069C58.519 219.058 58.5366 219.047 58.5651 219.054C58.7868 219.037 59.0118 219.007 59.2248 218.996C60.6242 218.891 61.6745 218.93 61.9226 218.897C61.9226 218.897 62.6283 219.421 63.6249 220.313C63.93 220.586 64.2659 220.889 64.6149 221.233C65.2548 221.846 65.9407 222.553 66.596 223.328C67.2962 224.136 67.98 225.016 68.5727 225.964C69.0391 226.711 69.4617 227.485 69.78 228.287L69.7679 228.307Z" fill="#141414"/>
<path d="M59.7157 194.205C59.7157 194.205 68.3206 203.58 66.4008 208.87C64.4756 214.152 43.7797 224.935 38.6398 222.395C33.5142 219.858 33.206 202.894 33.206 202.894L59.7157 194.205Z" fill="#141414"/>
<path d="M74.7729 220.783L76.0965 225.012C75.0121 226.617 73.7784 228.121 72.3899 229.514C71.7676 230.159 71.1211 230.746 70.4373 231.332C69.2377 232.362 67.9546 233.299 66.5771 234.123C66.261 234.32 65.9362 234.523 65.6036 234.694C64.0022 235.61 62.29 236.386 60.4845 237.014C59.669 237.291 58.8513 237.546 58.0325 237.74C57.6209 237.863 57.2159 237.957 56.8087 238.029C54.8133 238.47 52.8102 238.683 50.8214 238.705C50.7205 238.719 50.6228 238.719 50.5196 238.71C49.9708 238.711 49.422 238.712 48.8689 238.667C47.7065 238.624 46.5321 238.503 45.3885 238.314C44.236 238.131 43.1001 237.876 41.9805 237.55C41.738 235.931 41.6579 234.356 41.7369 232.842C41.7369 232.842 42.0366 232.422 42.6348 231.719L42.6699 231.697C43.2856 230.983 44.1878 230.004 45.3721 228.909C46.1163 228.225 46.9889 227.472 47.9558 226.733C48.1205 226.606 48.2818 226.493 48.4553 226.36C48.5782 226.283 48.6726 226.2 48.7988 226.109C48.9898 225.965 49.195 225.825 49.4058 225.693C50.0511 225.241 50.725 224.795 51.4615 224.372C51.6547 224.251 51.8479 224.13 52.052 224.027C53.2176 223.372 54.4568 222.756 55.7915 222.216C56.4895 221.926 57.1975 221.691 57.8966 221.462C58.9371 221.154 59.9699 220.911 61.0071 220.715C61.3946 220.632 61.7787 220.562 62.1651 220.516C62.4131 220.484 62.6787 220.44 62.9323 220.416C63.1573 220.385 63.3647 220.365 63.5897 220.334C63.9124 220.304 64.212 220.275 64.526 220.25C66.3721 220.098 68.0931 220.097 69.5759 220.184C72.6743 220.336 74.741 220.791 74.741 220.791L74.7729 220.783Z" fill="#141414"/>
<path d="M34.2442 206.666C34.2442 206.666 23.6792 189.504 41.5126 185.394C63.8932 180.238 64.9695 209.862 53.7062 211.942C42.4429 214.023 34.2442 206.666 34.2442 206.666Z" fill="#141414"/>
<path opacity="0.2" d="M66.5839 223.348L66.0503 231.717L65.9219 233.836L65.259 233.518L57.9733 229.889C57.6934 233.055 57.8229 235.783 58.0325 237.74C57.6209 237.863 57.2159 237.957 56.8087 238.029C54.2361 233.58 52.9936 230.888 52.9936 230.888L50.1267 236.05L49.4835 237.209L48.8217 238.416L48.7097 238.608L46.4192 230.331C46.833 229.45 47.3159 228.66 47.8362 227.968C47.9558 227.808 48.0843 227.642 48.2094 227.491C48.43 227.219 48.6561 226.955 48.9019 226.704C49.0677 226.539 49.2334 226.375 49.4134 226.213C50.0281 225.634 50.68 225.153 51.3561 224.731C51.6196 224.566 51.8885 224.41 52.1596 224.278C53.9311 223.342 55.8299 222.863 57.6518 222.653C58.5167 222.552 59.3684 222.508 60.1785 222.515C61.0433 222.512 61.8577 222.565 62.614 222.642C63.0409 222.68 63.4558 222.738 63.8421 222.79C64.1681 222.843 64.4656 222.889 64.7487 222.932C65.9089 223.147 66.6036 223.36 66.6036 223.36L66.5839 223.348Z" fill="black"/>
<path d="M56.5047 234.201L56.9702 225.509L61.7864 220.985C55.5281 219.254 55.3921 210.596 55.3921 210.596L48.2523 216.266C49.1479 217.465 49.8207 218.522 50.3311 219.437C52.9345 224.209 50.7876 225.404 50.7876 225.404L53.1474 227.128L56.5278 234.199L56.5047 234.201Z" fill="#FFBEA1"/>
<path opacity="0.2" d="M48.2467 216.257C49.1423 217.456 49.8151 218.513 50.3255 219.428C53.6775 216.527 55.3865 210.587 55.3865 210.587L48.2467 216.257Z" fill="black"/>
<path d="M39.5576 192.075C32.4311 195.246 31.8405 200.084 34.5854 207.662C38.0218 217.127 42.9564 222.738 50.9885 216.816C61.9072 208.772 51.3829 186.81 39.5576 192.075Z" fill="#FFBEA1"/>
<path d="M39.0219 205.207C39.0219 205.207 38.8594 207.506 38.2612 209.089C38.2612 209.089 39.3039 209.781 40.5003 209.058L39.0219 205.207Z" fill="#E99975"/>
<path d="M43.1214 202.682C43.3683 203.273 43.8897 203.619 44.2881 203.455C44.6865 203.292 44.8051 202.68 44.5581 202.09C44.3112 201.499 43.7898 201.153 43.3914 201.317C42.993 201.48 42.8744 202.092 43.1214 202.682Z" fill="#141414"/>
<path d="M43.5647 201.281L42.0698 201.312C42.0698 201.312 43.1663 202.129 43.5647 201.281Z" fill="#141414"/>
<path d="M35.7227 205.632C35.9697 206.223 36.491 206.568 36.8894 206.405C37.2878 206.241 37.4064 205.63 37.1594 205.039C36.9125 204.449 36.3911 204.103 35.9927 204.267C35.5943 204.43 35.4758 205.041 35.7227 205.632Z" fill="#141414"/>
<path d="M36.1605 204.223L34.6656 204.253C34.6656 204.253 35.7621 205.07 36.1605 204.223Z" fill="#141414"/>
<path d="M41.003 197.729C41.003 197.729 42.8842 196.578 44.5745 197.426" stroke="#141414" stroke-width="0.74" stroke-linecap="round" stroke-linejoin="round"/>
<path d="M35.6863 199.732C35.6863 199.732 34.2211 199.83 33.1037 201.578" stroke="#141414" stroke-width="0.74" stroke-linecap="round" stroke-linejoin="round"/>
<path d="M52.6975 200.618C52.6975 200.618 46.7554 196.247 45.2572 191.505C45.2572 191.505 28.5698 192.017 34.2528 206.66C34.2528 206.66 27.2109 194.551 39.326 188.812C51.4235 183.085 59.3741 201.025 55.4194 209.174C55.4194 209.174 56.3864 203.356 52.6975 200.618Z" fill="#141414"/>
<path d="M52.2014 202.637C51.7415 201.472 52.0555 199.004 54.2945 198.289C56.6148 197.547 59.6813 201.614 54.6731 205.147C53.9542 205.657 53.1694 205.085 52.2069 202.646L52.2014 202.637Z" fill="#FFBEA1"/>
<path d="M41.1204 212.199C41.9402 212.847 43.1146 214.238 43.1146 214.238C43.2551 214.15 43.4011 214.071 43.5449 213.969C45.4821 212.771 45.9914 211.574 45.9651 210.613C45.9519 210.084 45.7642 209.627 45.5678 209.274C45.3526 208.871 45.0925 208.631 45.0925 208.631C44.4438 209.878 42.7119 211.132 41.7679 211.77C41.375 212.04 41.1094 212.182 41.1094 212.182L41.1204 212.199Z" fill="#141414"/>
<path d="M41.7733 211.779L42.3825 212.363C44.2088 211.222 45.3481 210.193 45.5732 209.283C45.358 208.88 45.0979 208.639 45.0979 208.639C44.4492 209.887 42.7173 211.141 41.7733 211.779Z" fill="white"/>
<path d="M43.5503 213.978C45.4876 212.78 45.9968 211.582 45.9705 210.622C45.3229 211.051 44.5985 211.65 44.0772 212.379C43.6788 212.933 43.5591 213.484 43.5503 213.978Z" fill="#DE5753"/>
<path d="M39.9517 192.549C39.9517 192.549 48.0451 203 55.3549 199.556C62.6703 196.12 44.6681 186.341 44.6681 186.341C44.6681 186.341 30.6005 187.158 27.5074 196.197C24.4143 205.237 34.2475 206.652 34.2475 206.652C34.2475 206.652 29.7508 197.775 39.9462 192.54L39.9517 192.549Z" fill="#141414"/>
<path d="M39.6553 191.684C39.6553 191.684 42.3475 200.076 49.4378 200.286" stroke="#141414" stroke-width="0.51" stroke-linecap="round" stroke-linejoin="round"/>
<path d="M58.5564 218.766L56.9703 225.509L63.9936 231.61L63.7852 220.725L58.5564 218.766Z" fill="#141414"/>
<path d="M51.4966 222.396L53.133 227.125L49.9324 234.644L48.7779 225.841L51.4966 222.396Z" fill="#141414"/>
<path d="M75.6882 219.943L76.834 223.867C76.6715 224.115 76.5113 224.386 76.3313 224.645C76.2501 224.769 76.1688 224.893 76.0931 225.026C75.0087 226.632 73.775 228.135 72.3866 229.528C71.7642 230.173 71.1177 230.76 70.434 231.346C69.2343 232.377 67.9512 233.313 66.5738 234.137C66.374 233.309 66.205 232.511 66.0469 231.731C65.2831 228.007 64.9067 224.982 64.7201 222.925C64.6532 222.271 64.618 221.707 64.5939 221.258C64.5698 220.809 64.5566 220.475 64.5401 220.253C64.5401 220.058 64.5401 219.96 64.5401 219.96L68.9216 219.958C68.9216 219.958 68.9271 219.967 68.9447 219.956L75.6739 219.939L75.6882 219.943Z" fill="#F4F7FF"/>
<path d="M47.9756 226.745C47.9756 226.745 47.8922 227.139 47.8274 227.974C47.7725 228.765 47.7571 229.971 47.8636 231.627C47.8537 231.67 47.8636 231.724 47.8735 231.779C47.8866 232.015 47.8998 232.251 47.9185 232.496C47.9426 232.652 47.9525 232.804 47.9678 232.966C48.127 234.491 48.3838 236.308 48.8096 238.436C48.8129 238.519 48.8304 238.606 48.8623 238.696C47.7 238.653 46.5256 238.532 45.3819 238.343C44.2294 238.159 43.0935 237.904 41.9739 237.578C41.9783 237.722 42.0003 237.855 42.0277 237.996L41.7972 237.53C41.4065 237.432 41.0278 237.315 40.6492 237.197C40.3847 236.129 40.1937 235.101 40.0752 234.149L42.6194 231.753L42.6545 231.731L45.0121 229.525L47.9493 226.762L47.9756 226.745Z" fill="#F4F7FF"/>
<path d="M49.915 222.932C49.7043 223.455 49.5638 224.129 49.4738 224.942C49.4496 225.177 49.4222 225.426 49.42 225.696C49.398 225.856 49.3904 226.02 49.3936 226.201C49.3102 228.354 49.5099 231.135 49.8622 234.102C49.8885 234.281 49.9149 234.46 49.9357 234.63C49.9851 235.1 50.0575 235.568 50.1212 236.041C50.2277 236.817 50.3396 237.602 50.4603 238.381C50.4746 238.482 50.4911 238.606 50.5141 238.701C49.9653 238.702 49.4165 238.703 48.8634 238.658C47.701 238.615 46.5266 238.494 45.383 238.305L45.8341 236.644L42.4218 235.149C42.9969 233.178 43.965 231.23 45.022 229.482C45.1372 229.276 45.2492 229.084 45.3666 228.901C47.4257 225.611 49.667 223.161 49.892 222.935C49.9008 222.929 49.9095 222.924 49.9095 222.924L49.915 222.932Z" fill="#141414"/>
<path opacity="0.7" d="M49.915 222.932C49.7043 223.455 49.5638 224.129 49.4738 224.942C49.4496 225.177 49.4222 225.426 49.42 225.696C49.398 225.856 49.3904 226.02 49.3936 226.201C49.3102 228.354 49.5099 231.135 49.8622 234.102C49.8885 234.281 49.9149 234.46 49.9357 234.63C49.9851 235.1 50.0575 235.568 50.1212 236.041C50.2277 236.817 50.3396 237.602 50.4603 238.381C50.4746 238.482 50.4911 238.606 50.5141 238.701C49.9653 238.702 49.4165 238.703 48.8634 238.658C47.701 238.615 46.5266 238.494 45.383 238.305L45.8341 236.644L42.4218 235.149C42.9969 233.178 43.965 231.23 45.022 229.482C45.1372 229.276 45.2492 229.084 45.3666 228.901C47.4257 225.611 49.667 223.161 49.892 222.935C49.9008 222.929 49.9095 222.924 49.9095 222.924L49.915 222.932Z" fill="white"/>
<path d="M69.7734 228.315L72.39 229.513C71.7677 230.159 71.1212 230.746 70.4374 231.332C69.2377 232.362 67.9547 233.298 66.5772 234.123C66.2611 234.32 65.9362 234.523 65.6037 234.694C65.4862 234.291 65.3798 233.906 65.259 233.517C64.7586 231.779 64.325 230.108 63.9398 228.554C63.3779 226.267 62.929 224.24 62.6031 222.624C62.4406 221.797 62.298 221.08 62.1937 220.523C62.1695 220.367 62.1476 220.234 62.1114 220.098C61.9841 219.347 61.9105 218.917 61.9105 218.917C64.5831 218.798 67.0867 219.346 68.9306 219.952C68.9306 219.952 68.9361 219.961 68.9536 219.95C69.1753 220.031 69.3949 220.089 69.6078 220.176C71.0752 220.688 71.9719 221.166 71.9719 221.166L68.5606 225.984L67.6222 227.315L69.7679 228.307L69.7734 228.315Z" fill="#141414"/>
<path opacity="0.7" d="M69.7734 228.315L72.39 229.513C71.7677 230.159 71.1212 230.746 70.4374 231.332C69.2377 232.362 67.9547 233.298 66.5772 234.123C66.2611 234.32 65.9362 234.523 65.6037 234.694C65.4862 234.291 65.3798 233.906 65.259 233.517C64.7586 231.779 64.325 230.108 63.9398 228.554C63.3779 226.267 62.929 224.24 62.6031 222.624C62.4406 221.797 62.298 221.08 62.1937 220.523C62.1695 220.367 62.1476 220.234 62.1114 220.098C61.9841 219.347 61.9105 218.917 61.9105 218.917C64.5831 218.798 67.0867 219.346 68.9306 219.952C68.9306 219.952 68.9361 219.961 68.9536 219.95C69.1753 220.031 69.3949 220.089 69.6078 220.176C71.0752 220.688 71.9719 221.166 71.9719 221.166L68.5606 225.984L67.6222 227.315L69.7679 228.307L69.7734 228.315Z" fill="white"/>
<path d="M78.3443 221.067C77.891 222.022 77.3894 222.958 76.8285 223.858C76.666 224.106 76.5058 224.377 76.3258 224.636L75.6739 219.939C76.5333 220.123 77.4212 220.508 78.3355 221.073L78.3443 221.067Z" fill="#F4F7FF"/>
<path d="M72.0891 237.004C71.8608 237.147 71.5579 237.092 71.3977 236.874C71.2265 236.639 71.2704 236.319 71.5053 236.148C72.0573 235.742 72.5897 235.323 73.111 234.888C73.3261 234.705 73.6587 234.729 73.8387 234.958C74.022 235.173 73.9978 235.506 73.7684 235.686C73.2295 236.133 72.6851 236.57 72.1243 236.982C72.1155 236.987 72.0979 236.998 72.0891 237.004ZM77.43 232.128C77.2368 232.249 76.9844 232.235 76.811 232.075C76.5925 231.882 76.5849 231.557 76.7693 231.344C81.3473 226.224 84.3306 219.94 85.4008 213.153C85.4436 212.87 85.7136 212.677 85.9968 212.72C86.28 212.762 86.4731 213.032 86.4303 213.316C85.3316 220.291 82.2594 226.766 77.5507 232.028C77.5123 232.064 77.4827 232.095 77.4388 232.122L77.43 232.128ZM58.0347 243.332C57.982 243.365 57.9381 243.392 57.8689 243.399C50.9707 244.864 43.8222 244.287 37.2259 241.742C36.9558 241.642 36.8296 241.342 36.9295 241.072C37.0294 240.802 37.329 240.676 37.599 240.776C44.0165 243.25 50.9586 243.809 57.6604 242.381C57.9381 242.317 58.2114 242.501 58.275 242.778C58.3233 242.992 58.2191 243.216 58.0435 243.326L58.0347 243.332ZM33.0024 239.496C32.8444 239.595 32.6457 239.609 32.4734 239.51C31.8686 239.167 31.2672 238.81 30.6778 238.433C30.4352 238.28 30.3672 237.956 30.5209 237.713C30.6745 237.471 30.9983 237.403 31.2409 237.557C31.8105 237.921 32.3977 238.275 32.9915 238.6C33.2373 238.739 33.3284 239.061 33.189 239.307C33.1407 239.386 33.0815 239.447 33.0112 239.491L33.0024 239.496ZM85.2517 198.3C85.2517 198.3 85.1727 198.349 85.1178 198.359C84.8368 198.437 84.557 198.282 84.479 198.001C84.2914 197.349 84.0949 196.702 83.8611 196.055C83.7656 195.785 83.9094 195.487 84.1794 195.392C84.4494 195.296 84.7469 195.44 84.8424 195.71C85.0728 196.372 85.2858 197.045 85.4701 197.711C85.5382 197.937 85.4394 198.17 85.2462 198.291L85.2517 198.3ZM81.845 190.171C81.845 190.171 81.8362 190.176 81.8274 190.182C81.5761 190.327 81.2655 190.24 81.1206 189.988C80.8967 189.591 80.6552 189.205 80.4192 188.827C80.2985 188.634 80.1778 188.441 80.057 188.247C79.9034 188.001 79.9671 187.693 80.2074 187.531C80.4796 187.361 80.7617 187.441 80.9241 187.681C81.0449 187.874 81.1711 188.076 81.2973 188.278C81.5442 188.674 81.7912 189.069 82.0118 189.48C82.1512 189.723 82.0733 190.028 81.8362 190.176L81.845 190.171ZM20.3158 227.556C20.0787 227.704 19.756 227.637 19.6078 227.4L19.3828 227.04C17.9286 224.713 16.7323 222.212 15.8268 219.591C14.4681 215.677 13.792 211.606 13.8151 207.501C13.8206 207.216 14.0544 206.985 14.3332 206.982C14.6175 206.987 14.849 207.221 14.8523 207.5C14.8413 211.488 15.4921 215.44 16.808 219.246C17.6872 221.786 18.8451 224.226 20.2554 226.483L20.4749 226.834C20.6286 227.08 20.5561 227.394 20.3245 227.551L20.3158 227.556ZM77.6282 184.282C77.4174 184.414 77.1398 184.38 76.9675 184.182C72.4357 179.04 66.5341 175.34 59.9234 173.475C59.6468 173.403 59.4888 173.111 59.5601 172.835C59.637 172.567 59.9234 172.4 60.2 172.472C67.0159 174.392 73.081 178.197 77.7434 183.49C77.9355 183.699 77.9114 184.032 77.6962 184.215C77.6699 184.232 77.6436 184.248 77.626 184.259L77.6282 184.282ZM14.994 202.783C14.8886 202.849 14.7701 202.874 14.6471 202.853C14.364 202.811 14.1763 202.549 14.2103 202.272C14.3113 201.573 14.432 200.887 14.5813 200.208C14.6384 199.928 14.9139 199.744 15.1993 199.81C15.4791 199.867 15.6635 200.142 15.5977 200.428C15.4605 201.087 15.3342 201.765 15.2398 202.434C15.2179 202.594 15.1279 202.724 15.0049 202.801L14.994 202.783ZM44.9482 172.526C44.8955 172.559 44.8285 172.589 44.7594 172.595C44.0954 172.705 43.428 172.829 42.7541 172.981C42.4764 173.045 42.1944 172.867 42.1395 172.584C42.0758 172.306 42.2536 172.024 42.5368 171.969C43.225 171.82 43.9099 171.685 44.6024 171.582C44.8823 171.541 45.1468 171.73 45.2017 172.013C45.2357 172.224 45.1348 172.434 44.9679 172.538L44.9482 172.526ZM21.6564 186.677C21.4808 186.787 21.2481 186.786 21.0769 186.649C20.8464 186.475 20.7927 186.155 20.9661 185.924C25.1435 180.261 30.885 175.929 37.5 173.443C37.7701 173.348 38.0708 173.478 38.1663 173.748C38.2618 174.018 38.1267 174.31 37.8622 174.414C31.4304 176.821 25.8591 181.035 21.8013 186.538C21.7596 186.588 21.7179 186.639 21.6652 186.672L21.6564 186.677Z" fill="white"/>
<defs>
<clipPath id="clip0_5504_2114">
<path d="M46.3335 88.4642C45.4089 75.2417 55.3784 63.7732 68.6009 62.8485L146.976 57.3681C160.198 56.4434 171.667 66.4129 172.591 79.6354L189.664 323.788L63.4063 332.617L46.3335 88.4642Z" fill="white"/>
</clipPath>
</defs>
</svg>
