<svg width="630" height="470" viewBox="0 0 630 470" fill="none" xmlns="http://www.w3.org/2000/svg">
<g opacity="0.3">
<g clip-path="url(#clip0_7108_346)">
<path d="M75.0677 88.4509C74.1431 75.2284 84.1125 63.7599 97.3351 62.8352L256.945 51.6742C270.168 50.7496 281.636 60.719 282.561 73.9416L311.696 490.588L104.202 505.097L75.0677 88.4509Z" fill="white"/>
<rect x="15.5822" y="116.752" width="331" height="48" transform="rotate(-16 15.5822 116.752)" fill="#D3DBF5"/>
<rect x="21.9838" y="208.298" width="331" height="48" transform="rotate(-16 21.9838 208.298)" fill="#D3DBF5"/>
<rect x="28.3853" y="299.845" width="331" height="48" transform="rotate(-16 28.3853 299.845)" fill="#D3DBF5"/>
<rect x="34.7869" y="391.391" width="331" height="48" transform="rotate(-16 34.7869 391.391)" fill="#D3DBF5"/>
<rect x="41.1884" y="482.937" width="331" height="48" transform="rotate(-16 41.1884 482.937)" fill="#D3DBF5"/>
</g>
</g>
<path d="M311.269 145.406L340.261 118.641L338.083 128.785L320.872 94.2641L341.104 97.8315L350.588 118.123L342.958 117.167L359.634 101.099L378.637 104.45L350.773 130.341L352.507 120.508L370.263 155.808L349.748 152.19L339.913 130.57L347.293 132.944L330.745 148.84L311.269 145.406ZM374.394 156.536L376.461 144.813L405.315 126.018C407.369 124.69 408.917 123.469 409.958 122.353C411.063 121.248 411.83 120.213 412.26 119.249C412.764 118.233 413.094 117.284 413.25 116.402C413.628 114.259 413.197 112.461 411.959 111.008C410.783 109.566 408.778 108.594 405.941 108.094C403.546 107.672 401.214 107.813 398.945 108.518C396.677 109.223 394.691 110.53 392.99 112.439L380.459 102.236C383.651 98.5101 387.801 95.7975 392.91 94.0988C398.018 92.4001 403.818 92.1231 410.31 93.2678C415.416 94.168 419.746 95.7764 423.302 98.093C426.858 100.41 429.44 103.27 431.05 106.673C432.722 110.087 433.197 113.843 432.475 117.939C432.097 120.082 431.435 122.175 430.49 124.218C429.556 126.198 428.059 128.241 425.998 130.347C424.011 132.401 421.186 134.6 417.524 136.944L394.658 151.628L392.705 144.46L428.537 150.778L425.919 165.621L374.394 156.536Z" fill="white"/>
<path d="M257.2 195.782C259.502 182.728 271.95 174.012 285.003 176.314L442.572 204.098C455.626 206.399 464.342 218.847 462.04 231.901L392.234 627.793L187.394 591.675L257.2 195.782Z" fill="white"/>
<path d="M605.093 202.461C602.609 212.288 596.981 220.495 589.538 226.243C579.339 234.182 565.68 237.51 552.155 234.102C549.623 233.464 547.196 232.612 544.884 231.568C544.038 231.208 543.196 230.794 542.404 230.346C535.711 226.834 530.2 221.67 526.221 215.529C525.536 214.5 524.901 213.436 524.333 212.343C523.498 210.776 522.758 209.156 522.123 207.504C518.963 199.381 518.228 190.255 520.509 181.155C526.393 157.779 550.12 143.614 573.485 149.511C596.835 155.402 611.002 179.114 605.102 202.483L605.093 202.461Z" fill="white"/>
<path d="M526.205 215.523C525.514 214.509 524.886 213.429 524.311 212.353C523.476 210.786 522.736 209.165 522.101 207.513C523.839 206.619 525.449 206.039 526.893 205.962C527.175 205.947 527.44 205.926 527.702 205.959C527.702 205.959 527.74 205.955 527.756 205.962L526.183 215.532L526.205 215.523Z" fill="#407BFF"/>
<path opacity="0.7" d="M526.205 215.523C525.514 214.509 524.886 213.429 524.311 212.353C523.476 210.786 522.736 209.165 522.101 207.513C523.839 206.619 525.449 206.039 526.893 205.962C527.165 205.925 527.44 205.926 527.709 205.943C527.709 205.943 527.747 205.94 527.784 205.937L526.19 215.516L526.205 215.523Z" fill="white"/>
<path d="M589.532 226.259C579.332 234.197 565.673 237.526 552.149 234.117C549.617 233.48 547.19 232.628 544.877 231.583C544.032 231.223 543.189 230.81 542.398 230.361C535.705 226.85 530.194 221.686 526.215 215.545C525.53 214.515 524.895 213.451 524.327 212.359C525.431 210.125 526.558 207.974 527.709 205.943C527.709 205.943 527.709 205.943 527.756 205.962C528.539 206.113 535.59 207.603 545.407 210.285C545.843 210.388 546.288 210.512 546.743 210.659C548.826 211.226 551.045 211.865 553.337 212.553C554.666 212.943 556.02 213.361 557.406 213.793C561.61 215.106 566.025 216.578 570.453 218.201C571.57 218.616 572.687 219.031 573.798 219.461C579.184 221.527 584.526 223.796 589.519 226.29L589.532 226.259Z" fill="#407BFF"/>
<path opacity="0.7" d="M589.532 226.259C579.332 234.197 565.673 237.526 552.149 234.117C549.617 233.48 547.19 232.628 544.877 231.583C544.032 231.223 543.189 230.81 542.398 230.361C535.705 226.85 530.194 221.686 526.215 215.545C525.53 214.515 524.895 213.451 524.327 212.359C525.431 210.126 526.573 207.98 527.724 205.949C527.724 205.949 527.724 205.949 527.778 205.952C528.561 206.104 535.612 207.594 545.43 210.276C545.865 210.378 546.31 210.503 546.765 210.65C548.848 211.217 551.067 211.856 553.359 212.543C554.688 212.933 556.042 213.352 557.428 213.783C561.632 215.097 566.047 216.568 570.475 218.192C571.592 218.607 572.709 219.021 573.82 219.452C579.206 221.518 584.548 223.786 589.541 226.281L589.532 226.259Z" fill="white"/>
<path d="M557.709 220.083L553.148 222.241L548.277 224.532C547.161 226.522 546.008 228.92 544.855 231.593C544.009 231.233 543.167 230.819 542.376 230.371C544.578 226.011 546.016 223.269 546.016 223.269L546.238 218.587L546.378 215.468L552.046 216.565L557.702 220.098L557.709 220.083Z" fill="#141414"/>
<path d="M570.633 218.073C564.286 221.473 552.075 216.54 552.075 216.54C552.075 216.54 544.721 212.394 547 210.341C551.849 210.74 554.644 209.135 556.274 206.599C557.224 205.111 557.768 203.311 558.081 201.401C558.268 200.393 558.37 199.369 558.44 198.333L576.999 190.688C573.018 197.817 566.967 211.25 570.633 218.073Z" fill="#FFBEA1"/>
<path opacity="0.2" d="M571.529 197.142C568.532 206.376 560.179 207.02 556.259 206.593C557.209 205.105 557.752 203.305 558.065 201.394L571.513 197.136L571.529 197.142Z" fill="black"/>
<path d="M569.822 211.541L553.166 214.521L553.656 208.901L547.67 209.455C545.517 209.65 543.786 211.3 543.475 213.433L542.594 219.519L551.225 217.28L553.652 223.583L573.798 219.461L569.809 211.572L569.822 211.541Z" fill="#407BFF"/>
<path opacity="0.6" d="M569.822 211.541L553.166 214.521L553.656 208.901L547.67 209.455C545.517 209.65 543.786 211.3 543.475 213.433L542.594 219.519L551.225 217.28L553.652 223.583L573.798 219.461L569.809 211.572L569.822 211.541Z" fill="white"/>
<path d="M550.413 160.876C550.413 160.876 544.27 175.354 550.796 183.185C557.306 191.01 564.467 162.975 564.467 162.975L550.413 160.876Z" fill="#141414"/>
<path d="M570.949 201.075C565.65 205.652 558.958 205.499 553.907 202.376C550.662 200.367 548.105 197.113 547.02 193.077C546.863 192.555 546.758 191.998 546.668 191.448C545.083 181.244 547.934 164.83 559.209 161.272C567.231 158.677 575.836 163.089 578.424 171.128C579.171 173.412 579.349 175.834 578.99 178.222C577.437 189.287 577.054 195.868 570.943 201.09L570.949 201.075Z" fill="#FFBEA1"/>
<path d="M561.829 179.952C561.816 180.846 561.216 181.559 560.616 181.5C560.01 181.456 559.611 180.671 559.684 179.765C559.756 178.858 560.312 178.164 560.896 178.217C561.481 178.27 561.908 179.029 561.829 179.952Z" fill="#141414"/>
<path d="M551.587 179.137C551.575 180.031 550.959 180.737 550.375 180.684C549.79 180.632 549.37 179.856 549.442 178.949C549.515 178.042 550.071 177.349 550.655 177.402C551.239 177.454 551.663 178.268 551.587 179.137Z" fill="#141414"/>
<path d="M554.811 179.833C553.506 182.518 551.835 185.019 549.852 187.246C551.04 188.258 552.615 188.675 554.136 188.408L554.811 179.833Z" fill="#E99975"/>
<path d="M548.144 174.441C548.305 174.543 548.519 174.556 548.697 174.481C549.897 173.828 551.312 173.776 552.549 174.349C552.804 174.489 553.133 174.401 553.273 174.146C553.413 173.89 553.326 173.562 553.07 173.422C551.522 172.667 549.708 172.705 548.217 173.535C547.944 173.663 547.839 173.969 547.968 174.242C548.012 174.315 548.078 174.378 548.144 174.441Z" fill="#141414"/>
<path d="M564.187 176.022C564.295 176.029 564.399 175.998 564.494 175.944C564.706 175.737 564.711 175.408 564.503 175.195C563.319 173.946 561.593 173.359 559.895 173.609C559.61 173.678 559.426 173.952 559.479 174.23C559.547 174.515 559.822 174.699 560.1 174.646C561.453 174.477 562.797 174.965 563.732 175.967C563.862 176.056 564.032 176.088 564.181 176.038L564.187 176.022Z" fill="#141414"/>
<path d="M571.934 163.661L570.707 168.469C572.204 169.533 572.931 171.46 571.954 173.287C569.845 177.189 571.354 183.856 574.178 186.814C574.178 186.814 574.504 185.055 575.949 185.657C577.388 186.275 575.778 195.482 572.291 199.524C572.291 199.524 577.239 196.09 581.001 186.689C584.476 177.997 585.735 170.521 584.332 166.816L571.957 163.651L571.934 163.661Z" fill="#141414"/>
<path d="M583.108 187.742C581.674 190.155 579.333 191.907 576.61 192.605C572.995 193.513 571.291 190.236 572.374 186.874C573.373 183.901 576.431 179.739 580.031 180.368C583.631 180.996 584.831 184.749 583.108 187.742Z" fill="#FFBEA1"/>
<path d="M554.606 191.333C555.186 192.76 555.704 195.429 555.704 195.429C555.963 195.424 556.2 195.428 556.45 195.4C559.844 195.266 561.368 194.083 562.023 192.824C562.38 192.124 562.49 191.398 562.489 190.81C562.488 190.13 562.341 189.63 562.341 189.63C560.593 190.778 557.438 191.137 555.753 191.264C555.049 191.328 554.606 191.333 554.606 191.333Z" fill="#141414"/>
<path d="M555.747 191.28L556.103 192.488C559.292 192.363 561.524 191.834 562.482 190.826C562.481 190.146 562.335 189.646 562.335 189.646C560.586 190.794 557.432 191.153 555.747 191.28Z" fill="white"/>
<path d="M556.443 195.416C559.838 195.282 561.362 194.099 562.017 192.84C560.863 192.925 559.485 193.157 558.279 193.734C557.352 194.167 556.806 194.791 556.421 195.425L556.443 195.416Z" fill="#DE5753"/>
<path d="M573.474 192.146C573.696 190.052 573.82 188.064 573.892 186.478C573.94 185.359 573.959 184.449 573.946 183.801C573.957 183.182 573.952 182.831 573.952 182.831L572.753 181.667C572.753 181.667 572.66 182.713 572.375 184.011C571.986 185.836 571.26 188.131 569.956 188.816C569.956 188.816 563.437 187.871 561.083 187.929C558.72 187.965 556.743 190.177 556.743 190.177C556.743 190.177 552.046 187.857 548.957 191.051C548.957 191.051 546.926 188.266 546.329 184.611C546.32 184.497 546.286 184.355 546.277 184.241C546.277 184.241 543.784 194.816 548.284 201.939C550.116 204.809 552.891 206.48 555.925 207.192C560.37 208.272 565.382 207.36 568.7 205.415C570.166 204.558 571.216 202.596 571.986 200.19C572.762 197.769 573.234 194.876 573.521 192.165L573.474 192.146ZM557.003 190.943C557.003 190.943 559.027 189.521 562.11 189.794C562.202 189.794 562.287 189.81 562.372 189.827C562.742 189.866 563.105 189.921 563.487 190.02C565.776 190.578 567.007 192.709 567.066 194.788C567.086 196.192 566.585 197.568 565.539 198.43C563.439 200.133 560.991 199.603 559.674 197.822C559.35 197.398 559.08 196.885 558.927 196.309L556.669 196.902C556.669 196.902 558.386 199.284 556.318 200.541C554.244 201.814 549.283 199.92 549.993 194.939C550.712 189.796 556.987 190.936 556.987 190.936L557.003 190.943Z" fill="#141414"/>
<path d="M570.707 168.469C570.707 168.469 544.678 170.618 551.514 155.153C551.514 155.153 566.365 150.783 577.106 155.765C587.848 160.747 584.013 172.193 584.013 172.193L570.707 168.469Z" fill="#141414"/>
<path d="M543.519 239.35C534.558 235.729 526.813 229.645 521.153 221.76C520.92 221.427 520.991 220.979 521.324 220.746C521.657 220.513 522.105 220.584 522.338 220.917C527.85 228.577 535.353 234.49 544.061 238.009L544.661 238.251C545.024 238.397 545.202 238.818 545.072 239.188C544.918 239.566 544.498 239.745 544.135 239.599L543.519 239.35ZM565.505 242.983C565.253 242.881 565.074 242.644 565.043 242.356C565.019 241.961 565.327 241.608 565.722 241.584C566.68 241.53 567.634 241.439 568.573 241.341C568.975 241.301 569.34 241.577 569.38 241.979C569.42 242.38 569.143 242.746 568.742 242.786C567.775 242.909 566.788 242.988 565.809 243.051C565.695 243.06 565.594 243.037 565.499 242.999L565.505 242.983ZM575.522 241.358C575.316 241.275 575.15 241.098 575.094 240.873C574.994 240.484 575.229 240.084 575.602 239.977C584.923 237.484 593.274 232.396 599.735 225.26C600.002 224.964 600.466 224.95 600.763 225.216C601.059 225.483 601.073 225.947 600.806 226.243C594.148 233.594 585.55 238.839 575.967 241.391C575.803 241.435 575.641 241.425 575.499 241.368L575.522 241.358ZM517.657 215.832C517.499 215.768 517.361 215.657 517.279 215.495C516.827 214.615 516.391 213.742 515.983 212.843C515.817 212.482 515.973 212.05 516.35 211.89C516.711 211.723 517.143 211.88 517.303 212.256C517.701 213.133 518.106 213.994 518.555 214.836C518.743 215.188 518.602 215.626 518.251 215.815C518.061 215.922 517.84 215.924 517.635 215.841L517.657 215.832ZM511.949 192.031C511.681 191.923 511.492 191.663 511.49 191.35C511.533 187.293 512.056 183.227 513.053 179.261C513.633 176.963 514.367 174.69 515.247 172.512C516.522 169.356 518.113 166.328 519.987 163.506C520.213 163.175 520.655 163.078 520.986 163.304C521.317 163.529 521.414 163.972 521.188 164.303C519.377 167.059 517.825 169.993 516.588 173.054C515.734 175.169 515.009 177.372 514.454 179.608C513.486 183.457 512.97 187.415 512.94 191.349C512.942 191.754 512.609 192.078 512.211 192.064C512.119 192.064 512.034 192.048 511.94 192.009L511.949 192.031ZM610.765 207.635C610.418 207.495 610.227 207.105 610.336 206.745C610.63 205.836 610.876 204.908 611.123 203.98C611.222 203.598 611.615 203.353 612.012 203.458C612.394 203.557 612.64 203.95 612.534 204.348C612.29 205.314 612.022 206.252 611.737 207.183C611.616 207.575 611.204 207.776 610.829 207.66C610.813 207.654 610.797 207.648 610.781 207.641L610.765 207.635ZM613.014 195.438C612.73 195.323 612.532 195.041 612.552 194.719C612.606 193.768 612.644 192.81 612.644 191.856C612.643 191.451 612.976 191.127 613.38 191.125C613.784 191.123 614.109 191.456 614.11 191.861C614.104 192.831 614.069 193.826 614.018 194.815C614.004 195.214 613.639 195.525 613.248 195.495C613.156 195.495 613.093 195.47 613.014 195.438ZM524.759 158.826C524.759 158.826 524.601 158.762 524.551 158.705C524.255 158.439 524.219 157.984 524.491 157.672C525.151 156.947 525.827 156.229 526.512 155.533C526.794 155.243 527.268 155.251 527.542 155.527C527.832 155.809 527.83 156.267 527.548 156.557C526.869 157.237 526.222 157.93 525.585 158.646C525.382 158.876 525.043 158.941 524.775 158.832L524.759 158.826ZM612.601 185.286C612.364 185.19 612.195 184.975 612.151 184.718C610.788 175.192 606.705 166.31 600.361 159.03C600.1 158.722 600.133 158.277 600.425 158.009C600.732 157.748 601.177 157.781 601.445 158.073C607.975 165.575 612.177 174.707 613.571 184.521C613.633 184.913 613.35 185.294 612.964 185.341C612.828 185.359 612.705 185.346 612.595 185.301L612.601 185.286ZM544.99 145.047C544.8 144.97 544.659 144.821 544.574 144.622C544.43 144.251 544.618 143.832 545.004 143.694C554.303 140.256 564.341 139.576 574.028 141.764C574.416 141.848 574.661 142.24 574.578 142.629C574.494 143.017 574.101 143.262 573.713 143.179C564.291 141.061 554.541 141.71 545.517 145.058C545.347 145.117 545.163 145.117 544.99 145.047ZM583.248 146.334L583.216 146.321C582.623 146.063 582.03 145.805 581.43 145.563C581.146 145.448 580.862 145.333 580.578 145.218C580.137 145.04 580.015 144.66 580.152 144.275C580.305 143.896 580.71 143.711 581.095 143.849C581.426 143.982 581.758 144.116 582.073 144.244C582.657 144.48 583.241 144.715 583.812 144.983C584.19 145.136 584.341 145.582 584.178 145.938C584.031 146.301 583.601 146.458 583.238 146.311L583.248 146.334Z" fill="white"/>
<path d="M545.526 345.312C546.799 354.153 543.982 362.636 538.532 368.844C537.826 369.643 537.09 370.417 536.289 371.128C535.892 371.491 535.488 371.839 535.061 372.178C531.067 375.465 526.168 377.721 520.708 378.512L520.57 378.536C519.52 378.687 518.495 378.771 517.466 378.801C516.932 378.815 516.375 378.82 515.843 378.797C515.797 378.817 515.752 378.8 515.698 378.805C514.815 378.789 513.934 378.734 513.079 378.612C512.873 378.61 512.654 378.577 512.443 378.522C511.639 378.433 510.846 378.283 510.055 378.095C509.602 377.998 509.143 377.886 508.698 377.767C507.848 377.531 507 377.257 506.175 376.953C505.508 376.71 504.843 376.429 504.202 376.118C502.769 375.452 501.402 374.682 500.093 373.793C499.73 373.563 499.376 373.311 499.03 373.037C498.838 372.899 498.646 372.761 498.47 372.616C492.698 368.144 488.6 361.492 487.478 353.701C485.164 337.667 496.279 322.807 512.304 320.479C528.32 318.173 543.196 329.285 545.51 345.319L545.526 345.312Z" fill="white"/>
<path d="M500.093 373.793C499.73 373.563 499.376 373.311 499.03 373.037C498.838 372.899 498.646 372.761 498.47 372.616C498.77 372.202 499.06 371.85 499.314 371.625C499.362 371.566 499.394 371.552 499.394 371.552L500.078 373.8L500.093 373.793Z" fill="#407BFF"/>
<path opacity="0.5" d="M500.093 373.793C499.73 373.563 499.376 373.311 499.03 373.037C498.838 372.899 498.646 372.761 498.47 372.616C498.77 372.202 499.06 371.85 499.314 371.625C499.362 371.566 499.394 371.552 499.394 371.552L500.078 373.8L500.093 373.793Z" fill="white"/>
<path d="M536.716 366.523C536.716 366.523 536.716 366.523 536.714 366.561C536.536 368.168 536.399 369.701 536.28 371.151C535.883 371.514 535.479 371.861 535.053 372.2C531.059 375.487 526.159 377.743 520.7 378.535L520.562 378.559C519.511 378.71 518.487 378.793 517.457 378.823C516.923 378.837 516.367 378.843 515.835 378.819C515.788 378.84 515.743 378.823 515.69 378.828C514.807 378.811 513.926 378.756 513.07 378.634C512.865 378.632 512.645 378.6 512.434 378.545C511.631 378.455 510.838 378.305 510.046 378.117C509.594 378.021 509.134 377.909 508.69 377.79C507.84 377.554 506.991 377.279 506.167 376.976C505.5 376.733 504.834 376.451 504.193 376.141C502.76 375.475 501.393 374.705 500.084 373.816C499.721 373.586 499.367 373.334 499.021 373.059C499.062 372.147 499.216 371.781 499.305 371.647C499.354 371.589 499.385 371.575 499.385 371.575C499.385 371.575 505.349 369.534 510.777 368.254C510.893 368.221 511.015 368.204 511.131 368.171C511.746 368.046 512.368 367.937 512.974 367.834C515.932 367.281 518.927 366.898 521.916 366.666C522.666 366.593 523.445 366.544 524.209 366.503C524.461 366.483 524.713 366.464 524.966 366.445C528.868 366.216 532.782 366.262 536.692 366.552L536.716 366.523Z" fill="#407BFF"/>
<path opacity="0.5" d="M536.716 366.523C536.716 366.523 536.716 366.523 536.714 366.561C536.536 368.168 536.399 369.701 536.28 371.151C535.883 371.514 535.479 371.861 535.053 372.2C531.059 375.487 526.159 377.743 520.7 378.535L520.562 378.559C519.511 378.71 518.487 378.793 517.457 378.823C516.923 378.837 516.367 378.843 515.835 378.819C515.788 378.84 515.743 378.823 515.69 378.828C514.807 378.811 513.926 378.756 513.07 378.634C512.865 378.632 512.645 378.6 512.434 378.545C511.631 378.455 510.838 378.305 510.046 378.117C509.594 378.021 509.134 377.909 508.69 377.79C507.84 377.554 506.991 377.279 506.167 376.976C505.5 376.733 504.834 376.451 504.193 376.141C502.76 375.475 501.393 374.705 500.084 373.816C499.721 373.586 499.367 373.334 499.021 373.059C499.062 372.147 499.216 371.781 499.305 371.647C499.354 371.589 499.385 371.575 499.385 371.575C499.385 371.575 505.349 369.534 510.777 368.254C510.893 368.221 511.015 368.204 511.131 368.171C511.746 368.046 512.368 367.937 512.974 367.834C515.932 367.281 518.927 366.898 521.916 366.666C522.666 366.593 523.445 366.544 524.209 366.503C524.461 366.483 524.713 366.464 524.966 366.445C528.868 366.216 532.782 366.262 536.692 366.552L536.716 366.523Z" fill="white"/>
<path d="M507.563 374.715L512.427 378.529C511.624 378.44 510.831 378.29 510.039 378.102C509.587 378.005 509.127 377.893 508.683 377.774L508.425 377.07L507.547 374.722L507.563 374.715Z" fill="#141414"/>
<path d="M522.18 372.864L521.503 375.234L520.57 378.536C519.52 378.687 518.495 378.771 517.466 378.801C516.932 378.815 516.376 378.82 515.843 378.797C515.797 378.817 515.752 378.8 515.698 378.805L519.034 375.755L522.18 372.864Z" fill="#141414"/>
<path d="M529.034 373.073L524.982 372.716C524.982 372.716 523.5 373.655 521.503 375.234C520.278 376.207 518.861 377.416 517.466 378.801C516.932 378.815 516.376 378.82 515.843 378.797C515.797 378.817 515.752 378.8 515.698 378.805C514.815 378.789 513.934 378.734 513.079 378.612C512.873 378.61 512.654 378.577 512.443 378.522C511.639 378.433 510.846 378.283 510.055 378.095C509.509 377.705 508.976 377.346 508.44 377.063C508.046 376.847 507.651 376.669 507.283 376.554L506.191 376.946C505.524 376.703 504.858 376.422 504.217 376.111C505.147 374.058 507.128 370.642 510.817 368.218C511.538 367.747 512.328 367.303 513.19 366.938C515.273 366.01 517.758 365.444 520.753 365.433C522.451 365.441 523.859 365.801 525.012 366.424C527.556 367.788 528.833 370.405 529.041 373.088L529.034 373.073Z" fill="#141414"/>
<path opacity="0.1" d="M529.034 373.073L524.982 372.716C524.982 372.716 523.5 373.655 521.503 375.234C520.278 376.207 518.861 377.416 517.466 378.801C516.932 378.815 516.376 378.82 515.843 378.797C515.797 378.817 515.752 378.8 515.698 378.805C514.815 378.789 513.934 378.734 513.079 378.612C512.873 378.61 512.654 378.577 512.443 378.522C511.639 378.433 510.846 378.283 510.055 378.095C509.509 377.705 508.976 377.346 508.44 377.063C508.046 376.847 507.651 376.669 507.283 376.554L506.191 376.946C505.524 376.703 504.858 376.422 504.217 376.111C505.147 374.058 507.128 370.642 510.817 368.218C511.538 367.747 512.328 367.303 513.19 366.938C515.273 366.01 517.758 365.444 520.753 365.433C522.451 365.441 523.859 365.801 525.012 366.424C527.556 367.788 528.833 370.405 529.041 373.088L529.034 373.073Z" fill="white"/>
<path d="M523.19 367.813C523.46 370.301 521.29 373.335 519.034 375.755C517.898 376.969 516.722 378.051 515.85 378.812C515.804 378.833 515.759 378.816 515.705 378.821C514.822 378.804 513.941 378.749 513.086 378.627C511.303 376.422 508.622 372.157 511.781 369.297C511.996 369.108 512.263 368.915 512.553 368.73C512.723 368.524 512.888 368.227 513.005 367.821C513.085 367.58 513.143 367.293 513.181 366.96C513.263 366.141 513.19 365.056 512.821 363.599C512.733 363.192 512.592 362.751 512.445 362.295C512.407 362.126 512.331 361.955 512.277 361.792C512.187 361.59 512.13 361.336 512.026 361.103C511.91 360.801 511.787 360.483 511.65 360.134L519.703 356.549C519.703 356.549 519.708 356.602 519.682 356.67C519.623 356.957 519.458 357.757 519.388 358.813C519.282 360.667 519.407 363.331 520.728 365.463C520.977 365.855 521.251 366.217 521.571 366.559C521.707 366.573 521.819 366.616 521.947 366.652C522.654 366.859 523.117 367.231 523.182 367.835L523.19 367.813Z" fill="#FFBEA1"/>
<path opacity="0.2" d="M511.659 360.111C512.216 361.447 512.584 362.606 512.83 363.577C518.527 362.233 519.718 356.542 519.718 356.542L511.666 360.127L511.659 360.111Z" fill="black"/>
<path d="M508.838 331.393C508.838 331.393 498.65 332.482 498.717 340.873C498.783 349.264 505.978 352.246 505.978 352.246L508.838 331.393Z" fill="#141414"/>
<path d="M510.745 335.425C503.311 336.759 501.644 341.172 502.485 348.92C503.522 358.611 506.861 365.023 515.788 361.31C527.904 356.269 523.093 333.206 510.767 335.433L510.745 335.425Z" fill="#FFBEA1"/>
<path d="M507.189 347.645C507.189 347.645 506.515 349.771 505.586 351.116C505.586 351.116 506.399 352.021 507.705 351.607L507.212 347.654L507.189 347.645Z" fill="#E99975"/>
<path d="M511.634 346.207C511.72 346.82 512.142 347.265 512.541 347.2C512.94 347.134 513.201 346.589 513.114 345.976C513.027 345.362 512.605 344.917 512.206 344.983C511.807 345.049 511.547 345.593 511.634 346.207Z" fill="#141414"/>
<path d="M512.374 344.983L510.964 344.66C510.964 344.66 511.81 345.681 512.374 344.983Z" fill="#141414"/>
<path d="M503.984 347.265C504.071 347.878 504.493 348.324 504.892 348.258C505.291 348.192 505.551 347.648 505.464 347.034C505.378 346.421 504.956 345.975 504.557 346.041C504.158 346.107 503.897 346.652 503.984 347.265Z" fill="#141414"/>
<path d="M504.731 346.057L503.321 345.734C503.321 345.734 504.167 346.755 504.731 346.057Z" fill="#141414"/>
<path d="M510.781 341.072C510.781 341.072 512.821 340.424 514.208 341.614" stroke="#141414" stroke-width="0.39" stroke-linecap="round" stroke-linejoin="round"/>
<path d="M505.336 341.726C505.336 341.726 503.938 341.473 502.49 342.863" stroke="#141414" stroke-width="0.39" stroke-linecap="round" stroke-linejoin="round"/>
<path d="M521.105 346.479C521.105 346.479 516.543 341.003 516.21 336.196C516.21 336.196 500.409 332.835 502.364 347.893C502.364 347.893 498.543 334.877 511.25 332.293C523.942 329.716 527.266 348.394 521.67 355.151C521.67 355.151 523.915 349.904 521.09 346.486L521.105 346.479Z" fill="#141414"/>
<path d="M507.448 331.117C507.448 331.117 501.075 331.067 499.744 333.057C498.413 335.047 513.243 343.422 519.879 343.057C519.879 343.057 523.708 349.605 522.781 353.297C522.781 353.297 529.352 349.104 527.101 338.109C524.851 327.114 512.412 325.74 507.433 331.124L507.448 331.117Z" fill="#141414"/>
<path d="M520.172 348.273C520.005 347.062 520.874 344.831 523.144 344.658C525.491 344.489 527.436 349.026 521.915 351.186C521.124 351.501 520.524 350.78 520.165 348.258L520.172 348.273Z" fill="#FFBEA1"/>
<path d="M519.838 332.755C519.838 332.755 520.835 325.791 527.65 324.656C534.465 323.522 537.969 333.736 536.275 342.314C534.581 350.893 537.565 352.825 537.565 352.825C537.565 352.825 533.698 353.261 532.059 346.315C532.059 346.315 532.251 348.67 532.886 350.809C532.886 350.809 529.551 347.879 530.35 340.593C531.155 333.323 524.256 338.202 524.256 338.202L519.844 332.77L519.838 332.755Z" fill="#141414"/>
<path d="M500.441 333.492C500.441 333.492 506.042 342.977 515.297 344.017" stroke="#141414" stroke-width="0.39" stroke-linecap="round" stroke-linejoin="round"/>
<path d="M514.033 352.851C514.033 352.851 512.753 355.079 510.225 355.552" stroke="#141414" stroke-width="0.39" stroke-linecap="round" stroke-linejoin="round"/>
<path d="M508.112 348.128C508.343 349.106 509.252 349.726 510.145 349.515C511.038 349.303 511.576 348.337 511.353 347.375C511.122 346.397 510.213 345.777 509.32 345.988C508.427 346.2 507.889 347.166 508.112 348.128Z" stroke="#141414" stroke-width="0.29" stroke-linecap="round" stroke-linejoin="round"/>
<path d="M502.313 349.201C502.543 350.179 503.453 350.799 504.346 350.588C505.239 350.376 505.777 349.41 505.553 348.448C505.33 347.485 504.414 346.85 503.521 347.061C502.628 347.273 502.089 348.239 502.313 349.201Z" stroke="#141414" stroke-width="0.29" stroke-linecap="round" stroke-linejoin="round"/>
<path d="M508.112 348.128C508.112 348.128 506.829 346.501 505.547 348.432" stroke="#141414" stroke-width="0.29" stroke-linecap="round" stroke-linejoin="round"/>
<path d="M511.346 347.359C511.346 347.359 520.375 344.923 521.458 344.72" stroke="#141414" stroke-width="0.29" stroke-linecap="round" stroke-linejoin="round"/>
<path d="M538.516 368.851C537.81 369.65 537.075 370.424 536.274 371.135C535.876 371.498 535.472 371.846 535.046 372.185C535.757 369.055 536.588 366.822 536.692 366.552L536.694 366.514C536.694 366.514 537.371 367.367 538.494 368.842L538.516 368.851Z" fill="#407BFF"/>
<path opacity="0.5" d="M538.516 368.851C537.81 369.65 537.075 370.424 536.274 371.135C535.876 371.498 535.472 371.846 535.046 372.185C535.757 369.055 536.588 366.822 536.692 366.552L536.694 366.514C536.694 366.514 537.371 367.367 538.494 368.842L538.516 368.851Z" fill="white"/>
<path d="M531.479 380.572C531.246 380.676 530.961 380.579 530.834 380.338C530.724 380.089 530.82 379.804 531.062 379.677C531.646 379.399 532.207 379.112 532.77 378.787C533.019 378.676 533.306 378.734 533.432 378.976C533.558 379.218 533.484 379.512 533.242 379.638C532.657 379.955 532.087 380.264 531.488 380.55L531.479 380.572ZM537.283 377.001C537.081 377.091 536.832 377.034 536.696 376.852C536.53 376.647 536.574 376.329 536.78 376.163C541.938 372.227 545.823 366.939 548.023 360.836C548.118 360.589 548.391 360.449 548.661 360.553C548.908 360.647 549.048 360.92 548.944 361.19C546.691 367.465 542.692 372.916 537.377 376.959C537.345 376.973 537.314 376.987 537.268 377.008L537.283 377.001ZM517.312 383.936C517.312 383.936 517.188 383.992 517.127 383.981C510.464 384.117 503.956 382.301 498.286 378.771C498.056 378.631 497.994 378.323 498.134 378.093C498.273 377.863 498.581 377.801 498.811 377.941C504.325 381.373 510.653 383.119 517.118 382.998C517.393 382.988 517.604 383.21 517.614 383.485C517.613 383.691 517.506 383.869 517.335 383.945L517.312 383.936ZM494.787 375.932C494.616 376.008 494.419 375.984 494.272 375.863C493.766 375.437 493.275 375.003 492.792 374.547C492.595 374.356 492.578 374.065 492.762 373.853C492.954 373.655 493.244 373.638 493.457 373.823C493.917 374.27 494.401 374.688 494.885 375.106C495.091 375.275 495.1 375.588 494.946 375.787C494.898 375.845 494.842 375.889 494.765 375.923L494.787 375.932ZM550.56 347.039C550.56 347.039 550.467 347.08 550.406 347.07C550.139 347.096 549.903 346.903 549.877 346.635C549.815 345.992 549.736 345.356 549.658 344.72C549.617 344.46 549.803 344.209 550.064 344.167C550.325 344.126 550.575 344.312 550.617 344.573C550.709 345.24 550.794 345.891 550.841 346.541C550.862 346.755 550.74 346.94 550.553 347.023L550.56 347.039ZM548.845 338.879C548.845 338.879 548.814 338.893 548.799 338.9C548.543 338.995 548.275 338.853 548.18 338.598C547.964 337.986 547.754 337.39 547.507 336.792C547.396 336.543 547.546 336.253 547.779 336.149C548.028 336.039 548.311 336.173 548.422 336.422C548.677 337.035 548.893 337.647 549.116 338.274C549.205 338.514 549.079 338.775 548.845 338.879ZM485.145 362.601L485.13 362.608C484.881 362.719 484.598 362.584 484.487 362.335C483.473 359.806 482.761 357.161 482.365 354.431C481.799 350.566 481.905 346.663 482.653 342.864C482.703 342.6 482.962 342.429 483.227 342.479C483.491 342.529 483.662 342.788 483.612 343.052C482.891 346.745 482.79 350.535 483.346 354.293C483.723 356.938 484.423 359.514 485.402 361.965C485.506 362.198 485.394 362.49 485.145 362.601ZM545.976 332.686C545.759 332.783 545.481 332.702 545.368 332.491C542.083 326.912 537.278 322.437 531.459 319.533C531.221 319.415 531.127 319.121 531.244 318.883C531.362 318.644 531.655 318.551 531.894 318.668C537.862 321.656 542.82 326.267 546.197 332.01C546.339 332.245 546.265 332.539 546.03 332.681C546.014 332.687 545.999 332.694 545.983 332.701L545.976 332.686ZM484.63 338.687C484.522 338.735 484.392 338.737 484.264 338.701C484.001 338.613 483.877 338.333 483.965 338.07C484.191 337.448 484.417 336.826 484.672 336.228C484.782 335.974 485.069 335.865 485.316 335.96C485.57 336.07 485.679 336.357 485.584 336.604C485.345 337.195 485.112 337.802 484.895 338.401C484.843 338.536 484.755 338.631 484.63 338.687ZM517.785 315.971C517.785 315.971 517.661 316.026 517.578 316.007C516.938 315.994 516.299 315.98 515.658 316.005C515.383 316.015 515.157 315.799 515.146 315.525C515.136 315.25 515.359 315.039 515.626 315.013C516.29 314.997 516.945 315.003 517.606 315.026C517.872 315.037 518.083 315.26 518.071 315.526C518.063 315.716 517.949 315.879 517.778 315.955L517.785 315.971ZM493.677 324.953C493.491 325.036 493.264 324.988 493.126 324.844C492.945 324.646 492.958 324.342 493.157 324.16C498.027 319.663 504.141 316.661 510.697 315.531C510.958 315.489 511.224 315.669 511.266 315.93C511.308 316.19 511.137 316.434 510.867 316.498C504.496 317.584 498.553 320.509 493.826 324.868C493.786 324.904 493.746 324.941 493.7 324.961L493.677 324.953Z" fill="white"/>
<path d="M210.415 53.259C210.114 62.2349 206.227 70.2687 200.176 75.9949C199.692 76.4701 199.179 76.9293 198.643 77.3574C197.795 78.0823 196.902 78.7452 195.973 79.3691C195.307 79.8245 194.611 80.2639 193.901 80.6573C188.779 83.6203 182.787 85.214 176.443 85.0023C176.276 84.9905 176.101 84.9937 175.942 84.9669C175.105 84.946 174.3 84.865 173.488 84.761C172.418 84.6353 171.365 84.4415 170.335 84.2026C168.745 83.8584 167.189 83.3779 165.704 82.8003C164.196 82.2297 162.752 81.5389 161.363 80.7429C160.268 80.1217 159.204 79.4404 158.195 78.692C157.387 78.1084 156.589 77.4718 155.836 76.8211C154.697 75.8106 153.636 74.7258 152.638 73.5589C147.46 67.5294 144.432 59.597 144.716 51.0165C145.332 32.8593 160.548 18.6678 178.688 19.2732C196.843 19.8866 211.054 35.0947 210.423 53.2439L210.415 53.259Z" fill="white"/>
<path d="M158.187 78.7069C157.38 78.1233 156.581 77.4867 155.829 76.8361C154.689 75.8255 153.628 74.7408 152.63 73.5739C154.834 71.2765 156.689 69.5641 157.83 68.976C157.854 68.9309 157.884 68.9469 157.884 68.9469L158.187 78.7069Z" fill="#141414"/>
<path opacity="0.3" d="M158.187 78.7069C157.38 78.1233 156.581 77.4867 155.829 76.8361C154.689 75.8255 153.628 74.7408 152.63 73.5739C154.834 71.2765 156.689 69.5641 157.83 68.976C157.854 68.9309 157.884 68.9469 157.884 68.9469L158.187 78.7069Z" fill="white"/>
<path d="M196.91 73.5837C196.801 74.5859 196.677 75.6181 196.513 76.6875C196.512 76.7256 196.518 76.7866 196.494 76.8317C196.365 77.7268 196.184 78.5749 195.973 79.3691C195.307 79.8245 194.611 80.2639 193.901 80.6572C188.779 83.6202 182.787 85.214 176.443 85.0022C176.276 84.9905 176.101 84.9937 175.942 84.9669C175.105 84.946 174.3 84.8649 173.488 84.7609C172.418 84.6352 171.365 84.4414 170.335 84.2025C168.745 83.8583 167.189 83.3779 165.704 82.8002C164.196 82.2297 162.752 81.5389 161.363 80.7429C160.251 77.4338 159.641 73.2542 159.378 68.8549C158.747 57.6477 160.444 44.9229 162.364 41.2024C163.195 39.6396 165.615 39.0757 168.826 39.1255C169.039 39.1232 169.253 39.1209 169.473 39.1416L169.792 39.1572C173.837 39.342 178.866 40.3584 183.398 41.4765C183.67 41.5442 183.943 41.6119 184.207 41.6947C185.107 41.9227 185.969 42.1498 186.808 42.3839C188.041 42.7116 189.175 43.0445 190.21 43.3444C191.26 43.6523 192.204 43.9423 192.983 44.1826C194.516 44.67 195.429 44.9822 195.429 44.9822C195.402 45.1414 195.367 45.3156 195.325 45.4668C194.79 49.1915 198.537 58.2381 196.887 73.5907L196.91 73.5837Z" fill="#141414"/>
<path d="M199.718 74.537C199.344 75.4945 198.993 76.4449 198.627 77.3494C197.78 78.0743 196.887 78.7372 195.958 79.3611C195.292 79.8165 194.596 80.2559 193.886 80.6493C188.764 83.6123 182.771 85.206 176.428 84.9943C176.261 84.9825 176.086 84.9857 175.927 84.9589C175.09 84.938 174.285 84.857 173.473 84.7529C172.403 84.6272 171.349 84.4334 170.32 84.1946C168.73 83.8503 167.174 83.3699 165.689 82.7923C164.181 82.2217 162.737 81.5309 161.348 80.7349C160.253 80.1137 159.189 79.4324 158.18 78.684C157.372 78.1004 156.574 77.4638 155.821 76.8131C155.86 76.4867 155.891 76.1753 155.943 75.895C156.721 70.0827 157.598 69.1225 157.83 68.9761C157.854 68.931 157.884 68.947 157.884 68.947C157.884 68.947 158.441 68.9152 159.37 68.8699C161.703 68.7607 166.381 68.5882 170.777 68.7285L171.591 68.7564C172.298 68.8045 173.005 68.8526 173.703 68.9158C176.947 69.1947 180.193 69.6489 183.406 70.2392C184.361 70.4001 185.293 70.6061 186.232 70.797C186.929 70.9362 187.617 71.0905 188.306 71.2447C191.221 71.8885 194.079 72.6755 196.902 73.5987C197.847 73.8888 198.782 74.2319 199.71 74.552L199.718 74.537Z" fill="#141414"/>
<path opacity="0.3" d="M199.718 74.537C199.344 75.4945 198.993 76.4449 198.627 77.3494C197.78 78.0743 196.887 78.7372 195.958 79.3611C195.292 79.8165 194.596 80.2559 193.886 80.6493C188.764 83.6123 182.771 85.206 176.428 84.9943C176.261 84.9825 176.086 84.9857 175.927 84.9589C175.09 84.938 174.285 84.857 173.473 84.7529C172.403 84.6272 171.349 84.4334 170.32 84.1946C168.73 83.8503 167.174 83.3699 165.689 82.7923C164.181 82.2217 162.737 81.5309 161.348 80.7349C160.253 80.1137 159.189 79.4324 158.18 78.684C157.372 78.1004 156.574 77.4638 155.821 76.8131C155.86 76.4867 155.891 76.1753 155.943 75.895C156.721 70.0827 157.598 69.1225 157.83 68.9761C157.854 68.931 157.884 68.947 157.884 68.947C157.884 68.947 158.441 68.9152 159.37 68.8699C161.703 68.7607 166.381 68.5882 170.777 68.7285L171.591 68.7564C172.298 68.8045 173.005 68.8526 173.703 68.9158C176.947 69.1947 180.193 69.6489 183.406 70.2392C184.361 70.4001 185.293 70.6061 186.232 70.797C186.929 70.9362 187.617 71.0905 188.306 71.2447C191.221 71.8885 194.079 72.6755 196.902 73.5987C197.847 73.8888 198.782 74.2319 199.71 74.552L199.718 74.537Z" fill="white"/>
<path d="M184.108 74.718L187.992 79.8093C187.992 79.8093 181.335 81.1656 175.919 84.9739C175.082 84.953 174.277 84.872 173.465 84.768C172.395 84.6423 171.342 84.4485 170.312 84.2096C168.722 83.8654 167.166 83.385 165.681 82.8073C164.346 80.787 162.969 78.9559 161.864 78.0984C161.864 78.0984 165.03 75.079 168.648 73.4944C168.648 73.4944 165.64 72.0109 162.103 71.3059C162.103 71.3059 166.33 69.6985 170.762 68.7205C171.88 68.4667 173.012 68.259 174.066 68.1254C175.318 67.9816 176.484 67.927 177.479 68.0128C178.983 68.1569 180.814 68.2636 182.737 68.7075C184.591 69.1344 186.529 69.8756 188.306 71.2447C189.493 72.1651 190.597 73.3879 191.562 74.9803L184.123 74.726L184.108 74.718Z" fill="white"/>
<path d="M184.696 71.9463C184.696 71.9463 184.664 72.0064 184.578 72.0956C184.508 72.1548 184.422 72.244 184.32 72.3632C184.312 72.3783 184.281 72.4003 184.242 72.4374C182.646 74.1334 177.177 80.034 173.48 84.776C172.41 84.6503 171.357 84.4565 170.327 84.2176C170.079 81.0596 170.096 76.4617 171.479 71.6847C171.614 71.178 171.787 70.6722 171.959 70.1665L184.711 71.9543L184.696 71.9463Z" fill="#407BFF"/>
<path d="M174.041 76.0729C182.152 75.3163 184.696 71.9463 184.696 71.9463C179.744 66.9426 184.274 58.7117 184.274 58.7117L174.501 60.2034C174.704 61.8149 174.754 63.1712 174.748 64.3055C174.615 70.2099 171.959 70.1664 171.959 70.1664C170.137 73.3032 174.064 76.0659 174.064 76.0659L174.041 76.0729Z" fill="#FFBEA1"/>
<path opacity="0.2" d="M174.501 60.2034C174.704 61.8149 174.754 63.1712 174.748 64.3055C181.311 64.5379 184.289 58.7197 184.289 58.7197L174.516 60.2114L174.501 60.2034Z" fill="black"/>
<path d="M180.789 33.2271C172.358 32.4836 169.244 36.7454 167.855 45.3744C166.107 56.1643 167.834 64.0794 178.587 62.7035C193.174 60.822 194.78 34.4597 180.789 33.2271Z" fill="#FFBEA1"/>
<path d="M173.343 45.3821C173.343 45.3821 171.981 47.4722 170.581 48.6553C170.581 48.6553 171.205 49.8738 172.73 49.7977L173.351 45.3671L173.343 45.3821Z" fill="#E99975"/>
<path d="M178.571 45.1549C178.493 45.8458 178.805 46.455 179.26 46.5045C179.716 46.5539 180.162 46.0397 180.241 45.3489C180.319 44.6581 180.007 44.0488 179.551 43.9994C179.096 43.9499 178.649 44.4641 178.571 45.1549Z" fill="#141414"/>
<path d="M179.733 44.0572L178.305 43.2983C178.305 43.2983 178.911 44.661 179.733 44.0572Z" fill="#141414"/>
<path d="M170.004 44.0502C169.926 44.741 170.238 45.3503 170.693 45.3997C171.149 45.4492 171.596 44.935 171.674 44.2442C171.752 43.5533 171.44 42.9441 170.985 42.8946C170.529 42.8452 170.082 43.3594 170.004 44.0502Z" fill="#141414"/>
<path d="M171.166 42.9525L169.739 42.1936C169.739 42.1936 170.344 43.5563 171.166 42.9525Z" fill="#141414"/>
<path d="M179.173 39.3459C179.173 39.3459 181.574 39.2535 182.719 40.9418" stroke="#141414" stroke-width="0.44" stroke-linecap="round" stroke-linejoin="round"/>
<path d="M173.083 38.44C173.083 38.44 171.639 37.7492 169.656 38.834" stroke="#141414" stroke-width="0.44" stroke-linecap="round" stroke-linejoin="round"/>
<path d="M173.656 53.239C174.055 54.2996 174.387 56.2493 174.387 56.2493C174.577 56.254 174.752 56.2508 174.927 56.2476C177.41 56.2182 178.542 55.3938 179.052 54.4701C179.324 53.9592 179.413 53.4285 179.424 53.0101C179.436 52.5155 179.339 52.1553 179.339 52.1553C178.033 52.9449 175.736 53.1692 174.493 53.2219C173.975 53.2546 173.656 53.239 173.656 53.239Z" fill="#141414"/>
<path d="M174.493 53.2219L174.738 54.1035C177.068 54.0703 178.713 53.7308 179.424 53.0101C179.436 52.5155 179.339 52.1553 179.339 52.1553C178.033 52.9449 175.736 53.1692 174.493 53.2219Z" fill="white"/>
<path d="M174.927 56.2475C177.41 56.2181 178.542 55.3937 179.052 54.4701C178.207 54.5022 177.198 54.6598 176.312 55.0564C175.635 55.3516 175.205 55.7976 174.927 56.2475Z" fill="#DE5753"/>
<path d="M188.739 48.2486C188.739 48.2486 185.42 40.9713 186.482 35.6762C186.482 35.6762 170.393 27.3719 168.051 44.245C168.051 44.245 167.747 29.0492 182.278 29.9907C196.771 30.9313 194.846 52.1315 186.81 57.7853C186.81 57.7853 190.78 52.7837 188.732 48.2256L188.739 48.2486Z" fill="#141414"/>
<path d="M187.206 49.9003C187.384 48.5497 188.984 46.3742 191.491 46.8784C194.074 47.3845 194.843 52.8623 188.232 53.5879C187.293 53.6863 186.838 52.7309 187.206 49.9003Z" fill="#FFBEA1"/>
<path d="M184.275 34.7531C184.275 34.7531 182.576 45.1255 188.514 54.7979C193.019 62.1276 187.347 68.2287 187.347 68.2287C187.347 68.2287 198.755 64.7147 194.38 48.5493C194.38 48.5493 200.17 34.4345 189.877 30.2338C189.877 30.2338 189.964 25.8661 180.511 26.3913C171.052 26.8935 163.189 34.7213 161.402 44.9696C159.614 55.218 164.589 66.8837 164.589 66.8837C164.589 66.8837 160.121 30.1986 184.268 34.7301L184.275 34.7531Z" fill="#141414"/>
<path d="M184.773 34.9407C184.037 37.2672 183.804 39.8803 183.824 42.4159C183.874 44.9676 184.213 47.5189 184.79 50.0228C185.351 52.5187 186.234 54.9541 187.379 57.259C188.563 59.5268 190 61.7172 191.966 63.4184C189.96 61.7924 188.423 59.6452 187.14 57.3825C185.903 55.1057 184.921 52.6754 184.253 50.1616C183.586 47.6478 183.148 45.0637 182.993 42.4561C182.899 39.8424 182.995 37.2335 183.723 34.5947L184.757 34.9707L184.773 34.9407Z" fill="#141414"/>
<path d="M200.161 75.9868C199.677 76.462 199.163 76.9211 198.627 77.3493C197.779 78.0742 196.887 78.7371 195.958 79.361C195.292 79.8164 194.596 80.2558 193.886 80.6492C194.601 79.1596 195.45 77.78 196.498 76.6795C197.412 75.7202 198.466 74.97 199.703 74.5289C199.703 74.5289 199.865 75.0582 200.146 75.9788L200.161 75.9868Z" fill="#141414"/>
<path opacity="0.3" d="M200.161 75.9868C199.677 76.462 199.163 76.9211 198.627 77.3493C197.779 78.0742 196.887 78.7371 195.958 79.361C195.292 79.8164 194.596 80.2558 193.886 80.6492C194.601 79.1596 195.45 77.78 196.498 76.6795C197.412 75.7202 198.466 74.97 199.703 74.5289C199.703 74.5289 199.865 75.0582 200.146 75.9788L200.161 75.9868Z" fill="white"/>
<path d="M159.427 86.3054C156.633 84.8196 154.007 82.9801 151.64 80.835C151.417 80.6391 151.395 80.2807 151.606 80.0652C151.802 79.8417 152.16 79.8202 152.376 80.0311C157.75 84.8931 164.444 88.1056 171.586 89.2433C171.89 89.2889 172.088 89.5679 172.043 89.8713C171.997 90.1747 171.718 90.3733 171.415 90.3276C167.207 89.6515 163.183 88.3025 159.427 86.3054ZM147.954 76.9668C147.954 76.9668 147.834 76.9029 147.79 76.8409C147.317 76.2809 146.859 75.6909 146.425 75.0939C146.249 74.8458 146.295 74.5044 146.543 74.3278C146.791 74.1513 147.133 74.1979 147.309 74.446C147.736 75.02 148.187 75.587 148.645 76.139C148.829 76.372 148.798 76.7214 148.58 76.9139C148.409 77.0543 148.164 77.0786 147.969 76.9748L147.954 76.9668ZM187.524 89.352C187.389 89.2801 187.293 89.1712 187.258 89.018C187.182 88.7268 187.342 88.4263 187.641 88.3348C188.338 88.1467 189.029 87.9355 189.697 87.6934C189.981 87.5939 190.305 87.7466 190.404 88.0308C190.504 88.315 190.351 88.6385 190.067 88.738C189.36 88.9792 188.662 89.2054 187.941 89.4005C187.803 89.4428 187.659 89.4239 187.539 89.36L187.524 89.352ZM139.968 60.3457C139.832 60.2738 139.729 60.1418 139.688 59.9657C139.078 56.9813 138.82 53.9144 138.912 50.841C139.068 46.4521 139.937 42.1724 141.516 38.116C141.629 37.8295 141.952 37.6929 142.224 37.7987C142.51 37.9124 142.647 38.2356 142.541 38.507C141.003 42.4503 140.16 46.6088 140.015 50.8686C139.91 53.8579 140.17 56.8487 140.752 59.741C140.805 60.0393 140.615 60.3239 140.332 60.3853C140.202 60.4125 140.081 60.3866 139.96 60.3227L139.968 60.3457ZM194.651 86.5685C194.56 86.5206 194.471 86.4346 194.428 86.3346C194.283 86.0645 194.397 85.74 194.667 85.5945C201.138 82.2693 206.472 77.2027 210.109 70.9061C210.253 70.6357 210.545 70.5212 210.852 70.7039C211.123 70.8477 211.205 71.2 211.054 71.4475C207.322 77.9244 201.823 83.1543 195.168 86.5738C195.006 86.6612 194.816 86.6564 194.666 86.5765L194.651 86.5685ZM144.135 33.8419C143.865 33.6981 143.774 33.3609 143.933 33.0984C144.3 32.4452 144.688 31.823 145.077 31.2008C145.251 30.9463 145.58 30.8708 145.834 31.0446C146.089 31.2185 146.164 31.5477 145.99 31.8022C145.595 32.4014 145.229 33.0166 144.87 33.6547C144.735 33.9102 144.397 34.0007 144.142 33.8649L144.135 33.8419ZM215.238 56.1125C215.043 56.0087 214.919 55.8076 214.947 55.5723C215.018 54.8585 215.052 54.1437 215.093 53.4138C215.1 53.1095 215.357 52.8799 215.662 52.8875C215.966 52.8951 216.196 53.1521 216.188 53.4564C216.162 54.1942 216.113 54.9391 216.048 55.676C216.026 55.9723 215.769 56.2019 215.457 56.1713C215.381 56.1694 215.313 56.1524 215.253 56.1205L215.238 56.1125ZM156.833 20.4706C156.758 20.4307 156.676 20.3678 156.625 20.2827C156.471 20.0277 156.533 19.6942 156.796 19.5257C163.094 15.511 170.393 13.417 177.874 13.482C178.179 13.4896 178.416 13.7316 178.409 14.0359C178.401 14.3403 178.159 14.5778 177.855 14.5702C170.587 14.5029 163.494 16.5335 157.375 20.4309C157.205 20.5332 156.992 20.5355 156.826 20.4476L156.833 20.4706ZM214.97 46.7949C214.82 46.715 214.709 46.56 214.683 46.3919C214.579 45.6813 214.437 44.9697 214.287 44.2731C214.234 43.9749 214.409 43.6824 214.707 43.6289C215.005 43.5754 215.298 43.7502 215.351 44.0485C215.508 44.768 215.642 45.4946 215.753 46.2283C215.806 46.5265 215.601 46.8031 215.288 46.8485C215.166 46.8607 215.06 46.8428 214.955 46.7869L214.97 46.7949ZM213.047 39.3926C212.927 39.3287 212.846 39.2277 212.796 39.1046C210.264 32.3037 205.868 26.4003 200.032 22.0445C199.786 21.8556 199.733 21.5193 199.922 21.2728C200.111 21.0263 200.447 20.9738 200.694 21.1627C206.694 25.6444 211.23 31.7188 213.833 38.7118C213.933 38.996 213.803 39.3125 213.519 39.412C213.373 39.4693 213.205 39.4575 213.07 39.3856L213.047 39.3926ZM183.082 14.9596C182.887 14.8558 182.755 14.6317 182.807 14.3894C182.853 14.086 183.132 13.8874 183.435 13.9331C184.171 14.0352 184.906 14.1754 185.633 14.3305C185.928 14.3912 186.119 14.6853 186.058 14.9807C185.997 15.2761 185.703 15.4667 185.408 15.406C184.711 15.2668 183.999 15.1196 183.278 15.0255C183.21 15.0085 183.157 14.9996 183.097 14.9676L183.082 14.9596Z" fill="white"/>
<path d="M130.949 283.035C135.527 296.27 134.351 310.089 128.737 321.785C127.993 323.354 127.168 324.892 126.246 326.372C125.979 326.779 125.716 327.225 125.42 327.65C125.287 327.854 125.153 328.058 125.029 328.276C123.247 330.915 121.219 333.386 118.937 335.675C117.915 336.735 116.852 337.7 115.729 338.663C113.757 340.357 111.648 341.895 109.385 343.249C108.865 343.574 108.331 343.908 107.785 344.189C105.153 345.693 102.339 346.97 99.372 348.001C98.0318 348.457 96.688 348.875 95.3424 349.194C94.666 349.396 94.0003 349.551 93.3312 349.669C90.0519 350.393 86.7601 350.744 83.4916 350.78C83.3257 350.803 83.1652 350.803 82.9956 350.789C82.0937 350.79 81.1918 350.792 80.2828 350.718C78.3726 350.647 76.4426 350.448 74.5631 350.138C72.6691 349.836 70.8022 349.417 68.9624 348.881C68.8776 348.874 68.7838 348.852 68.6864 348.793C68.0443 348.632 67.422 348.439 66.7997 348.246C65.7012 347.869 64.6172 347.483 63.5493 347.026C50.3621 341.72 39.4658 330.929 34.4443 316.407C25.2275 289.776 39.3459 260.705 65.9875 251.483C92.6291 242.261 121.709 256.399 130.926 283.03L130.949 283.035Z" fill="white"/>
<path d="M65.8943 343.233L68.7243 348.789C68.0822 348.629 67.4599 348.436 66.8376 348.242C65.7391 347.865 64.655 347.479 63.5872 347.022C64.5324 345.067 65.3315 343.745 65.8943 343.233Z" fill="#F4F7FF"/>
<path d="M114.657 333.674C115.132 334.882 115.483 336.087 115.646 337.31C115.703 337.756 115.747 338.21 115.743 338.654C113.771 340.348 111.663 341.886 109.399 343.24C108.88 343.565 108.346 343.899 107.799 344.18C105.167 345.684 102.354 346.961 99.3864 347.992C98.0462 348.448 96.7024 348.866 95.3568 349.185C94.6803 349.387 94.0148 349.542 93.3456 349.66C90.0663 350.384 86.7745 350.735 83.5061 350.771C83.2842 350.608 83.1002 350.442 82.9216 350.253C82.3012 349.677 81.7637 349.01 81.3073 348.312C79.9455 346.293 79.1717 343.867 78.8272 341.292C78.7876 341.036 78.7713 340.785 78.7461 340.52C78.7154 340.118 78.6938 339.73 78.6721 339.342C78.6559 339.252 78.6487 339.176 78.6559 339.092C78.5531 336.808 78.7678 334.486 79.2098 332.304C79.327 331.688 79.4677 331.079 79.6553 330.48C80.2253 328.277 81.0569 326.333 82.0165 324.85C82.0309 324.841 82.0453 324.832 82.0453 324.832C82.6388 323.92 83.3747 323.139 84.2207 322.47C87.5054 319.795 92.3539 318.852 96.1418 318.492C96.1707 318.474 96.1995 318.456 96.2464 318.467C96.6108 318.44 96.9806 318.39 97.3305 318.372C99.6303 318.199 101.356 318.264 101.764 318.21C101.764 318.21 102.924 319.071 104.562 320.536C105.063 320.985 105.615 321.483 106.189 322.048C107.24 323.056 108.368 324.218 109.444 325.492C110.595 326.82 111.719 328.265 112.693 329.824C113.46 331.05 114.154 332.322 114.677 333.641L114.657 333.674Z" fill="#141414"/>
<path d="M98.1373 277.631C98.1373 277.631 112.279 293.037 109.124 301.731C105.96 310.411 71.9479 328.132 63.5009 323.958C55.0775 319.789 54.571 291.91 54.571 291.91L98.1373 277.631Z" fill="#141414"/>
<path d="M122.882 321.309L125.058 328.258C123.276 330.897 121.248 333.368 118.966 335.657C117.944 336.717 116.881 337.682 115.757 338.645C113.786 340.339 111.677 341.877 109.414 343.231C108.894 343.556 108.36 343.89 107.814 344.171C105.182 345.675 102.368 346.952 99.4008 347.983C98.0606 348.439 96.7168 348.857 95.3712 349.176C94.6948 349.378 94.0292 349.533 93.36 349.65C90.0808 350.375 86.7889 350.726 83.5205 350.762C83.3546 350.785 83.194 350.785 83.0245 350.771C82.1226 350.772 81.2207 350.774 80.3116 350.7C78.4015 350.629 76.4714 350.43 74.5919 350.12C72.698 349.818 70.8311 349.399 68.9913 348.863C68.5927 346.203 68.461 343.616 68.5909 341.126C68.5909 341.126 69.0834 340.437 70.0664 339.281L70.1242 339.245C71.1361 338.071 72.6188 336.462 74.5651 334.664C75.788 333.539 77.222 332.301 78.8112 331.088C79.0817 330.878 79.3469 330.693 79.6319 330.474C79.8339 330.348 79.989 330.211 80.1965 330.061C80.5103 329.825 80.8476 329.594 81.194 329.378C82.2546 328.635 83.3621 327.903 84.5724 327.207C84.8899 327.008 85.2074 326.81 85.5429 326.64C87.4585 325.564 89.4949 324.552 91.6883 323.663C92.8355 323.187 93.9989 322.801 95.1479 322.425C96.8579 321.918 98.5552 321.52 100.26 321.197C100.897 321.06 101.528 320.946 102.163 320.871C102.57 320.817 103.007 320.745 103.424 320.705C103.793 320.655 104.134 320.622 104.504 320.572C105.034 320.521 105.527 320.475 106.043 320.433C109.077 320.183 111.905 320.182 114.342 320.325C119.434 320.574 122.83 321.322 122.83 321.322L122.882 321.309Z" fill="#141414"/>
<path d="M56.2772 298.108C56.2772 298.108 38.9146 269.905 68.2222 263.151C105.003 254.677 106.772 303.361 88.2613 306.78C69.7511 310.199 56.2772 298.108 56.2772 298.108Z" fill="#141414"/>
<path opacity="0.2" d="M109.425 325.524L108.548 339.277L108.337 342.76L107.247 342.237L95.274 336.273C94.814 341.477 95.0267 345.96 95.3712 349.176C94.6948 349.378 94.0292 349.533 93.36 349.65C89.1321 342.338 87.0903 337.915 87.0903 337.915L82.3788 346.398L81.3218 348.303L80.2341 350.287L80.0501 350.602L76.2858 337C76.9659 335.552 77.7595 334.253 78.6145 333.117C78.8111 332.854 79.0222 332.581 79.2278 332.332C79.5904 331.885 79.9619 331.452 80.366 331.039C80.6384 330.769 80.9108 330.498 81.2066 330.233C82.2167 329.281 83.2881 328.491 84.3992 327.796C84.8321 327.526 85.2741 327.27 85.7196 327.052C88.6309 325.513 91.7514 324.727 94.7456 324.382C96.167 324.216 97.5667 324.144 98.8979 324.155C100.319 324.15 101.658 324.237 102.9 324.363C103.602 324.426 104.284 324.522 104.919 324.607C105.455 324.694 105.943 324.77 106.409 324.84C108.315 325.194 109.457 325.544 109.457 325.544L109.425 325.524Z" fill="black"/>
<path d="M92.8604 343.36L93.6254 329.075L101.54 321.641C91.2554 318.796 91.0319 304.567 91.0319 304.567L79.2984 313.886C80.7702 315.856 81.8759 317.593 82.7146 319.096C86.993 326.938 83.4649 328.902 83.4649 328.902L87.3429 331.737L92.8983 343.357L92.8604 343.36Z" fill="#FFBEA1"/>
<path opacity="0.2" d="M79.2894 313.871C80.7612 315.841 81.8669 317.579 82.7056 319.081C88.2144 314.315 91.023 304.553 91.023 304.553L79.2894 313.871Z" fill="black"/>
<path d="M65.0095 274.129C53.2977 279.34 52.3271 287.292 56.8382 299.745C62.4855 315.301 70.5951 324.522 83.7951 314.788C101.739 301.569 84.4433 265.477 65.0095 274.129Z" fill="#FFBEA1"/>
<path d="M64.1291 295.711C64.1291 295.711 63.8621 299.49 62.879 302.091C62.879 302.091 64.5925 303.228 66.5587 302.039L64.1291 295.711Z" fill="#E99975"/>
<path d="M70.8662 291.561C71.272 292.532 72.1288 293.1 72.7835 292.831C73.4383 292.563 73.6331 291.558 73.2273 290.587C72.8215 289.617 71.9647 289.048 71.3099 289.317C70.6551 289.586 70.4603 290.59 70.8662 291.561Z" fill="#141414"/>
<path d="M71.5949 289.259L69.1382 289.309C69.1382 289.309 70.9401 290.652 71.5949 289.259Z" fill="#141414"/>
<path d="M58.707 296.41C59.1128 297.38 59.9696 297.948 60.6244 297.68C61.2791 297.411 61.4739 296.406 61.0681 295.436C60.6623 294.465 59.8055 293.897 59.1507 294.166C58.496 294.434 58.3011 295.439 58.707 296.41Z" fill="#141414"/>
<path d="M59.4267 294.093L56.97 294.144C56.97 294.144 58.7719 295.486 59.4267 294.093Z" fill="#141414"/>
<path d="M67.385 283.421C67.385 283.421 70.4767 281.53 73.2544 282.924" stroke="#141414" stroke-width="0.74" stroke-linecap="round" stroke-linejoin="round"/>
<path d="M58.6476 286.714C58.6476 286.714 56.2395 286.874 54.4033 289.747" stroke="#141414" stroke-width="0.74" stroke-linecap="round" stroke-linejoin="round"/>
<path d="M86.604 288.169C86.604 288.169 76.8385 280.986 74.3765 273.192C74.3765 273.192 46.9522 274.034 56.2917 298.099C56.2917 298.099 44.719 278.199 64.629 268.768C84.5102 259.355 97.5762 288.838 91.0771 302.231C91.0771 302.231 92.6663 292.669 86.604 288.169Z" fill="#141414"/>
<path d="M85.7886 291.488C85.0329 289.572 85.5488 285.517 89.2285 284.341C93.0416 283.123 98.0813 289.807 89.8506 295.612C88.6692 296.451 87.3795 295.511 85.7976 291.502L85.7886 291.488Z" fill="#FFBEA1"/>
<path d="M67.5777 307.202C68.9251 308.267 70.8551 310.553 70.8551 310.553C71.0859 310.408 71.3259 310.278 71.5621 310.111C74.7458 308.141 75.5828 306.173 75.5395 304.595C75.5179 303.726 75.2094 302.975 74.8866 302.394C74.533 301.732 74.1056 301.337 74.1056 301.337C73.0395 303.388 70.1932 305.447 68.6419 306.497C67.9962 306.941 67.5596 307.173 67.5596 307.173L67.5777 307.202Z" fill="#141414"/>
<path d="M68.651 306.511L69.652 307.471C72.6535 305.596 74.5258 303.904 74.8956 302.409C74.5421 301.747 74.1146 301.351 74.1146 301.351C73.0486 303.402 70.2022 305.462 68.651 306.511Z" fill="white"/>
<path d="M71.5712 310.125C74.7548 308.156 75.5918 306.188 75.5485 304.61C74.4843 305.315 73.2938 306.299 72.437 307.497C71.7822 308.408 71.5856 309.313 71.5712 310.125Z" fill="#DE5753"/>
<path d="M65.6571 274.908C65.6571 274.908 78.9578 292.084 90.9709 286.423C102.993 280.778 73.408 264.707 73.408 264.707C73.408 264.707 50.2892 266.048 45.206 280.905C40.1229 295.761 56.2827 298.085 56.2827 298.085C56.2827 298.085 48.8929 283.497 65.6481 274.894L65.6571 274.908Z" fill="#141414"/>
<path d="M65.1701 273.487C65.1701 273.487 69.5945 287.278 81.2468 287.623" stroke="#141414" stroke-width="0.51" stroke-linecap="round" stroke-linejoin="round"/>
<path d="M96.232 317.994L93.6254 329.075L105.168 339.102L104.825 321.214L96.232 317.994Z" fill="#141414"/>
<path d="M84.6302 323.96L87.3195 331.731L82.0596 344.089L80.1622 329.621L84.6302 323.96Z" fill="#141414"/>
<path d="M124.387 319.928L126.27 326.377C126.003 326.785 125.74 327.23 125.444 327.656C125.31 327.86 125.177 328.063 125.052 328.282C123.27 330.92 121.243 333.391 118.961 335.68C117.938 336.741 116.876 337.706 115.752 338.669C113.78 340.362 111.672 341.901 109.408 343.255C109.08 341.895 108.802 340.583 108.542 339.301C107.287 333.182 106.668 328.21 106.362 324.829C106.252 323.754 106.194 322.827 106.154 322.089C106.115 321.351 106.093 320.803 106.066 320.439C106.066 320.118 106.066 319.957 106.066 319.957L113.267 319.953C113.267 319.953 113.276 319.967 113.305 319.949L124.363 319.922L124.387 319.928Z" fill="#F4F7FF"/>
<path d="M78.8436 331.107C78.8436 331.107 78.7065 331.755 78.6001 333.126C78.5099 334.427 78.4846 336.409 78.6595 339.129C78.6433 339.2 78.6596 339.29 78.6758 339.38C78.6974 339.768 78.7191 340.156 78.7497 340.558C78.7894 340.814 78.8056 341.065 78.8309 341.33C79.0924 343.836 79.5144 346.823 80.2143 350.319C80.2197 350.456 80.2485 350.599 80.3008 350.747C78.3906 350.676 76.4606 350.477 74.5811 350.167C72.6872 349.865 70.8203 349.446 68.9805 348.91C68.9877 349.146 69.0237 349.365 69.0688 349.597L68.69 348.831C68.0479 348.67 67.4256 348.477 66.8033 348.284C66.3687 346.529 66.0548 344.838 65.86 343.274L70.0412 339.337L70.0989 339.301L73.9734 335.676L78.8003 331.134L78.8436 331.107Z" fill="#F4F7FF"/>
<path d="M82.031 324.841C81.6846 325.7 81.4537 326.807 81.3058 328.144C81.2661 328.53 81.221 328.94 81.2174 329.383C81.1813 329.647 81.1687 329.916 81.1741 330.213C81.037 333.751 81.3652 338.322 81.9441 343.198C81.9874 343.492 82.0307 343.786 82.065 344.065C82.1461 344.838 82.2652 345.606 82.3698 346.384C82.5447 347.659 82.7287 348.949 82.9271 350.23C82.9505 350.396 82.9776 350.599 83.0155 350.756C82.1136 350.758 81.2117 350.76 80.3026 350.685C78.3924 350.615 76.4624 350.416 74.5829 350.105L75.3243 347.374L69.7164 344.918C70.6616 341.679 72.2526 338.477 73.9897 335.606C74.1791 335.266 74.3631 334.951 74.5561 334.65C77.94 329.244 81.6233 325.216 81.9931 324.845C82.0075 324.836 82.0219 324.827 82.0219 324.827L82.031 324.841Z" fill="#141414"/>
<path opacity="0.7" d="M82.031 324.841C81.6846 325.7 81.4537 326.807 81.3058 328.144C81.2661 328.53 81.221 328.94 81.2174 329.383C81.1813 329.647 81.1687 329.916 81.1741 330.213C81.037 333.751 81.3652 338.322 81.9441 343.198C81.9874 343.492 82.0307 343.786 82.065 344.065C82.1461 344.838 82.2652 345.606 82.3698 346.384C82.5447 347.659 82.7287 348.949 82.9271 350.23C82.9505 350.396 82.9776 350.599 83.0155 350.756C82.1136 350.758 81.2117 350.76 80.3026 350.685C78.3924 350.615 76.4624 350.416 74.5829 350.105L75.3243 347.374L69.7164 344.918C70.6616 341.679 72.2526 338.477 73.9897 335.606C74.1791 335.266 74.3631 334.951 74.5561 334.65C77.94 329.244 81.6233 325.216 81.9931 324.845C82.0075 324.836 82.0219 324.827 82.0219 324.827L82.031 324.841Z" fill="white"/>
<path d="M114.666 333.688L118.966 335.657C117.944 336.717 116.881 337.682 115.757 338.645C113.786 340.339 111.677 341.877 109.414 343.231C108.894 343.556 108.36 343.89 107.814 344.171C107.621 343.509 107.446 342.876 107.247 342.237C106.425 339.38 105.712 336.634 105.079 334.079C104.156 330.322 103.418 326.99 102.882 324.334C102.615 322.976 102.381 321.798 102.21 320.882C102.17 320.625 102.134 320.407 102.074 320.184C101.865 318.95 101.744 318.242 101.744 318.242C106.136 318.047 110.251 318.947 113.281 319.944C113.281 319.944 113.29 319.958 113.319 319.94C113.683 320.074 114.044 320.169 114.394 320.312C116.806 321.153 118.279 321.938 118.279 321.938L112.673 329.856L111.131 332.044L114.657 333.673L114.666 333.688Z" fill="#141414"/>
<path opacity="0.7" d="M114.666 333.688L118.966 335.657C117.944 336.717 116.881 337.682 115.757 338.645C113.786 340.339 111.677 341.877 109.414 343.231C108.894 343.556 108.36 343.89 107.814 344.171C107.621 343.509 107.446 342.876 107.247 342.237C106.425 339.38 105.712 336.634 105.079 334.079C104.156 330.322 103.418 326.99 102.882 324.334C102.615 322.976 102.381 321.798 102.21 320.882C102.17 320.625 102.134 320.407 102.074 320.184C101.865 318.95 101.744 318.242 101.744 318.242C106.136 318.047 110.251 318.947 113.281 319.944C113.281 319.944 113.29 319.958 113.319 319.94C113.683 320.074 114.044 320.169 114.394 320.312C116.806 321.153 118.279 321.938 118.279 321.938L112.673 329.856L111.131 332.044L114.657 333.673L114.666 333.688Z" fill="white"/>
<path d="M128.752 321.776C128.007 323.345 127.183 324.883 126.261 326.362C125.994 326.77 125.731 327.216 125.435 327.641L124.363 319.922C125.776 320.224 127.235 320.857 128.737 321.785L128.752 321.776Z" fill="#F4F7FF"/>
<path d="M118.472 347.966C118.097 348.201 117.599 348.111 117.336 347.753C117.054 347.367 117.126 346.841 117.512 346.559C118.42 345.892 119.294 345.205 120.151 344.489C120.505 344.188 121.051 344.227 121.347 344.604C121.648 344.958 121.609 345.505 121.232 345.8C120.346 346.534 119.451 347.254 118.53 347.93C118.515 347.939 118.486 347.957 118.472 347.966ZM127.249 339.953C126.932 340.152 126.517 340.13 126.232 339.866C125.873 339.549 125.86 339.015 126.163 338.665C133.687 330.251 138.59 319.923 140.348 308.77C140.419 308.304 140.862 307.987 141.328 308.057C141.793 308.128 142.111 308.572 142.04 309.037C140.235 320.5 135.186 331.141 127.448 339.789C127.384 339.849 127.336 339.899 127.264 339.944L127.249 339.953ZM95.3747 358.365C95.2881 358.42 95.216 358.465 95.1023 358.475C83.7657 360.883 72.0178 359.936 61.1773 355.753C60.7336 355.589 60.5261 355.096 60.6903 354.652C60.8544 354.209 61.3469 354.001 61.7906 354.166C72.3371 358.232 83.7459 359.15 94.7596 356.803C95.216 356.699 95.6651 357 95.7697 357.456C95.8491 357.808 95.6777 358.176 95.3891 358.356L95.3747 358.365ZM54.2365 352.063C53.9767 352.225 53.6503 352.248 53.3671 352.084C52.3732 351.521 51.3847 350.935 50.4161 350.316C50.0175 350.063 49.9057 349.531 50.1582 349.132C50.4108 348.734 50.9429 348.622 51.3415 348.875C52.2776 349.474 53.2426 350.055 54.2185 350.589C54.6225 350.818 54.7722 351.347 54.5431 351.751C54.4637 351.88 54.3663 351.981 54.2509 352.054L54.2365 352.063ZM140.103 284.359C140.103 284.359 139.974 284.44 139.883 284.457C139.422 284.585 138.962 284.33 138.834 283.868C138.525 282.797 138.202 281.734 137.818 280.67C137.661 280.226 137.897 279.737 138.341 279.58C138.785 279.424 139.274 279.66 139.431 280.104C139.809 281.192 140.159 282.297 140.462 283.392C140.574 283.764 140.412 284.146 140.094 284.345L140.103 284.359ZM134.505 271C134.505 271 134.49 271.009 134.476 271.018C134.063 271.256 133.552 271.114 133.314 270.701C132.946 270.048 132.549 269.413 132.162 268.792C131.963 268.475 131.765 268.157 131.566 267.839C131.314 267.435 131.419 266.928 131.814 266.662C132.261 266.382 132.724 266.514 132.991 266.909C133.19 267.226 133.397 267.558 133.605 267.89C134.011 268.54 134.416 269.189 134.779 269.866C135.008 270.265 134.88 270.766 134.49 271.009L134.505 271ZM33.3871 332.44C32.9975 332.683 32.4672 332.573 32.2237 332.183L31.8539 331.592C29.464 327.767 27.4979 323.657 26.0099 319.349C23.7769 312.918 22.6659 306.227 22.7039 299.481C22.7129 299.013 23.0971 298.633 23.5553 298.628C24.0225 298.637 24.403 299.021 24.4084 299.479C24.3903 306.033 25.4599 312.529 27.6225 318.783C29.0672 322.958 30.9701 326.966 33.2879 330.676L33.6487 331.253C33.9012 331.657 33.7821 332.173 33.4015 332.431L33.3871 332.44ZM127.575 261.323C127.229 261.539 126.772 261.483 126.489 261.159C119.041 252.708 109.343 246.627 98.4787 243.562C98.0241 243.445 97.7644 242.965 97.8816 242.51C98.0079 242.07 98.4787 241.796 98.9332 241.914C110.135 245.069 120.102 251.323 127.764 260.021C128.08 260.365 128.04 260.912 127.687 261.213C127.643 261.24 127.6 261.267 127.571 261.285L127.575 261.323ZM24.6412 291.728C24.4681 291.836 24.2733 291.878 24.0712 291.843C23.6059 291.773 23.2974 291.343 23.3534 290.887C23.5193 289.74 23.7177 288.612 23.9631 287.496C24.0569 287.036 24.5096 286.733 24.9786 286.841C25.4385 286.935 25.7416 287.388 25.6333 287.857C25.4079 288.941 25.2004 290.054 25.0453 291.154C25.0092 291.418 24.8613 291.63 24.6593 291.757L24.6412 291.728ZM73.8682 242.003C73.7816 242.057 73.6716 242.106 73.558 242.117C72.4667 242.297 71.37 242.5 70.2625 242.751C69.8061 242.855 69.3426 242.563 69.2524 242.098C69.1478 241.641 69.44 241.178 69.9054 241.088C71.0363 240.843 72.1619 240.621 73.3001 240.452C73.76 240.385 74.1947 240.695 74.2849 241.161C74.3408 241.507 74.1748 241.851 73.9007 242.023L73.8682 242.003ZM35.5904 265.259C35.3018 265.44 34.9194 265.438 34.638 265.212C34.2592 264.927 34.1708 264.4 34.4558 264.022C41.3211 254.715 50.7566 247.595 61.6279 243.511C62.0716 243.354 62.5659 243.567 62.7228 244.011C62.8797 244.454 62.6578 244.934 62.2231 245.105C51.653 249.061 42.4971 255.987 35.8285 265.03C35.7599 265.113 35.6914 265.196 35.6048 265.25L35.5904 265.259Z" fill="white"/>
<defs>
<clipPath id="clip0_7108_346">
<path d="M75.0677 88.4509C74.1431 75.2284 84.1125 63.7599 97.3351 62.8352L256.945 51.6742C270.168 50.7496 281.636 60.719 282.561 73.9416L311.696 490.588L104.202 505.097L75.0677 88.4509Z" fill="white"/>
</clipPath>
</defs>
</svg>
