<svg width="26" height="26" viewBox="0 0 26 26" fill="none" xmlns="http://www.w3.org/2000/svg">
<g clip-path="url(#clip0_7114_136)">
<path d="M13.1947 18.2831C13.291 21.0428 15.6064 23.2019 18.3661 23.1056C21.1259 23.0092 23.2849 20.6938 23.1886 17.9341C23.0922 15.1744 20.7769 13.0153 18.0171 13.1117C15.2574 13.208 13.0983 15.5234 13.1947 18.2831ZM13.1947 18.2831C13.1554 17.158 13.491 16.1067 14.0893 15.2495L13.7753 6.25551M13.1947 18.2831C13.2235 19.108 13.4505 19.8791 13.8284 20.5525C13.0113 21.2931 11.084 21.8589 8.81955 21.938C5.78383 22.044 3.29165 21.2351 3.2531 20.1312L2.78196 6.63941M13.7753 6.25551C13.8138 7.35941 11.3841 8.34023 8.34841 8.44624C5.31269 8.55225 2.82051 7.7433 2.78196 6.63941M13.7753 6.25551C13.7367 5.15162 11.2445 4.34267 8.20881 4.44868C5.17309 4.55469 2.74341 5.53551 2.78196 6.63941M3.09605 15.6339C3.1346 16.7378 5.62679 17.5468 8.6625 17.4408C10.8502 17.3644 12.7231 16.8337 13.5844 16.13M13.9323 10.7528C13.9709 11.8567 11.5412 12.8375 8.50545 12.9435C5.46974 13.0495 2.97755 12.2406 2.939 11.1367" stroke="white" stroke-width="2" stroke-linecap="round" stroke-linejoin="round"/>
</g>
<defs>
<clipPath id="clip0_7114_136">
<rect width="24" height="24" fill="white" transform="translate(0.608643 1.71216) rotate(-2)"/>
</clipPath>
</defs>
</svg>
