<svg width="26" height="26" viewBox="0 0 26 26" fill="none" xmlns="http://www.w3.org/2000/svg">
<g clip-path="url(#clip0_7115_122)">
<path d="M2.47574 17.1475L2.48622 16.9977C2.5083 16.682 2.51933 16.5241 2.55424 16.372C2.58523 16.237 2.63017 16.1055 2.68833 15.9797C2.75385 15.8381 2.84175 15.7065 3.01756 15.4433L7.02405 9.44605M2.47574 17.1475C2.32164 19.3513 3.98321 21.2627 6.18697 21.4168C8.39073 21.5709 10.3022 19.9093 10.4563 17.7056M2.47574 17.1475L2.48969 16.948C2.50923 16.6687 2.51899 16.529 2.58082 16.4261C2.6352 16.3356 2.71684 16.2646 2.81404 16.2234C2.92453 16.1765 3.0642 16.1862 3.34355 16.2058L9.72796 16.6522C10.0073 16.6718 10.147 16.6815 10.2499 16.7433C10.3404 16.7977 10.4113 16.8794 10.4526 16.9766C10.4995 17.0871 10.4897 17.2267 10.4702 17.5061L10.4563 17.7056M7.02405 9.44605L10.1569 15.9426C10.2944 16.2276 10.3631 16.3702 10.4083 16.5196C10.4484 16.6522 10.4746 16.7886 10.4865 16.9267C10.4998 17.0822 10.4888 17.24 10.4667 17.5558L10.4563 17.7056M7.02405 9.44605L19.1343 8.288M14.586 15.9895L14.5965 15.8397C14.6186 15.5239 14.6296 15.3661 14.6645 15.214C14.6955 15.0789 14.7404 14.9475 14.7986 14.8217C14.8641 14.68 14.952 14.5485 15.1278 14.2853L19.1343 8.288M14.586 15.9895C14.4319 18.1932 16.0935 20.1047 18.2973 20.2588C20.501 20.4129 22.4124 18.7513 22.5665 16.5475M14.586 15.9895L14.6 15.79C14.6195 15.5106 14.6293 15.371 14.6911 15.2681C14.7455 15.1776 14.8271 15.1066 14.9243 15.0653C15.0348 15.0184 15.1745 15.0282 15.4538 15.0477L21.8382 15.4942C22.1176 15.5137 22.2573 15.5235 22.3602 15.5853C22.4507 15.6397 22.5216 15.7213 22.5629 15.8185C22.6098 15.929 22.6 16.0687 22.5805 16.348L22.5665 16.5475M19.1343 8.288L22.2672 14.7845C22.4046 15.0696 22.4734 15.2121 22.5185 15.3615C22.5586 15.4942 22.5848 15.6306 22.5967 15.7686C22.6101 15.9241 22.5991 16.082 22.577 16.3977L22.5665 16.5475M13.428 3.87921L13.0792 8.86703" stroke="white" stroke-width="2" stroke-linecap="round" stroke-linejoin="round"/>
</g>
<defs>
<clipPath id="clip0_7115_122">
<rect width="24" height="24" fill="white" transform="translate(1.66644 0.0493164) rotate(4)"/>
</clipPath>
</defs>
</svg>
