<svg width="526" height="344" viewBox="0 0 526 344" fill="none" xmlns="http://www.w3.org/2000/svg">
<g clip-path="url(#clip0_5289_3653)">
<path d="M228.427 173.817L230.763 176.71L8.68646 353.642L18.1407 365.351L19.4476 366.964L241.524 190.032L243.859 192.925L248.016 173.775L228.427 173.817Z" fill="#407BFF"/>
<path d="M228.427 173.817L230.763 176.71L8.68646 353.642L18.1407 365.351L19.4476 366.964L241.524 190.032L243.859 192.925L248.016 173.775L228.427 173.817Z" fill="white"/>
<path d="M441.535 285.903L447.083 292.773L343.851 376.171L366.277 403.942L369.364 407.752L472.581 324.355L478.129 331.225L488 285.806L441.535 285.903Z" fill="#407BFF"/>
<path d="M465.684 250.097L471.231 256.967L360 346L390.426 368.136L393.512 371.946L496.73 288.549L502.277 295.419L512.149 250L465.684 250.097Z" fill="white"/>
<path d="M230.749 90.9901L228.747 88.8763C228.204 88.3061 227.412 88.0558 226.647 88.1949L223.644 88.7651C222.671 88.9597 221.92 89.7524 221.795 90.7398L220.252 103.311L224.909 105.091C230.568 102.63 230.276 95.1481 230.276 95.1481L231.096 93.6601C231.569 92.784 231.43 91.6993 230.749 90.9762V90.9901Z" fill="#E99975"/>
<path d="M174.621 128.663C174.621 128.663 179.07 128.927 181.684 128.871C184.312 128.83 186.94 128.788 189.512 128.635C192.084 128.468 194.628 128.287 196.964 127.968C198.118 127.801 199.244 127.592 200.134 127.356C200.551 127.231 200.954 127.105 201.135 127.036C201.441 126.897 201.107 127.133 201.274 127.036C201.705 126.66 202.553 125.659 203.29 124.727C204.055 123.754 204.819 122.711 205.584 121.654C207.113 119.526 208.629 117.315 210.13 115.09L219.209 101.615L226.3 105.397C225.257 107.998 224.131 110.501 222.991 113.032C221.823 115.535 220.627 118.038 219.39 120.528C218.138 123.017 216.832 125.492 215.427 127.968C214.718 129.205 213.981 130.443 213.161 131.708C212.313 133.002 211.548 134.212 210.075 135.811C209.282 136.687 207.836 137.758 206.905 138.217C205.876 138.773 205 139.121 204.124 139.454C202.414 140.066 200.871 140.456 199.341 140.803C196.31 141.485 193.419 141.874 190.541 142.152C184.785 142.722 179.251 142.945 173.481 142.806L174.58 128.663H174.621Z" fill="#407BFF"/>
<path opacity="0.7" d="M226.314 105.397C225.271 107.984 224.145 110.487 223.019 113.018C221.837 115.521 220.641 118.024 219.404 120.528C218.152 123.003 216.859 125.478 215.441 127.954C214.732 129.191 213.995 130.429 213.175 131.694C212.341 132.988 211.562 134.198 210.102 135.797C209.31 136.673 207.864 137.73 206.933 138.189C205.904 138.759 205.028 139.107 204.152 139.44C202.442 140.052 200.899 140.442 199.383 140.775C196.352 141.457 193.46 141.86 190.582 142.138C189.345 142.263 188.121 142.361 186.912 142.458C182.449 142.778 178.056 142.889 173.523 142.792L173.746 139.871L174.621 128.649C174.621 128.649 179.07 128.927 181.684 128.858C184.326 128.816 186.94 128.774 189.526 128.621C192.084 128.468 194.642 128.287 196.978 127.954C198.132 127.801 199.258 127.592 200.148 127.342C200.565 127.23 200.968 127.105 201.149 127.022C201.455 126.883 201.121 127.133 201.288 127.036C201.719 126.66 202.567 125.659 203.304 124.727C204.068 123.754 204.833 122.711 205.584 121.654C207.113 119.526 208.629 117.315 210.144 115.09L219.223 101.615L226.314 105.397Z" fill="white"/>
<path opacity="0.1" d="M186.912 142.458C182.449 142.778 178.056 142.889 173.523 142.792L173.746 139.871L174.83 137.313C174.83 137.313 182.115 137.215 186.912 142.458Z" fill="black"/>
<path d="M171.146 214.535C171.146 214.535 170.506 216.204 169.38 219.097C168.17 222.226 166.391 226.787 164.25 232.21C162.818 235.826 161.233 239.831 159.522 244.045C151.667 263.57 141.518 287.725 134.803 299.921C121.942 323.256 88.4353 367.576 88.4353 367.576L75.0465 362.681C75.0465 362.681 99.1547 317.04 111.32 293.913C115.032 286.863 119.3 276.489 123.527 265.169C125.543 259.787 127.545 254.183 129.478 248.634C130.354 246.131 131.216 243.628 132.05 241.166C134.26 234.658 136.332 228.386 138.153 222.796C138.376 222.1 138.598 221.405 138.821 220.738C139.557 218.443 140.253 216.274 140.878 214.271C143.492 206.038 145.119 200.615 145.174 200.406H145.188L157.131 206.914L171.146 214.535Z" fill="#141414"/>
<path opacity="0.3" d="M169.38 219.097C168.17 222.226 166.391 226.787 164.25 232.21C162.818 235.826 161.233 239.831 159.523 244.045C148.595 246.242 137.472 247.73 129.478 248.634C130.354 246.131 131.216 243.628 132.05 241.166C134.26 234.658 136.332 228.386 138.153 222.796C138.376 222.1 138.598 221.405 138.821 220.738C139.557 218.443 140.253 216.274 140.878 214.271C148.914 215.37 159.662 217.011 169.38 219.097Z" fill="black"/>
<path d="M128.365 136.061C128.365 136.061 128.365 136.075 128.365 136.089C130.298 142.555 131.424 150.079 132.05 157.491C132.536 163.262 132.717 168.936 132.745 174.026C132.759 179.157 132.606 183.705 132.439 187.181C132.217 191.645 131.952 194.399 131.952 194.399L174.19 196.568C186.87 150.621 174.608 128.649 174.608 128.649C174.608 128.649 169.338 128.12 163.276 128.385C162.498 128.412 161.705 128.468 160.885 128.538C155.713 128.969 147.482 130.596 141.991 131.847C140.864 132.098 139.724 132.39 138.612 132.696C133.092 134.197 128.338 136.061 128.338 136.061H128.365Z" fill="#407BFF"/>
<path opacity="0.7" d="M174.204 196.568L131.966 194.398C131.966 194.398 132.23 191.645 132.453 187.167C132.508 185.86 132.564 184.372 132.62 182.759C132.703 180.158 132.759 177.21 132.759 174.025C132.759 172.482 132.717 170.883 132.675 169.242C132.675 168.977 132.661 168.713 132.661 168.449C132.592 165.848 132.467 163.151 132.286 160.411C132.202 159.438 132.133 158.464 132.05 157.491C131.994 156.726 131.924 155.947 131.855 155.182C131.646 153.235 131.424 151.288 131.146 149.369C131.076 148.841 130.993 148.312 130.909 147.798C130.784 146.922 130.645 146.073 130.492 145.211C129.922 142.041 129.227 138.953 128.379 136.075C128.379 136.075 128.365 136.061 128.351 136.061C128.351 136.061 133.12 134.197 138.64 132.681C139.738 132.389 140.878 132.097 142.004 131.847C147.51 130.609 155.741 128.968 160.899 128.537C161.719 128.482 162.511 128.412 163.304 128.398C169.352 128.12 174.621 128.649 174.621 128.649C174.621 128.649 186.884 150.607 174.204 196.568Z" fill="white"/>
<path d="M200.328 306.527C200.328 306.527 188.26 297.154 189.359 291.397C189.47 290.827 189.164 290.312 188.566 290.187L178.014 287.962C177.527 287.864 176.971 288.059 176.651 288.449L169.853 296.904L172.619 298.086L174.204 297.112L174.816 299.031C189.845 305.47 196.408 308.084 199.772 308.432C200.773 307.292 200.328 306.541 200.328 306.541V306.527Z" fill="black"/>
<path d="M152.168 232.475C152.807 232.502 153.155 232.502 153.155 232.502L203.79 239.873L174.969 287.711L189.401 293.204C189.401 293.204 241.593 236.911 229.942 224.075C220.349 213.52 173.356 207.095 173.356 207.095L174.899 196.081L131.438 187.529C112.863 228.219 145.953 232.099 152.168 232.488V232.475Z" fill="#141414"/>
<path d="M130.924 191.84L129.992 191.659L130.84 188.725L131.66 188.892L130.924 191.84Z" fill="#141414"/>
<path d="M165.112 198.459L146.551 194.858L147.274 191.923L165.751 195.497L165.112 198.459Z" fill="#141414"/>
<path d="M167.183 195.776L175.039 197.306L174.51 200.282L166.571 198.738L167.183 195.776Z" fill="#141414"/>
<path d="M133.092 189.17L145.856 191.645L145.091 194.58L132.383 192.118L133.092 189.17Z" fill="#141414"/>
<g opacity="0.2">
<path d="M130.924 191.84L129.992 191.659L130.84 188.725L131.66 188.892L130.924 191.84Z" fill="white"/>
<path d="M165.112 198.459L146.551 194.858L147.274 191.923L165.751 195.497L165.112 198.459Z" fill="white"/>
<path d="M167.183 195.776L175.039 197.306L174.51 200.282L166.571 198.738L167.183 195.776Z" fill="white"/>
<path d="M133.092 189.17L145.856 191.645L145.091 194.58L132.383 192.118L133.092 189.17Z" fill="white"/>
</g>
<path d="M159.954 194.955L159.536 196.749C159.467 197.041 159.189 197.222 158.897 197.166L154.253 196.346C153.933 196.29 153.739 195.984 153.808 195.664L154.281 193.801C154.351 193.523 154.629 193.342 154.921 193.398L159.523 194.288C159.828 194.343 160.023 194.649 159.954 194.955Z" stroke="white" stroke-width="0.59" stroke-miterlimit="10"/>
<path d="M156.102 195.108L154.684 194.858" stroke="white" stroke-width="0.59" stroke-linecap="round" stroke-linejoin="round"/>
<path d="M146.398 112.684L157.437 121.835C156.353 126.312 158.229 130.443 160.412 131.208C160.412 131.208 162.025 135.046 158.925 135.699C152.64 137.007 145.466 130.915 145.466 130.915C148.789 127.342 147.594 118.414 146.412 112.698L146.398 112.684Z" fill="#FFBEA1"/>
<path opacity="0.2" d="M150.889 116.411L157.423 121.821C157.159 122.878 156.964 123.948 156.895 124.991C154.448 124.685 151.069 122.057 150.777 119.512C150.638 118.233 150.68 117.009 150.889 116.411Z" fill="black"/>
<path d="M156.13 94.6058C158.799 96.2746 162.414 101.295 157.924 102.491C153.433 103.701 151.528 91.7411 156.13 94.6058Z" fill="#141414"/>
<path d="M142.352 111.753C147.023 117.913 149.443 121.751 154.865 122.864C163.026 124.519 168.949 116.217 166.21 108.763C163.735 102.06 156.519 93.1179 148.567 94.8145C140.725 96.4832 137.694 105.606 142.352 111.766V111.753Z" fill="#FFBEA1"/>
<path d="M143.728 105.049L138.125 98.4995C138.125 98.4995 130.715 103.951 134.08 107.247C131.855 112.462 140.67 119.749 148.372 118.247C149.262 113.546 142.408 105.494 142.408 105.494C142.825 105.369 143.27 105.202 143.728 105.036V105.049Z" fill="#141414"/>
<path d="M143.436 118.761C145.049 120.069 147.121 120.514 148.817 120.291C151.361 119.971 151.667 117.426 150.138 115.521C148.761 113.811 145.772 111.919 143.617 113.199C141.49 114.464 141.601 117.259 143.45 118.761H143.436Z" fill="#FFBEA1"/>
<path d="M153.238 106.955C153.586 107.483 154.142 107.72 154.49 107.483C154.823 107.247 154.823 106.635 154.476 106.121C154.128 105.592 153.572 105.356 153.224 105.592C152.891 105.829 152.891 106.44 153.238 106.955Z" fill="#141414"/>
<path d="M159.119 102.964C159.467 103.492 160.023 103.729 160.371 103.492C160.704 103.256 160.704 102.644 160.357 102.129C160.009 101.601 159.453 101.365 159.105 101.601C158.772 101.837 158.772 102.449 159.119 102.964Z" fill="#141414"/>
<path d="M157.423 104.493C157.423 104.493 160.565 106.579 162.818 107.094C162.456 108.526 160.621 109.194 160.621 109.194L157.409 104.493H157.423Z" fill="#E99975"/>
<path d="M159.634 114.756C159.884 114.715 160.162 114.645 160.426 114.562C160.523 114.534 160.579 114.423 160.551 114.325C160.524 114.228 160.412 114.172 160.315 114.2C157.673 115.021 155.894 113.56 155.88 113.546C155.796 113.477 155.685 113.491 155.616 113.574C155.546 113.658 155.56 113.769 155.643 113.839C155.713 113.894 157.256 115.16 159.634 114.742V114.756Z" fill="#141414"/>
<path d="M149.22 105.244C149.345 105.244 149.484 105.189 149.554 105.078C150.444 103.687 151.806 103.645 151.82 103.645C152.029 103.645 152.195 103.478 152.182 103.27C152.168 103.061 152.015 102.908 151.806 102.908C151.737 102.908 150.027 102.95 148.914 104.674C148.803 104.841 148.859 105.078 149.026 105.189C149.081 105.231 149.137 105.244 149.206 105.244H149.22Z" fill="#141414"/>
<path d="M159.189 98.2078C159.189 98.2078 159.217 98.0687 159.189 97.9992C159.133 97.8045 158.925 97.6793 158.73 97.735C156.77 98.2773 156.255 99.9044 156.227 99.9739C156.172 100.169 156.269 100.377 156.464 100.433C156.658 100.488 156.867 100.391 156.923 100.196C156.936 100.127 157.354 98.8892 158.925 98.4442C159.05 98.4164 159.133 98.319 159.175 98.2078H159.189Z" fill="#141414"/>
<path d="M142.408 105.522C142.408 105.522 157.089 99.348 157.979 92.3113C158.883 85.2746 152.682 88.1532 152.682 88.1532C152.682 88.1532 155.546 87.9585 155.268 90.0445C155.268 90.0445 150.305 86.6653 145.591 89.5717C145.591 89.5717 147.802 89.53 148.956 91.1709C148.956 91.1709 144.465 92.0471 139.432 95.774C134.399 99.5009 125.362 112.865 142.394 105.522H142.408Z" fill="#141414"/>
<path opacity="0.3" d="M173.356 207.095L149.429 204.342C149.429 204.342 158.897 202.784 173.885 203.341L173.356 207.095Z" fill="black"/>
<path opacity="0.1" d="M132.286 160.411C132.203 159.438 132.133 158.464 132.05 157.491C131.994 156.726 131.925 155.947 131.855 155.182C131.647 153.236 131.424 151.289 131.146 149.37C131.077 148.841 130.993 148.313 130.91 147.798C131.549 147.284 132.258 146.811 133.009 146.394C133.009 146.394 134.372 153.416 132.286 160.411Z" fill="black"/>
<path d="M92.4116 194.58L88.2546 204.342L97.25 206.567C97.25 206.567 101.115 200.156 97.3473 195.261L92.4116 194.58Z" fill="#FFBEA1"/>
<path d="M88.908 211.865L96.0126 211.921L97.2639 206.567L88.2546 204.342L88.908 211.865Z" fill="#FFBEA1"/>
<path d="M132.898 142.82C133.51 148.939 131.424 151.428 131.424 151.428C131.424 151.428 125.501 155.155 122.929 157.06C120.746 158.701 118.605 160.384 116.575 162.052C115.574 162.901 114.601 163.749 113.711 164.597C112.835 165.432 112.015 166.308 111.487 166.975C111.25 167.24 111.014 167.685 110.778 168.074C110.528 168.477 110.263 169.089 109.985 169.59C109.443 170.716 108.901 171.898 108.386 173.15C107.358 175.639 106.384 178.226 105.467 180.854C103.534 186.083 101.755 191.479 99.9055 196.777L91.6887 194.83C92.5229 189.059 93.649 183.441 94.9559 177.739C95.6372 174.902 96.4019 172.065 97.2778 169.186C97.7088 167.74 98.2093 166.28 98.7654 164.778C99.0991 163.985 99.3632 163.276 99.7803 162.428C100.225 161.566 100.628 160.731 101.226 159.841C102.339 158.173 103.423 156.921 104.535 155.711C105.634 154.515 106.732 153.417 107.844 152.346C110.055 150.218 112.321 148.285 114.629 146.422C119.231 142.681 123.847 139.26 128.796 135.964C128.796 135.964 132.356 137.299 132.912 142.848L132.898 142.82Z" fill="#407BFF"/>
<path opacity="0.7" d="M132.898 142.82C133.51 148.939 131.424 151.428 131.424 151.428C131.424 151.428 125.501 155.155 122.929 157.06C120.746 158.701 118.605 160.384 116.575 162.052C115.574 162.901 114.601 163.749 113.711 164.597C112.835 165.432 112.015 166.308 111.487 166.975C111.25 167.24 111.014 167.685 110.778 168.074C110.528 168.477 110.263 169.089 109.985 169.59C109.443 170.716 108.901 171.898 108.386 173.15C107.358 175.639 106.384 178.226 105.467 180.854C103.534 186.083 101.755 191.479 99.9055 196.777L91.6887 194.83C92.5229 189.059 93.649 183.441 94.9559 177.739C95.6372 174.902 96.4019 172.065 97.2778 169.186C97.7088 167.74 98.2093 166.28 98.7654 164.778C99.0991 163.985 99.3632 163.276 99.7803 162.428C100.225 161.566 100.628 160.731 101.226 159.841C102.339 158.173 103.423 156.921 104.535 155.711C105.634 154.515 106.732 153.417 107.844 152.346C110.055 150.218 112.321 148.285 114.629 146.422C119.231 142.681 123.847 139.26 128.796 135.964C128.796 135.964 132.356 137.299 132.912 142.848L132.898 142.82Z" fill="white"/>
<path d="M151.57 134.615L154.656 139.468C154.656 139.468 143.881 152.54 123.249 156.851L121.873 161.051L126.252 162.205C126.252 162.205 148.525 156.434 157.423 139.719L162.011 134.601L156.603 132.779L151.556 134.615H151.57Z" fill="white"/>
<path d="M141.573 131.68L146.592 127.286L156.603 132.779L157.757 126.771L163.054 129.817L164.555 137.591L157.187 134.392L150.583 140.275L141.573 131.68Z" fill="#407BFF"/>
<path opacity="0.6" d="M141.573 131.68L146.592 127.286L156.603 132.779L157.757 126.771L163.054 129.817L164.555 137.591L157.187 134.392L150.583 140.275L141.573 131.68Z" fill="white"/>
<path d="M279.479 44.7095C279.479 44.7095 270.137 56.3075 260.641 55.3479C251.159 54.3884 246.306 58.2405 246.306 58.2405L245.375 62.8713L250.463 62.1899C250.463 62.1899 250.463 58.5186 260.363 58.9358C270.262 59.353 277.686 50.8283 280.578 46.9762L279.479 44.7234V44.7095Z" fill="white"/>
<path d="M346.632 25.4349L346.437 24.5171C346.34 24.1555 346.396 24.1138 346.048 23.2099C345.506 21.8053 344.588 20.6372 343.782 19.914C342.113 18.4121 340.723 17.8837 339.527 17.4109C337.15 16.5626 335.259 16.2984 333.382 16.0759C331.519 15.8673 329.767 15.7699 328.03 15.7282C324.568 15.6308 321.231 15.7977 317.922 16.0063C311.29 16.4513 304.908 17.2301 298.36 18.3565L300.751 32.0544C306.744 31.0949 313 30.2188 319.048 29.593C322.079 29.287 325.11 29.0923 328.002 29.0089C329.448 28.9672 330.866 28.9811 332.187 29.0645C333.104 29.1201 334.022 29.2175 334.703 29.3426C334.745 29.8155 334.759 30.33 334.745 30.8724C334.661 33.2365 334.064 36.0039 333.257 38.7573C331.63 44.2921 329.058 50.0494 326.417 55.4312L333.021 59.8257C337.233 54.4995 340.709 48.9508 343.573 42.5816C344.95 39.3692 346.159 35.976 346.715 31.9988C346.98 30.0102 347.077 27.8268 346.646 25.421L346.632 25.4349Z" fill="#407BFF"/>
<path opacity="0.7" d="M346.702 31.999C346.257 35.2809 345.339 38.1735 344.268 40.8853C344.046 41.4554 343.81 42.0256 343.573 42.5819C340.695 48.951 337.22 54.4858 333.007 59.812L326.417 55.4175C329.058 50.0357 331.617 44.2924 333.257 38.7437C333.813 36.8385 334.272 34.9194 334.522 33.1393C334.647 32.3467 334.717 31.5818 334.745 30.8587C334.759 30.3163 334.745 29.8018 334.703 29.329C334.022 29.2038 333.104 29.1065 332.187 29.0508C330.866 28.9674 329.448 28.9674 328.002 28.9952C327.89 28.9952 327.793 29.0091 327.682 29.0091C324.873 29.1065 321.968 29.3012 319.034 29.5932C313.167 30.2051 307.133 31.0395 301.308 31.9712C301.113 31.999 300.932 32.0268 300.751 32.0546L298.36 18.3428C304.922 17.2164 311.29 16.4377 317.922 15.9926C321.231 15.784 324.568 15.6172 328.03 15.7145C329.767 15.7562 331.519 15.8536 333.382 16.0622C335.259 16.2986 337.15 16.5628 339.527 17.3972C340.723 17.87 342.1 18.3985 343.782 19.9004C344.588 20.6235 345.506 21.7917 346.048 23.1962C346.382 24.1001 346.34 24.1418 346.437 24.5034L346.632 25.4212C347.063 27.8271 346.966 29.9965 346.702 31.999Z" fill="white"/>
<path opacity="0.1" d="M327.682 29.0092C324.873 29.1066 321.968 29.3013 319.034 29.5933C313.167 30.2052 307.133 31.0396 301.307 31.9713C303.435 26.7425 305.618 21.458 305.618 21.458C305.618 21.458 315.35 22.3897 327.682 29.0092Z" fill="black"/>
<path opacity="0.1" d="M344.268 40.8851C344.046 41.4552 343.81 42.0254 343.573 42.5817C340.695 48.9508 337.22 54.4856 333.007 59.8118L326.417 55.4174C329.058 50.0355 331.617 44.2922 333.257 38.7435C333.813 36.8383 334.272 34.9192 334.522 33.1392C337.734 35.2947 341.015 37.8535 344.268 40.8851Z" fill="black"/>
<path d="M255.413 28.1885C255.788 28.6752 255.844 29.2593 255.538 29.5096C255.218 29.7599 254.662 29.5652 254.287 29.0924C253.911 28.6057 253.856 28.0216 254.162 27.7713C254.481 27.5209 255.038 27.7156 255.413 28.1885Z" fill="#141414"/>
<path d="M255.886 29.2173C255.886 29.2173 256.984 32.8608 256.831 35.1414C258.305 35.2666 259.473 33.7647 259.473 33.7647L255.886 29.2173Z" fill="#E99975"/>
<path d="M255.065 24.1278C255.065 24.1278 255.149 23.9748 255.149 23.8774C255.149 23.6828 254.968 23.5298 254.773 23.5298C252.785 23.6132 251.923 25.0317 251.895 25.1012C251.798 25.2681 251.854 25.4906 252.021 25.5879C252.187 25.6853 252.41 25.6297 252.507 25.4628C252.507 25.4628 253.216 24.3225 254.801 24.239C254.899 24.239 254.996 24.1834 255.065 24.1139V24.1278Z" fill="#141414"/>
<path d="M269.261 20.7483C273.849 24.058 282.649 29.3008 287.641 27.3121C287.641 27.3121 292.131 31.053 287.821 40.426C283.08 50.7446 280.439 42.9987 280.439 42.9987C281.676 36.7547 277.436 34.9746 273.07 34.1541L269.274 20.7344L269.261 20.7483Z" fill="#FFBEA1"/>
<path d="M270.637 14.4904C274.933 20.6788 277.769 24.0859 277.185 29.4677C276.296 37.5752 266.883 40.6207 260.821 35.8369C255.357 31.5398 249.24 22.1251 253.175 15.2135C257.04 8.39936 266.355 8.28811 270.651 14.4765L270.637 14.4904Z" fill="#FFBEA1"/>
<path d="M277.547 24.7118C276.907 28.2162 265.09 33.0139 259.737 25.4488C259.737 25.4488 253.008 25.3932 248.976 21.3464C244.93 17.2857 245.806 12.8913 249.421 10.4993C252.618 8.38555 260.877 -7.13409 270.498 3.94938C280.939 3.51828 278.367 20.3312 277.561 24.7118H277.547Z" fill="#141414"/>
<path d="M257.61 8.8306C257.61 8.8306 251.409 8.52466 247.836 11.3755C244.263 14.2124 245.264 22.9318 246.64 24.5866C248.016 26.2415 249.476 26.2276 249.476 26.2276C249.476 26.2276 247.363 25.129 247.363 23.5298C247.363 23.5298 248.281 25.6853 252.493 26.2276C252.493 26.2276 251.298 25.2681 251.478 24.0443C251.478 24.0443 253.759 27.0064 259.042 24.0443C264.325 21.0822 257.596 8.8306 257.596 8.8306H257.61Z" fill="#141414"/>
<path d="M262.879 24.1557C264.019 25.7689 264.464 27.7853 264.367 29.4263C264.214 31.8877 262.156 32.0824 260.543 30.5249C259.083 29.1342 257.415 26.1722 258.36 24.114C259.292 22.0976 261.586 22.3062 262.879 24.1557Z" fill="#FFBEA1"/>
<path d="M275.225 44.7091C275.225 44.7091 274.071 30.7053 283.206 22.8481L294.092 23.8494C294.092 23.8494 287.821 39.1605 275.225 44.7091Z" fill="#407BFF"/>
<path opacity="0.6" d="M275.225 44.7091C275.225 44.7091 274.071 30.7053 283.206 22.8481L294.092 23.8494C294.092 23.8494 287.821 39.1605 275.225 44.7091Z" fill="white"/>
<path d="M306.605 76.1936C306.605 76.1936 290.143 60.0342 271.944 48.7144C271.944 48.7144 284.068 20.2478 299.417 17.7168C299.417 17.7168 339.083 29.7042 350.594 62.1758L306.605 76.1936Z" fill="#407BFF"/>
<path d="M308.69 174.805L301.586 177.822L293.911 161.663L301.002 158.659L308.69 174.805Z" fill="#E4897B"/>
<path d="M350.594 62.1758L346.41 106.635C344.102 108.345 340.445 109.666 336.01 110.696C327.334 112.712 315.767 113.63 305.77 114.172C294.551 114.784 285.333 114.895 284.499 115.549C282.552 117.065 307.258 168.115 307.258 168.115L295.468 169.59C295.468 169.59 264.478 127.063 260.46 112.295C258.986 106.843 257.498 100.015 267.509 93.6323C276.323 88.014 309.135 83.8004 309.135 83.8004L306.605 76.2213L350.594 62.2036V62.1758Z" fill="#141414"/>
<path opacity="0.2" d="M336.01 110.696C327.334 112.712 315.767 113.63 305.77 114.172C304.422 97.7625 312.666 82.0343 312.666 82.0343L324.401 79.0166L335.996 110.696H336.01Z" fill="black"/>
<path d="M412.116 168.254L413.367 175.875L395.863 179.546L394.612 171.926L412.116 168.254Z" fill="#E4897B"/>
<path d="M413.743 176.153C413.743 176.153 413.604 176.084 413.534 176.112C413.465 176.139 413.423 176.209 413.423 176.292C413.423 176.417 413.534 179.533 414.508 180.436C414.702 180.617 414.925 180.715 415.175 180.701C415.606 180.687 415.787 180.478 415.856 180.297C416.065 179.797 415.675 178.907 415.161 178.058C414.674 177.28 414.077 176.529 413.729 176.153H413.743ZM413.826 176.793C414.758 177.905 415.759 179.574 415.522 180.144C415.495 180.214 415.425 180.311 415.161 180.325C415.022 180.325 414.883 180.27 414.758 180.158C414.674 180.089 414.605 179.991 414.535 179.88C414.063 179.115 413.882 177.6 413.826 176.793Z" fill="#407BFF"/>
<path d="M413.687 176.112C413.687 176.112 413.562 176.098 413.506 176.139C413.437 176.195 411.783 177.461 411.602 178.712C411.546 179.101 411.643 179.435 411.866 179.741C412.172 180.144 412.464 180.131 412.658 180.047C413.479 179.713 413.924 177.266 413.798 176.251C413.798 176.223 413.798 176.195 413.771 176.181C413.757 176.153 413.715 176.126 413.687 176.112ZM411.963 178.754C412.074 177.933 412.992 177.043 413.451 176.64C413.451 177.753 413.006 179.505 412.519 179.713C412.478 179.727 412.353 179.783 412.158 179.519C412.13 179.491 412.116 179.463 412.102 179.421C411.977 179.227 411.935 179.004 411.977 178.754H411.963Z" fill="#407BFF"/>
<path d="M412.422 176.042L408.001 168.867C407.834 168.602 407.876 168.255 408.112 168.032L413.145 163.137C413.673 162.636 414.521 162.734 414.897 163.36C416.44 165.974 418.595 169.812 420.597 173.066C422.933 176.877 425.171 180.033 427.91 184.483C429.565 187.181 427.312 189.615 426.367 188.628C422.071 184.178 419.374 180.061 413.896 177.308C413.298 177.002 412.756 176.612 412.408 176.042H412.422Z" fill="#141414"/>
<path d="M350.594 62.176C350.594 62.176 364.72 98.5137 340.89 112.615C340.89 112.615 340.584 154.612 346.618 159.521C353.959 165.515 407.667 168.561 407.667 168.561L407.194 181.897C407.194 181.897 349.691 186.611 332.284 180.353C311.902 173.039 307.355 76.8196 307.355 76.8196L350.608 62.1621L350.594 62.176Z" fill="#141414"/>
<path opacity="0.2" d="M334.258 84.4819L342.836 81.8813C342.836 81.8813 344.018 89.2657 344.004 93.229L340.028 96.65L336.26 95.4541C336.26 95.4541 335.231 87.5552 334.258 84.4958V84.4819Z" fill="black"/>
<path d="M309.427 76.2354L310.539 79.7676L307.369 80.7411L306.257 77.2505L309.427 76.2354Z" fill="#141414"/>
<path d="M324.081 71.5352L325.277 75.1926L312.124 79.2672L310.97 75.7349L324.081 71.5352Z" fill="#141414"/>
<path d="M340.445 66.2783L341.627 70.1165L326.945 74.6778L325.777 70.9926L340.445 66.2783Z" fill="#141414"/>
<path d="M352.402 66.7791L343.351 69.5882H343.337L342.127 65.7361L351.109 62.8574L352.402 66.7791Z" fill="#141414"/>
<g opacity="0.2">
<path d="M309.427 76.2354L310.539 79.7676L307.369 80.7411L306.257 77.2505L309.427 76.2354Z" fill="white"/>
<path d="M324.081 71.5352L325.277 75.1926L312.124 79.2672L310.97 75.7349L324.081 71.5352Z" fill="white"/>
<path d="M340.445 66.2783L341.627 70.1165L326.945 74.6778L325.777 70.9926L340.445 66.2783Z" fill="white"/>
<path d="M352.402 66.7791L343.351 69.5882H343.337L342.127 65.7361L351.109 62.8574L352.402 66.7791Z" fill="white"/>
</g>
<path d="M299.417 175.569C299.486 175.555 299.542 175.486 299.556 175.416C299.556 175.347 299.528 175.263 299.458 175.235C299.347 175.166 296.608 173.706 295.329 174.081C295.065 174.165 294.87 174.304 294.759 174.526C294.551 174.916 294.648 175.166 294.759 175.319C295.093 175.75 296.052 175.875 297.039 175.847C297.957 175.819 298.916 175.68 299.403 175.569H299.417ZM298.805 175.305C297.373 175.541 295.426 175.583 295.051 175.082C295.009 175.013 294.954 174.902 295.079 174.679C295.148 174.554 295.26 174.471 295.426 174.415C295.538 174.387 295.649 174.373 295.774 174.359C296.678 174.331 298.068 174.943 298.791 175.291L298.805 175.305Z" fill="#407BFF"/>
<path d="M299.486 175.528C299.486 175.528 299.57 175.43 299.556 175.361C299.556 175.277 299.292 173.205 298.291 172.413C297.985 172.176 297.637 172.079 297.276 172.121C296.775 172.19 296.636 172.441 296.608 172.649C296.483 173.525 298.374 175.152 299.319 175.542C299.347 175.542 299.375 175.556 299.389 175.556C299.431 175.556 299.458 175.556 299.5 175.514L299.486 175.528ZM298.054 172.705C298.708 173.219 299.014 174.457 299.125 175.055C298.165 174.513 296.872 173.219 296.956 172.705C296.956 172.663 296.984 172.538 297.303 172.496C297.345 172.496 297.373 172.496 297.415 172.496C297.651 172.496 297.86 172.566 298.054 172.719V172.705Z" fill="#407BFF"/>
<path d="M300.167 174.471L308.593 174.276C308.913 174.276 309.191 174.484 309.26 174.79L310.942 181.619C311.123 182.328 310.595 183.009 309.872 183.023C306.827 183.037 302.434 182.967 298.624 183.065C294.161 183.176 290.31 183.51 285.069 183.635C281.899 183.704 280.953 180.534 282.26 180.214C288.266 178.754 293.188 178.49 298.318 175.152C298.874 174.79 299.5 174.526 300.167 174.512V174.471Z" fill="#141414"/>
<path opacity="0.7" d="M350.594 62.1758L306.605 76.1936C306.605 76.1936 298.847 68.5867 288.099 60.1455C286.056 58.5462 283.915 56.9192 281.69 55.306C278.562 53.0254 275.281 50.7864 271.944 48.7144C271.944 48.7144 284.068 20.2478 299.417 17.7168C299.417 17.7168 339.083 29.6903 350.594 62.1758Z" fill="white"/>
<path opacity="0.1" d="M288.099 60.1455C286.056 58.5463 283.915 56.9192 281.69 55.3061L282.552 52.7056C282.552 52.7056 286.25 55.8206 288.099 60.1455Z" fill="black"/>
<path d="M224.534 89.1824L221.503 89.9055C220.752 90.0863 220.168 90.6982 220.043 91.477L219.362 95.7045C219.223 96.5945 219.71 97.4707 220.544 97.8044L222.754 98.6944C222.754 98.6944 229.15 103.311 234.558 100.335L232.222 94.147L227.648 90.0029C226.8 89.238 225.632 88.9321 224.52 89.1963L224.534 89.1824Z" fill="#FFBEA1"/>
<path d="M279.744 49.841C283.637 52.1773 283.97 56.9889 283.97 56.9889C283.97 56.9889 280.912 65.2772 279.146 69.4074C277.936 72.2026 276.699 75.0117 275.239 77.8069C273.737 80.63 272.292 83.3834 269.831 86.4429L269.358 87.013L268.788 87.6249C268.44 88.0143 267.94 88.4732 267.439 88.9043C267.231 89.099 266.841 89.3771 266.522 89.5996C266.202 89.8221 265.771 90.1142 265.632 90.1559L264.45 90.7678C262.921 91.5326 261.489 92.1445 260.043 92.7286C257.193 93.8967 254.356 94.9119 251.52 95.8993C245.834 97.8045 240.175 99.5428 234.364 101.003L231.611 93.563C236.824 90.8929 242.135 88.362 247.321 85.7614C249.921 84.4681 252.507 83.1748 254.982 81.8676C256.206 81.214 257.429 80.5326 258.472 79.8929L259.223 79.4201C259.431 79.3088 259.264 79.3645 259.25 79.3645C259.222 79.3645 259.153 79.4479 259.195 79.3784C259.236 79.3088 259.278 79.281 259.417 79.1002L259.584 78.8916L259.779 78.5996C260.905 76.9586 262.184 74.4555 263.282 72.0079C264.381 69.5048 265.493 66.9042 266.508 64.2481C268.524 58.9636 270.47 53.4428 272.278 48.1027C272.278 48.1027 275.614 47.3656 279.73 49.841H279.744Z" fill="#407BFF"/>
<path opacity="0.7" d="M279.744 49.841C283.637 52.1773 283.97 56.9889 283.97 56.9889C283.97 56.9889 280.912 65.2772 279.146 69.4074C277.936 72.2026 276.699 75.0117 275.239 77.8069C273.737 80.63 272.292 83.3834 269.831 86.4429L269.358 87.013L268.788 87.6249C268.44 88.0143 267.94 88.4732 267.439 88.9043C267.231 89.099 266.841 89.3771 266.522 89.5996C266.202 89.8221 265.771 90.1142 265.632 90.1559L264.45 90.7678C262.921 91.5326 261.489 92.1445 260.043 92.7286C257.193 93.8967 254.356 94.9119 251.52 95.8993C245.834 97.8045 240.175 99.5428 234.364 101.003L231.611 93.563C236.824 90.8929 242.135 88.362 247.321 85.7614C249.921 84.4681 252.507 83.1748 254.982 81.8676C256.206 81.214 257.429 80.5326 258.472 79.8929L259.223 79.4201C259.431 79.3088 259.264 79.3645 259.25 79.3645C259.222 79.3645 259.153 79.4479 259.195 79.3784C259.236 79.3088 259.278 79.281 259.417 79.1002L259.584 78.8916L259.779 78.5996C260.905 76.9586 262.184 74.4555 263.282 72.0079C264.381 69.5048 265.493 66.9042 266.508 64.2481C268.524 58.9636 270.47 53.4428 272.278 48.1027C272.278 48.1027 275.614 47.3656 279.73 49.841H279.744Z" fill="white"/>
<path d="M25.4816 418.849H260.293L384.546 318.459L389.996 325.203H420.611L451.782 181.646L421.167 181.702L421.181 181.646L274.308 181.939L291.839 203.647L25.4816 418.849Z" fill="#295DCF"/>
<path opacity="0.7" d="M25.4816 418.849H229.678L372.464 303.495L389.996 325.203L421.181 181.646L274.308 181.939L291.839 203.647L25.4816 418.849Z" fill="#316EF5"/>
</g>
<defs>
<clipPath id="clip0_5289_3653">
<rect width="526" height="344" fill="white"/>
</clipPath>
</defs>
</svg>
