<svg width="142" height="40" viewBox="0 0 142 40" fill="none" xmlns="http://www.w3.org/2000/svg">
<g clip-path="url(#clip0_5564_3674)">
<path fill-rule="evenodd" clip-rule="evenodd" d="M68.6957 -9.53674e-07H142V40H68.6957V-9.53674e-07ZM81.3861 33.7386H75.6754V6.09492H96.0804V11.7902H81.3861V15.5204H90.4031V21.1823H81.3861V33.7386ZM99.0861 6.09492H104.797V33.7386H99.0861V6.09492ZM129.476 6.09492V25.0125L113.246 6.09492H107.535V33.7386H113.246V14.7877L129.476 33.7386H135.154V6.09492H129.476Z" fill="#417BFF"/>
<path d="M30.4238 14.9542C28.6538 14.9875 27.1844 15.4538 26.0489 16.353C24.9134 17.2523 24.3123 18.3847 24.2455 19.7169V30.2082H18.5348V9.75853H24.2455V11.3239C24.7799 10.5912 25.548 10.0916 26.5164 9.72523C27.4849 9.39217 28.7874 9.19234 30.4238 9.19234V14.9542Z" fill="#417BFF"/>
<path d="M15.1284 15.5204V9.75853H10.2526C4.60865 9.75853 0 14.3214 0 19.9833C0 25.6453 4.57526 30.2415 10.2526 30.2415H15.095V24.4796H10.286C7.81467 24.4796 5.81091 22.4813 5.81091 20.0167C5.81091 17.552 7.81467 15.5537 10.286 15.5537H15.1284V15.5204Z" fill="#417BFF"/>
<path d="M32.0602 19.0508V30.2415H37.7709V19.0508C37.7709 17.0525 39.3739 15.4538 41.3777 15.4538C43.3814 15.4538 44.9845 17.0525 44.9845 19.0508V30.2415H50.6952V19.0508C50.6952 13.9217 46.5207 9.75853 41.3777 9.75853C36.2347 9.75853 32.0602 13.9217 32.0602 19.0508Z" fill="#417BFF"/>
<path d="M44.9845 19.0508V30.2415H50.6952V19.0508C50.6952 17.0525 52.2982 15.4538 54.302 15.4538C56.3058 15.4538 57.9088 17.0525 57.9088 19.0508V30.2415H63.6195V19.0508C63.6195 13.9217 59.445 9.75853 54.302 9.75853C49.159 9.75853 44.9845 13.9217 44.9845 19.0508Z" fill="#417BFF"/>
</g>
<defs>
<clipPath id="clip0_5564_3674">
<rect width="142" height="40" fill="white"/>
</clipPath>
</defs>
</svg>
