<svg width="294" height="320" viewBox="0 0 294 320" fill="none" xmlns="http://www.w3.org/2000/svg">
<g clip-path="url(#clip0_5326_1693)">
<path d="M212.758 83.8948C234.486 49.0896 237.446 14.8125 221.627 3.71546C205.809 -7.38154 174.412 6.94295 148.835 39.0485L75.7223 130.863L150.635 183.419L212.758 83.8948Z" fill="#407BFF"/>
<path opacity="0.1" d="M204.209 77.8981L140.616 176.386L132.836 161.574L196 71.732C213.858 46.3205 223.857 23.1005 223.907 10.1706C223.907 9.00507 225.577 8.71619 225.967 9.82191C230.466 22.702 222.667 49.3288 204.209 77.9081V77.8981Z" fill="white"/>
<path d="M150.643 183.406C160.757 169.097 152.183 145.734 131.494 131.222C110.804 116.71 85.8325 116.546 75.7185 130.854C65.6045 145.163 74.1778 168.527 94.8675 183.038C115.557 197.55 140.529 197.715 150.643 183.406Z" fill="#407BFF"/>
<path opacity="0.5" d="M150.643 183.406C160.757 169.097 152.183 145.734 131.494 131.222C110.804 116.71 85.8325 116.546 75.7185 130.854C65.6045 145.163 74.1778 168.527 94.8675 183.038C115.557 197.55 140.529 197.715 150.643 183.406Z" fill="white"/>
<path opacity="0.1" d="M142.865 114.994C126.427 103.459 107.779 100.172 95.8802 105.561L77.3321 128.851C88.311 116.618 111.839 117.455 131.497 131.241C151.165 145.038 159.884 166.823 152.004 181.248L167.573 156.304C168.903 143.265 159.474 126.649 142.865 114.994Z" fill="black"/>
<path opacity="0.2" d="M169.183 39.9053C164.623 47.0974 161.214 60.5553 174.742 70.0385C188.271 79.5317 199.84 71.7917 205.099 65.0977L169.183 39.9053Z" fill="black"/>
<path d="M208.299 56.76C206.739 69.6102 191.841 78.9839 176.192 67.9965C160.544 57.019 164.373 39.8854 175.992 34.0879C183.151 30.5217 192.26 32.0458 198.5 36.4189C204.739 40.7919 209.249 48.8308 208.289 56.7501L208.299 56.76Z" fill="white"/>
<path d="M178.312 64.9982C172.222 60.7248 169.113 55.1564 169.553 49.309C169.933 44.2586 173.032 39.6863 177.642 37.3852C183.081 34.6757 190.791 35.5224 196.37 39.4373C201.959 43.3621 205.349 50.2952 204.619 56.3119C203.999 61.4121 200.73 65.8549 196.08 67.9169C190.711 70.2977 184.391 69.2617 178.302 64.9883L178.312 64.9982Z" fill="#407BFF"/>
<path opacity="0.3" d="M178.312 64.9982C172.222 60.7248 169.113 55.1564 169.553 49.309C169.933 44.2586 173.032 39.6863 177.642 37.3852C183.081 34.6757 190.791 35.5224 196.37 39.4373C201.959 43.3621 205.349 50.2952 204.619 56.3119C203.999 61.4121 200.73 65.8549 196.08 67.9169C190.711 70.2977 184.391 69.2617 178.302 64.9883L178.312 64.9982Z" fill="black"/>
<path d="M178.312 64.9981C172.222 60.7247 169.003 55.3057 169.243 49.7472C169.453 44.9359 172.332 40.6824 176.762 38.6403C181.991 36.2296 189.551 37.2855 195.13 41.2004C200.72 45.1251 204.259 51.8491 203.739 57.5669C203.299 62.4082 200.25 66.5521 195.77 68.3651C190.601 70.4669 184.391 69.2716 178.302 64.9981H178.312Z" fill="#407BFF"/>
<path opacity="0.2" d="M178.312 64.9981C172.222 60.7247 169.003 55.3057 169.243 49.7472C169.453 44.9359 172.332 40.6824 176.762 38.6403C181.991 36.2296 189.551 37.2855 195.13 41.2004C200.72 45.1251 204.259 51.8491 203.739 57.5669C203.299 62.4082 200.25 66.5521 195.77 68.3651C190.601 70.4669 184.391 69.2716 178.302 64.9981H178.312Z" fill="white"/>
<path opacity="0.3" d="M199.36 45.135L171.223 57.4971C169.803 55.0267 169.133 52.4068 169.243 49.7372C169.303 48.4223 169.553 47.1572 169.993 45.9718L188.161 37.9927C190.621 38.6202 193.02 39.6961 195.14 41.1803C196.73 42.296 198.16 43.6308 199.37 45.125L199.36 45.135Z" fill="white"/>
<path opacity="0.3" d="M203.399 53.1143L177.572 64.4504C175.932 63.2251 174.522 61.9301 173.352 60.5455L201.449 48.1934C202.339 49.7872 203.009 51.4607 203.389 53.1143H203.399Z" fill="white"/>
<path opacity="0.1" d="M231.566 30.93C230.706 24.0567 225.407 16.1075 217.028 10.2302C208.659 4.353 199.36 2.06188 192.57 3.56605C204.119 -1.12577 214.468 -1.31504 221.637 3.71547C228.797 8.74598 232.116 18.5181 231.576 30.93H231.566Z" fill="black"/>
<path opacity="0.5" d="M131.474 155.389C134.625 150.932 132.073 143.736 125.774 139.318C119.475 134.899 111.815 134.931 108.664 139.389C105.514 143.847 108.066 151.042 114.364 155.461C120.663 159.879 128.324 159.847 131.474 155.389Z" fill="#407BFF"/>
<path opacity="0.5" d="M101.72 151.194C98.57 155.647 90.9107 155.687 84.6114 151.264C78.312 146.841 75.7623 139.649 78.912 135.196C82.0616 130.743 89.7208 130.704 96.0202 135.126C102.32 139.549 104.869 146.741 101.72 151.194Z" fill="#407BFF"/>
<path opacity="0.5" d="M145.475 181.885C142.326 186.338 134.666 186.378 128.367 181.955C122.068 177.532 119.518 170.34 122.668 165.887C125.817 161.434 133.476 161.394 139.776 165.817C146.075 170.24 148.625 177.432 145.475 181.885Z" fill="#407BFF"/>
<path opacity="0.5" d="M115.718 177.691C112.569 182.144 104.909 182.184 98.61 177.761C92.3106 173.338 89.7609 166.146 92.9105 161.693C96.0602 157.241 103.719 157.201 110.019 161.624C116.318 166.047 118.868 173.239 115.718 177.691Z" fill="#407BFF"/>
<path opacity="0.5" d="M131.477 155.388C131.147 155.856 130.747 156.284 130.327 156.663C132.077 152.22 129.427 146.054 123.807 142.109C118.178 138.165 111.469 137.756 107.859 140.894C108.069 140.366 108.339 139.858 108.669 139.38C111.819 134.927 119.478 134.897 125.777 139.31C132.077 143.723 134.626 150.925 131.477 155.378V155.388Z" fill="#407BFF"/>
<path opacity="0.5" d="M101.72 151.194C101.39 151.662 101 152.091 100.57 152.469C102.32 148.016 99.6899 141.86 94.0505 137.906C88.421 133.961 81.7117 133.552 78.0921 136.7C78.3021 136.172 78.5721 135.664 78.902 135.186C82.0517 130.723 89.7109 130.703 96.0103 135.116C102.32 139.539 104.859 146.731 101.71 151.184L101.72 151.194Z" fill="#407BFF"/>
<path opacity="0.5" d="M145.475 181.895C145.145 182.363 144.755 182.792 144.325 183.17C146.075 178.717 143.435 172.561 137.806 168.607C132.177 164.652 125.467 164.253 121.848 167.401C122.058 166.873 122.328 166.365 122.658 165.887C125.807 161.424 133.466 161.394 139.766 165.817C146.065 170.23 148.625 177.432 145.465 181.885L145.475 181.895Z" fill="#407BFF"/>
<path opacity="0.5" d="M115.718 177.691C115.388 178.16 114.998 178.588 114.568 178.966C116.318 174.524 113.678 168.358 108.049 164.403C102.42 160.458 95.7103 160.06 92.0906 163.198C92.3006 162.66 92.5706 162.162 92.9006 161.683C96.0502 157.221 103.709 157.201 110.009 161.614C116.308 166.027 118.858 173.229 115.708 177.681L115.718 177.691Z" fill="#407BFF"/>
<path d="M125.337 72.9472C125.337 72.9472 111.849 90.3996 100.09 105.421C96.7203 109.725 91.3208 111.777 85.8814 111.109C75.6024 109.844 58.8441 117.106 58.8441 117.106C58.8441 117.106 90.5309 65.2969 125.337 72.9572V72.9472Z" fill="#407BFF"/>
<path opacity="0.3" d="M125.337 72.9472C125.337 72.9472 111.849 90.3996 100.09 105.421C96.7203 109.725 91.3208 111.777 85.8814 111.109C75.6024 109.844 58.8441 117.106 58.8441 117.106C58.8441 117.106 90.5309 65.2969 125.337 72.9572V72.9472Z" fill="black"/>
<path d="M188.651 117.365C188.651 117.365 176.712 135.903 166.473 151.991C163.543 156.603 163.423 162.361 165.893 167.232C170.553 176.446 169.343 194.616 169.343 194.616C169.343 194.616 207.619 147.438 188.661 117.365H188.651Z" fill="#407BFF"/>
<path opacity="0.3" d="M188.651 117.365C188.651 117.365 176.712 135.903 166.473 151.991C163.543 156.603 163.423 162.361 165.893 167.232C170.553 176.446 169.343 194.616 169.343 194.616C169.343 194.616 207.619 147.438 188.661 117.365H188.651Z" fill="black"/>
<path d="M232.266 250.639C244.705 220.197 190.781 211.57 169.393 219.211C148.005 226.851 126.237 232.529 125.377 212.158C124.517 191.787 140.996 179.156 133.156 174.454C128.797 171.844 127.557 176.486 125.417 183.17C118.828 203.731 81.5717 208.642 98.71 238.406C115.848 268.181 106.749 261.716 77.8621 273.66C48.975 285.603 63.8335 320 91.7707 320H259.854C336.886 320 263.953 173.109 232.266 250.639Z" fill="#407BFF"/>
<path opacity="0.6" d="M232.266 250.639C244.705 220.197 190.781 211.57 169.393 219.211C148.005 226.851 126.237 232.529 125.377 212.158C124.517 191.787 140.996 179.156 133.156 174.454C128.797 171.844 127.557 176.486 125.417 183.17C118.828 203.731 81.5717 208.642 98.71 238.406C115.848 268.181 106.749 261.716 77.8621 273.66C48.975 285.603 63.8335 320 91.7707 320H259.854C336.886 320 263.953 173.109 232.266 250.639Z" fill="white"/>
<path d="M90.3208 144.53C88.081 136.78 75.9623 146.542 64.0135 158.316C51.9747 170.18 46.1853 197.066 34.6465 211.072C23.0277 225.177 -9.96895 237.848 2.95973 258.966C22.0278 290.106 -21.7977 319.99 30.107 319.99H136.566C156.034 319.99 177.142 296.272 146.825 280.114C116.508 263.957 71.0928 301.591 58.844 265.72C52.7646 247.919 74.8024 256.087 64.6034 226.94C54.4045 197.793 55.0644 189.854 60.2739 176.864C72.9426 145.267 93.7205 156.294 90.3208 144.53Z" fill="#407BFF"/>
<path opacity="0.6" d="M90.3208 144.53C88.081 136.78 75.9623 146.542 64.0135 158.316C51.9747 170.18 46.1853 197.066 34.6465 211.072C23.0277 225.177 -9.96895 237.848 2.95973 258.966C22.0278 290.106 -21.7977 319.99 30.107 319.99H136.566C156.034 319.99 177.142 296.272 146.825 280.114C116.508 263.957 71.0928 301.591 58.844 265.72C52.7646 247.919 74.8024 256.087 64.6034 226.94C54.4045 197.793 55.0644 189.854 60.2739 176.864C72.9426 145.267 93.7205 156.294 90.3208 144.53Z" fill="white"/>
<path d="M112.379 148.106C115.018 143.304 124.077 146.183 123.877 152.469C123.677 158.745 100.22 166.993 104.579 188.699C108.939 210.404 150.815 211.968 160.644 233.704C170.473 255.45 132.407 258.498 143.715 272.095C155.024 285.693 190.131 254.464 215.108 262.503C240.076 270.531 265.043 320 219.238 320H78.0921C47.3952 320 24.9875 256.854 54.4745 230.885C83.9615 204.916 60.1739 213.333 71.1828 196.688C82.1917 180.042 102.25 166.525 112.369 148.116L112.379 148.106Z" fill="#407BFF"/>
<path opacity="0.8" d="M112.379 148.106C115.018 143.304 124.077 146.183 123.877 152.469C123.677 158.745 100.22 166.993 104.579 188.699C108.939 210.404 150.815 211.968 160.644 233.704C170.473 255.45 132.407 258.498 143.715 272.095C155.024 285.693 190.131 254.464 215.108 262.503C240.076 270.531 265.043 320 219.238 320H78.0921C47.3952 320 24.9875 256.854 54.4745 230.885C83.9615 204.916 60.1739 213.333 71.1828 196.688C82.1917 180.042 102.25 166.525 112.369 148.116L112.379 148.106Z" fill="white"/>
</g>
<defs>
<clipPath id="clip0_5326_1693">
<rect width="294" height="320" fill="white"/>
</clipPath>
</defs>
</svg>
