<svg width="17" height="14" viewBox="0 0 17 14" fill="none" xmlns="http://www.w3.org/2000/svg">
<path d="M2.09999 6.1C6.39999 4.26 9.25999 3.05 10.7 2.47C14.77 0.8 15.62 0.5 16.18 0.5C16.3 0.5 16.58 0.53 16.75 0.67C16.8635 0.770128 16.9349 0.909431 16.95 1.06C16.98 1.17 17 1.43 16.98 1.63C16.76 3.91 15.8 9.45 15.31 12.01C15.11 13.1 14.7 13.46 14.31 13.49C13.45 13.57 12.81 12.94 11.97 12.41C10.67 11.57 9.93999 11.05 8.67999 10.24C7.22999 9.3 8.17999 8.79 8.99999 7.94C9.21999 7.72 12.99 4.36 13.06 4.05C13.07 4.02 13.08 3.87 12.99 3.8C12.91 3.72 12.78 3.75 12.69 3.77C12.56 3.8 10.49 5.14 6.46999 7.8C5.88999 8.2 5.34999 8.38 4.86999 8.37C4.34999 8.37 3.33999 8.08 2.58999 7.84C1.65999 7.54 0.929992 7.39 0.989992 6.89C1.02999 6.63 1.38999 6.37 2.08999 6.09L2.09999 6.1Z" fill="white"/>
</svg>
