<svg width="16" height="16" viewBox="0 0 16 16" fill="none" xmlns="http://www.w3.org/2000/svg">
<path d="M11.9019 8.97767C11.872 8.9621 10.7524 8.36419 10.5534 8.28654C10.4722 8.2549 10.3852 8.22403 10.2926 8.22403C10.1415 8.22403 10.0145 8.30573 9.91554 8.46623C9.8037 8.64652 9.46513 9.07571 9.36052 9.20393C9.34685 9.22085 9.32821 9.24108 9.31704 9.24108C9.30701 9.24108 9.13374 9.16369 9.08129 9.13898C7.88024 8.57319 6.96861 7.2126 6.8436 6.98316C6.82575 6.95017 6.825 6.93519 6.82485 6.93519C6.82924 6.91773 6.86963 6.87382 6.89047 6.85116C6.95145 6.78573 7.01752 6.69948 7.08145 6.61604C7.11171 6.57651 7.14203 6.53693 7.1718 6.49962C7.26454 6.3826 7.30583 6.29175 7.3537 6.18652L7.37878 6.13185C7.49565 5.88002 7.39583 5.6675 7.36357 5.59888C7.33709 5.54145 6.86434 4.3041 6.81408 4.1741C6.69322 3.86041 6.53351 3.71436 6.31157 3.71436C6.29097 3.71436 6.31157 3.71436 6.2252 3.7183C6.12004 3.72312 5.54737 3.80488 5.29417 3.97797C5.02566 4.16156 4.57141 4.74676 4.57141 5.77593C4.57141 6.70218 5.11342 7.57674 5.34613 7.90936C5.35191 7.91774 5.36253 7.93478 5.37794 7.95922C6.26913 9.3707 7.38012 10.4167 8.50637 10.9047C9.59063 11.3743 10.1041 11.4286 10.396 11.4286H10.396C10.5187 11.4286 10.6169 11.4182 10.7035 11.409L10.7584 11.4033C11.133 11.3673 11.9561 10.9047 12.1433 10.3404C12.2908 9.89598 12.3297 9.41039 12.2316 9.23415C12.1644 9.11432 12.0486 9.05403 11.9019 8.97767Z" fill="white"/>
<path d="M8.13694 0.285645C3.9584 0.285645 0.5589 3.65959 0.5589 7.80672C0.5589 9.14806 0.917865 10.461 1.59787 11.6102L0.296314 15.4495C0.272069 15.5211 0.290102 15.6003 0.34305 15.6542C0.381271 15.6932 0.433117 15.7142 0.486065 15.7142C0.506353 15.7142 0.526791 15.7112 0.546728 15.7048L4.55014 14.4326C5.64567 15.018 6.88387 15.3269 8.13699 15.3269C12.3151 15.327 15.7143 11.9534 15.7143 7.80672C15.7143 3.65959 12.3151 0.285645 8.13694 0.285645ZM8.13694 13.7603C6.95781 13.7603 5.81574 13.4198 4.83402 12.7756C4.80101 12.7539 4.76269 12.7428 4.72412 12.7428C4.70373 12.7428 4.68329 12.7459 4.6634 12.7522L2.65794 13.3897L3.30534 11.4797C3.32628 11.4179 3.31581 11.3497 3.27724 11.297C2.52965 10.2755 2.13447 9.06866 2.13447 7.80672C2.13447 4.52349 4.82716 1.85235 8.13689 1.85235C11.4462 1.85235 14.1386 4.52349 14.1386 7.80672C14.1387 11.0896 11.4463 13.7603 8.13694 13.7603Z" fill="white"/>
</svg>
